<svg width="517.502" height="94.001" viewBox="0 0 517.502 94.001" xmlns="http://www.w3.org/2000/svg"><g id="svgGroup" stroke-linecap="round" fill-rule="evenodd" font-size="9pt" stroke="#000" stroke-width="0" fill="#000" style="stroke:#000;stroke-width:0;fill:#000"><path d="M 105.2 20.101 L 93 63.101 A 9.189 9.189 0 0 0 92.666 64.609 A 7.63 7.63 0 0 0 92.6 65.601 Q 92.6 66.701 92.95 67.451 Q 93.3 68.201 93.9 69.201 Q 94.3 69.701 94.6 70.251 A 2.369 2.369 0 0 1 94.9 71.401 Q 94.9 71.561 94.771 72.11 A 22.156 22.156 0 0 1 94.7 72.401 A 2.823 2.823 0 0 1 93.396 74.028 A 4.121 4.121 0 0 1 92.85 74.301 A 6.383 6.383 0 0 1 91.764 74.63 Q 90.514 74.901 88.7 74.901 L 65.2 74.901 Q 63.1 74.901 61.95 74.201 A 2.769 2.769 0 0 1 61.319 73.687 A 2.01 2.01 0 0 1 60.8 72.301 Q 60.8 71.738 61.064 71.088 A 4.783 4.783 0 0 1 61.1 71.001 Q 61.4 70.301 61.95 69.751 Q 62.5 69.201 62.95 68.951 A 5.55 5.55 0 0 0 63.184 68.814 Q 63.406 68.676 63.543 68.555 A 1.311 1.311 0 0 0 63.6 68.501 A 12.249 12.249 0 0 0 64.969 67.613 A 8.878 8.878 0 0 0 66.2 66.501 A 5.503 5.503 0 0 0 66.852 65.602 Q 67.423 64.641 67.872 63.194 A 17.928 17.928 0 0 0 67.9 63.101 L 75.5 36.101 L 49.6 68.201 Q 47.073 71.281 45.325 72.833 A 13.136 13.136 0 0 1 44.45 73.551 Q 42.5 75.001 40 75.001 A 5.973 5.973 0 0 1 38.411 74.8 A 4.322 4.322 0 0 1 36.25 73.451 A 7.331 7.331 0 0 1 35.441 72.289 Q 34.72 71.035 34.079 69.091 A 31.697 31.697 0 0 1 33.8 68.201 L 24.4 37.301 L 17 63.201 A 9.189 9.189 0 0 0 16.666 64.709 A 7.63 7.63 0 0 0 16.6 65.701 A 6.815 6.815 0 0 0 16.65 66.544 Q 16.732 67.201 16.95 67.701 Q 17.251 68.388 17.81 69.149 A 11.456 11.456 0 0 0 18 69.401 A 8.757 8.757 0 0 1 18.394 70.019 Q 18.9 70.901 18.9 71.501 Q 18.9 71.661 18.771 72.21 A 22.156 22.156 0 0 1 18.7 72.501 A 2.806 2.806 0 0 1 17.235 74.3 A 3.632 3.632 0 0 1 16.9 74.451 A 6.143 6.143 0 0 1 15.917 74.735 Q 14.877 74.952 13.382 74.992 A 25.908 25.908 0 0 1 12.7 75.001 L 4.4 75.001 Q 2.3 75.001 1.15 74.301 A 2.769 2.769 0 0 1 0.519 73.787 A 2.01 2.01 0 0 1 0 72.401 Q 0 71.838 0.264 71.188 A 4.783 4.783 0 0 1 0.3 71.101 A 3.599 3.599 0 0 1 0.887 70.047 A 3.212 3.212 0 0 1 1.6 69.401 Q 2.5 68.801 2.7 68.701 Q 4.3 67.701 5.3 66.651 Q 6.207 65.699 6.867 63.637 A 17.525 17.525 0 0 0 7 63.201 L 19.2 20.001 L 17.6 14.701 A 9.887 9.887 0 0 1 17.183 12.955 A 8.258 8.258 0 0 1 17.1 11.801 Q 17.1 10.5 17.701 9.721 A 2.47 2.47 0 0 1 18.25 9.201 A 3.672 3.672 0 0 1 19.213 8.737 Q 20.244 8.401 21.8 8.401 L 37.3 8.401 A 11.011 11.011 0 0 1 38.925 8.512 Q 40.725 8.781 41.75 9.701 Q 43.2 11.001 44.1 14.201 L 54.1 47.401 L 81.2 13.701 A 21.56 21.56 0 0 1 82.896 11.832 Q 84.621 10.156 86.3 9.451 A 11.659 11.659 0 0 1 88.4 8.811 Q 89.49 8.58 90.778 8.479 A 27.208 27.208 0 0 1 92.9 8.401 L 107.8 8.401 Q 109.9 8.401 111.05 9.051 A 2.607 2.607 0 0 1 111.675 9.53 A 1.929 1.929 0 0 1 112.2 10.901 Q 112.2 11.401 111.9 12.201 Q 111.66 12.923 111.258 13.355 A 2.088 2.088 0 0 1 111.05 13.551 Q 110.621 13.902 109.857 14.405 A 34.487 34.487 0 0 1 109.4 14.701 A 11.578 11.578 0 0 0 108.125 15.526 Q 107.477 16.012 106.987 16.547 A 6.923 6.923 0 0 0 106.85 16.701 A 5.686 5.686 0 0 0 106.227 17.599 Q 105.696 18.528 105.259 19.911 A 19.094 19.094 0 0 0 105.2 20.101 Z M 180.6 66.801 L 176.6 42.301 Q 176.3 40.401 175.75 39.651 A 1.912 1.912 0 0 0 175.246 39.165 Q 174.841 38.905 174.317 38.901 A 2.153 2.153 0 0 0 174.3 38.901 A 1.767 1.767 0 0 0 173.765 38.991 Q 173.301 39.139 172.751 39.528 A 6.431 6.431 0 0 0 172.65 39.601 Q 171.795 40.231 171.386 40.294 A 0.563 0.563 0 0 1 171.3 40.301 A 0.623 0.623 0 0 1 170.728 39.93 Q 170.5 39.507 170.5 38.601 Q 170.5 37.201 171 35.601 A 19.889 19.889 0 0 1 177.624 26.012 A 23.893 23.893 0 0 1 177.7 25.951 Q 182.6 22.001 189.1 22.001 Q 193.693 22.001 196.56 23.957 A 9.158 9.158 0 0 1 198.55 25.801 Q 201.54 29.525 202.464 37.19 A 47.933 47.933 0 0 1 202.5 37.501 L 205.5 59.501 Q 205.8 62.001 207.3 62.001 A 2.623 2.623 0 0 0 208.507 61.671 Q 209.43 61.192 210.481 60.015 A 17.565 17.565 0 0 0 211.5 58.751 A 24.913 24.913 0 0 0 213.139 56.191 Q 214.691 53.438 216.2 49.501 Q 213.2 46.801 211.6 43.301 Q 210 39.801 210 35.801 A 20.707 20.707 0 0 1 210.223 32.698 A 16.098 16.098 0 0 1 210.8 30.201 A 15.455 15.455 0 0 1 211.917 27.424 Q 212.778 25.792 213.978 24.651 A 9.16 9.16 0 0 1 214.55 24.151 Q 217.1 22.101 220.3 22.101 A 8.767 8.767 0 0 1 224.041 22.881 Q 225.943 23.765 227.35 25.651 A 12.341 12.341 0 0 1 229.296 29.688 Q 230 32.155 230 35.301 Q 230 40.601 228.1 46.701 A 74.065 74.065 0 0 1 216.818 69.132 A 83.659 83.659 0 0 1 216.25 69.901 A 72.271 72.271 0 0 1 203.948 82.825 A 63.989 63.989 0 0 1 197.55 87.401 A 46.488 46.488 0 0 1 188.041 92.013 A 35.281 35.281 0 0 1 176.5 94.001 Q 171.484 94.001 167.818 92.326 A 15.484 15.484 0 0 1 167.55 92.201 A 15.671 15.671 0 0 1 164.43 90.249 A 12.304 12.304 0 0 1 161.85 87.401 A 11.801 11.801 0 0 1 160.055 82.881 A 11.411 11.411 0 0 1 159.9 81.001 Q 159.9 79.547 160.37 77.813 A 17.2 17.2 0 0 1 160.4 77.701 A 9.353 9.353 0 0 1 161.485 75.395 A 7.516 7.516 0 0 1 163.4 73.401 A 8.037 8.037 0 0 1 167.234 71.965 A 10.333 10.333 0 0 1 168.4 71.901 A 10.96 10.96 0 0 1 172.2 72.536 A 9.637 9.637 0 0 1 175.95 75.051 Q 178.691 77.977 179.576 82.93 A 24.107 24.107 0 0 1 179.7 83.701 A 16.779 16.779 0 0 0 188.517 80.648 A 23.201 23.201 0 0 0 191.5 78.201 Q 188.071 77.595 185.84 76.244 A 9.235 9.235 0 0 1 183.95 74.751 Q 181.5 72.201 180.6 66.801 Z M 296.8 34.701 L 288.7 61.201 Q 288.542 61.832 288.509 62.215 A 2.163 2.163 0 0 0 288.5 62.401 A 2.257 2.257 0 0 0 288.542 62.846 Q 288.621 63.238 288.85 63.501 Q 289.2 63.901 289.8 63.901 A 2.46 2.46 0 0 0 291.576 63.153 A 3.541 3.541 0 0 0 291.85 62.851 A 12.147 12.147 0 0 1 292.15 62.494 Q 292.757 61.801 293 61.801 A 0.76 0.76 0 0 1 293.508 62 Q 293.624 62.1 293.728 62.249 A 2.082 2.082 0 0 1 293.85 62.451 A 2.852 2.852 0 0 1 294.14 63.298 A 3.923 3.923 0 0 1 294.2 64.001 A 7.129 7.129 0 0 1 294.205 64.255 Q 294.205 66.923 292.203 69.547 A 13.31 13.31 0 0 1 292.2 69.551 Q 290.1 72.301 286.3 74.101 Q 282.5 75.901 277.8 75.901 A 23.547 23.547 0 0 1 274.028 75.617 Q 272.05 75.295 270.437 74.61 A 11.649 11.649 0 0 1 268.4 73.501 Q 264.9 71.101 263.9 67.201 A 27.021 27.021 0 0 1 259.361 71.263 A 22.931 22.931 0 0 1 255.95 73.251 A 21.083 21.083 0 0 1 249.341 75.172 A 19.622 19.622 0 0 1 247.1 75.301 A 23.503 23.503 0 0 1 241.595 74.687 A 17.447 17.447 0 0 1 235.35 71.851 A 10.998 10.998 0 0 1 230.694 63.89 A 14.795 14.795 0 0 1 230.6 62.201 A 17.279 17.279 0 0 1 231.073 58.256 A 21.007 21.007 0 0 1 231.6 56.401 L 238 35.501 A 7.824 7.824 0 0 0 238.159 34.967 Q 238.3 34.413 238.3 34.001 A 3.934 3.934 0 0 0 238.241 33.297 Q 238.168 32.895 238.004 32.574 A 2.081 2.081 0 0 0 237.8 32.251 A 4.656 4.656 0 0 0 237.355 31.756 Q 236.925 31.338 236.3 30.901 Q 235.387 30.17 234.975 29.607 A 2.93 2.93 0 0 1 234.9 29.501 A 1.358 1.358 0 0 1 234.686 28.913 Q 234.633 28.505 234.776 27.985 A 3.786 3.786 0 0 1 234.8 27.901 Q 235.38 25.68 240.713 23.972 A 33.737 33.737 0 0 1 241.1 23.851 Q 246.8 22.101 253 22.101 Q 258.494 22.101 261.207 24.075 A 6.784 6.784 0 0 1 261.5 24.301 A 7.167 7.167 0 0 1 264.173 29.545 A 10.048 10.048 0 0 1 264.2 30.301 Q 264.2 32.601 263.5 34.701 L 257.2 55.501 Q 256.8 56.601 256.8 57.601 Q 256.8 58.625 257.228 59.274 A 2.098 2.098 0 0 0 257.6 59.701 A 2.754 2.754 0 0 0 258.857 60.316 A 3.99 3.99 0 0 0 259.7 60.401 A 5.362 5.362 0 0 0 261.103 60.226 A 4.027 4.027 0 0 0 262.8 59.301 A 6.419 6.419 0 0 0 263.55 58.467 Q 264.375 57.388 265.2 55.601 L 271.3 35.501 A 7.824 7.824 0 0 0 271.459 34.967 Q 271.6 34.413 271.6 34.001 A 3.934 3.934 0 0 0 271.541 33.297 Q 271.468 32.895 271.304 32.574 A 2.081 2.081 0 0 0 271.1 32.251 A 5.79 5.79 0 0 0 270.628 31.714 Q 270.235 31.316 269.7 30.901 Q 268.787 30.17 268.375 29.607 A 2.93 2.93 0 0 1 268.3 29.501 A 1.358 1.358 0 0 1 268.086 28.913 Q 268.033 28.505 268.176 27.985 A 3.786 3.786 0 0 1 268.2 27.901 A 2.805 2.805 0 0 1 268.988 26.55 Q 270.3 25.207 273.674 24.083 A 31.972 31.972 0 0 1 274.4 23.851 Q 280.1 22.101 286.3 22.101 A 24.396 24.396 0 0 1 289.322 22.275 Q 292.617 22.687 294.556 24.078 A 7.008 7.008 0 0 1 294.85 24.301 A 7.048 7.048 0 0 1 297.567 29.409 A 9.336 9.336 0 0 1 297.6 30.201 A 11.263 11.263 0 0 1 297.473 31.826 Q 297.354 32.645 297.121 33.563 A 23.633 23.633 0 0 1 296.8 34.701 Z M 360.6 55.601 L 357.3 67.301 A 18.445 18.445 0 0 1 356.436 69.625 Q 355.905 70.787 355.259 71.668 A 7.356 7.356 0 0 1 353.65 73.301 A 7.704 7.704 0 0 1 351.473 74.369 Q 350.427 74.704 349.146 74.862 A 20.12 20.12 0 0 1 346.7 75.001 L 299.7 75.001 Q 297.6 75.001 296.45 74.301 A 2.769 2.769 0 0 1 295.819 73.787 A 2.01 2.01 0 0 1 295.3 72.401 Q 295.3 71.838 295.564 71.188 A 4.783 4.783 0 0 1 295.6 71.101 Q 295.9 70.301 296.6 69.751 A 16.966 16.966 0 0 1 298.001 68.763 A 18.551 18.551 0 0 1 298.1 68.701 Q 299.7 67.701 300.7 66.651 Q 301.607 65.699 302.267 63.637 A 17.525 17.525 0 0 0 302.4 63.201 L 314.6 20.101 A 9.189 9.189 0 0 0 314.934 18.592 A 7.63 7.63 0 0 0 315 17.601 Q 315 16.501 314.65 15.751 Q 314.3 15.001 313.7 14.001 Q 312.8 12.701 312.8 11.901 Q 312.8 11.623 312.972 10.916 A 17.38 17.38 0 0 1 313 10.801 A 2.789 2.789 0 0 1 314.501 9.063 A 3.811 3.811 0 0 1 314.75 8.951 Q 315.889 8.487 318.059 8.414 A 25.181 25.181 0 0 1 318.9 8.401 L 342.4 8.401 Q 344.5 8.401 345.65 9.051 A 2.607 2.607 0 0 1 346.275 9.53 A 1.929 1.929 0 0 1 346.8 10.901 Q 346.8 11.401 346.5 12.201 Q 346.2 12.901 345.65 13.451 Q 345.1 14.001 344.65 14.251 A 5.55 5.55 0 0 0 344.417 14.387 Q 344.195 14.525 344.058 14.646 A 1.311 1.311 0 0 0 344 14.701 A 12.249 12.249 0 0 0 342.632 15.588 A 8.878 8.878 0 0 0 341.4 16.7 A 5.503 5.503 0 0 0 340.748 17.599 Q 340.178 18.56 339.729 20.007 A 17.928 17.928 0 0 0 339.7 20.101 L 326.8 65.401 L 333 65.401 A 11.074 11.074 0 0 0 334.857 65.253 Q 335.901 65.075 336.772 64.684 A 6.774 6.774 0 0 0 336.95 64.601 A 7.161 7.161 0 0 0 338.207 63.805 Q 339.274 62.977 340.4 61.601 L 347.3 53.401 A 20.829 20.829 0 0 1 348.647 51.974 Q 349.349 51.301 350.029 50.802 A 9.688 9.688 0 0 1 350.95 50.201 Q 352.676 49.214 355.132 49.201 A 12.431 12.431 0 0 1 355.2 49.201 A 10.919 10.919 0 0 1 356.781 49.307 Q 357.586 49.425 358.237 49.674 A 4.54 4.54 0 0 1 359.45 50.351 A 3.745 3.745 0 0 1 360.861 52.937 A 5.462 5.462 0 0 1 360.9 53.601 A 6.396 6.396 0 0 1 360.828 54.535 Q 360.762 54.979 360.637 55.462 A 10.733 10.733 0 0 1 360.6 55.601 Z M 163.7 46.801 L 159.6 60.601 A 2.935 2.935 0 0 0 159.539 60.929 Q 159.516 61.105 159.507 61.309 A 6.327 6.327 0 0 0 159.5 61.601 A 2.892 2.892 0 0 0 159.554 62.185 Q 159.764 63.201 160.8 63.201 A 2.46 2.46 0 0 0 162.576 62.453 A 3.541 3.541 0 0 0 162.85 62.151 A 12.147 12.147 0 0 1 163.15 61.794 Q 163.757 61.101 164 61.101 A 0.718 0.718 0 0 1 164.476 61.287 Q 164.59 61.384 164.692 61.531 A 2.168 2.168 0 0 1 164.85 61.801 A 3.301 3.301 0 0 1 165.166 62.858 A 4.191 4.191 0 0 1 165.2 63.401 A 6.489 6.489 0 0 1 165.205 63.641 Q 165.205 66.225 163.15 68.901 A 15.317 15.317 0 0 1 159.41 72.344 A 19.199 19.199 0 0 1 157.4 73.501 A 17.265 17.265 0 0 1 150.102 75.292 A 20.202 20.202 0 0 1 149.5 75.301 A 23.841 23.841 0 0 1 145.38 74.962 Q 142.739 74.499 140.6 73.401 A 10.836 10.836 0 0 1 137.318 70.874 A 10.096 10.096 0 0 1 135.5 67.801 Q 132.5 71.401 128.4 73.351 Q 124.3 75.301 119.6 75.301 A 22.731 22.731 0 0 1 115.647 74.975 Q 113.387 74.576 111.534 73.687 A 13.366 13.366 0 0 1 110.7 73.251 A 14.843 14.843 0 0 1 107.48 70.817 A 12.414 12.414 0 0 1 105.35 67.951 Q 103.6 64.701 103.6 61.101 Q 103.6 59.501 103.9 58.001 A 18.591 18.591 0 0 1 106.012 52.624 A 15.343 15.343 0 0 1 110.85 47.601 A 21.293 21.293 0 0 1 119.494 44.393 A 27.921 27.921 0 0 1 123.6 44.101 Q 131.9 44.101 139.9 46.701 L 142.4 40.101 Q 143.481 36.608 143.663 34.429 A 9.981 9.981 0 0 0 143.7 33.601 A 6.366 6.366 0 0 0 143.484 32.155 Q 143.179 31.06 142.456 30.322 A 3.962 3.962 0 0 0 142.1 30.001 A 4.682 4.682 0 0 0 140.686 29.247 Q 139.391 28.801 137.5 28.801 Q 138.1 30.401 138.1 32.101 A 8.553 8.553 0 0 1 135.473 38.331 A 11.184 11.184 0 0 1 135.3 38.501 A 9.068 9.068 0 0 1 131.52 40.646 Q 130.122 41.062 128.448 41.166 A 18.526 18.526 0 0 1 127.3 41.201 A 18.02 18.02 0 0 1 124.316 40.969 Q 122.731 40.702 121.453 40.129 A 8.687 8.687 0 0 1 119.65 39.051 A 7.743 7.743 0 0 1 117.948 37.251 A 6.267 6.267 0 0 1 116.9 33.701 Q 116.9 28.906 122.049 25.675 A 18.894 18.894 0 0 1 122.5 25.401 Q 127.571 22.412 137.48 22.13 A 74.478 74.478 0 0 1 139.6 22.101 A 50.62 50.62 0 0 1 146.963 22.603 Q 150.777 23.164 153.911 24.355 A 24.07 24.07 0 0 1 158 26.351 A 13.708 13.708 0 0 1 164.658 36.194 A 19.128 19.128 0 0 1 164.9 39.301 A 21.785 21.785 0 0 1 164.671 42.36 Q 164.449 43.919 164.014 45.637 A 39.722 39.722 0 0 1 163.7 46.801 Z M 401.9 57.001 L 408.2 35.501 Q 408.358 34.869 408.392 34.486 A 2.163 2.163 0 0 0 408.4 34.301 A 3.326 3.326 0 0 0 408.299 33.463 A 2.587 2.587 0 0 0 407.9 32.601 A 6.891 6.891 0 0 0 407.428 32.015 Q 407.035 31.576 406.5 31.101 A 8.179 8.179 0 0 1 405.88 30.508 Q 405 29.566 405 28.801 Q 404.9 27.401 406.7 25.801 A 10.265 10.265 0 0 1 408.402 24.591 Q 409.821 23.774 411.75 23.151 A 21.169 21.169 0 0 1 415.676 22.302 A 28.014 28.014 0 0 1 419.1 22.101 Q 425.8 22.101 429.55 25.351 A 10.53 10.53 0 0 1 433.277 33 A 13.816 13.816 0 0 1 433.3 33.801 A 15.338 15.338 0 0 1 433.075 36.357 A 20.864 20.864 0 0 1 432.5 38.801 L 426 60.201 A 7.824 7.824 0 0 0 425.842 60.734 Q 425.7 61.288 425.7 61.701 A 2.992 2.992 0 0 0 425.815 62.553 A 2.22 2.22 0 0 0 426.6 63.701 Q 427.336 64.273 428.539 64.377 A 6.49 6.49 0 0 0 429.1 64.401 A 6.22 6.22 0 0 0 430.856 64.126 Q 432.405 63.67 434.247 62.453 A 19.56 19.56 0 0 0 434.25 62.451 Q 436.803 60.763 439.318 57.803 A 37.455 37.455 0 0 0 440.1 56.851 A 28.342 28.342 0 0 0 443.501 51.336 A 34.921 34.921 0 0 0 444.8 48.201 A 31.668 31.668 0 0 1 442.18 45.644 Q 440.939 44.274 440.066 42.92 A 15.397 15.397 0 0 1 439.15 41.301 Q 437.5 37.901 437.5 34.301 A 15.426 15.426 0 0 1 438.095 29.928 A 12.574 12.574 0 0 1 440.3 25.651 A 9.087 9.087 0 0 1 446.183 22.273 A 13.618 13.618 0 0 1 448.4 22.101 Q 453.7 22.101 457.2 25.901 A 12.676 12.676 0 0 1 460.123 31.4 Q 460.7 33.619 460.7 36.301 A 28.321 28.321 0 0 1 458.684 46.582 Q 457.261 50.255 454.834 53.994 A 49.919 49.919 0 0 1 454.5 54.501 Q 448.3 63.801 438.8 69.851 A 43.392 43.392 0 0 1 431.2 73.754 Q 426.094 75.733 421.139 75.887 A 26.893 26.893 0 0 1 420.3 75.901 A 34.564 34.564 0 0 1 414.539 75.449 Q 411.414 74.92 408.864 73.772 A 18.293 18.293 0 0 1 406.35 72.401 A 11.943 11.943 0 0 1 402.74 68.839 Q 401.225 66.46 401.029 63.34 A 15.028 15.028 0 0 1 401 62.401 Q 401 60.24 401.729 57.594 A 27.334 27.334 0 0 1 401.9 57.001 Z M 499.822 21.903 A 63.118 63.118 0 0 0 493.4 21.601 A 41.804 41.804 0 0 0 487.23 22.042 A 31.606 31.606 0 0 0 472.85 27.851 A 26.366 26.366 0 0 0 464.743 37.753 A 36.468 36.468 0 0 0 461.9 46.401 A 52.405 52.405 0 0 0 461.637 47.813 Q 461.377 49.331 461.243 50.691 A 27.686 27.686 0 0 0 461.1 53.401 A 27.417 27.417 0 0 0 461.497 58.173 A 18.149 18.149 0 0 0 468.2 69.701 A 25.235 25.235 0 0 0 478.339 74.446 A 36.026 36.026 0 0 0 486.4 75.301 Q 493.9 75.301 499.2 72.601 Q 504.5 69.901 507.2 66.051 Q 509.804 62.338 509.804 58.951 A 8.768 8.768 0 0 0 509.8 58.701 A 2.803 2.803 0 0 0 509.796 58.547 Q 509.733 57.401 508.7 57.401 A 2.622 2.622 0 0 0 508.472 57.411 Q 507.668 57.482 506.039 58.011 A 41.586 41.586 0 0 0 504.9 58.401 A 137.616 137.616 0 0 1 502.798 59.063 Q 500.778 59.681 499.3 60.051 A 17.716 17.716 0 0 1 499.025 60.117 A 18.994 18.994 0 0 1 494.7 60.601 A 22.315 22.315 0 0 1 492.568 60.503 Q 490.934 60.346 489.578 59.936 A 9.934 9.934 0 0 1 486.6 58.501 A 5.955 5.955 0 0 1 484.868 56.528 Q 483.737 54.481 483.8 51.201 Q 487.9 51.801 492.6 51.801 A 59.981 59.981 0 0 0 493.153 51.798 Q 497.275 51.76 500.908 51.153 A 35.64 35.64 0 0 0 508.75 48.951 A 18.029 18.029 0 0 0 510.666 48.022 A 12.631 12.631 0 0 0 517.1 39.501 A 12.816 12.816 0 0 0 517.374 38.043 A 15.851 15.851 0 0 0 517.5 36.001 A 11.58 11.58 0 0 0 515.132 28.814 A 15.104 15.104 0 0 0 511.8 25.651 A 14.662 14.662 0 0 0 510.227 24.68 Q 506.279 22.566 499.822 21.903 Z M 399.5 34.701 L 390.3 64.601 A 11.841 11.841 0 0 0 390.118 65.458 Q 390.041 65.904 390.014 66.3 A 6.011 6.011 0 0 0 390 66.701 Q 390 67.612 390.246 68.253 A 2.519 2.519 0 0 0 390.5 68.751 Q 390.969 69.454 391.789 70.113 A 8.911 8.911 0 0 0 391.9 70.201 Q 392.6 70.901 392.9 71.351 A 1.076 1.076 0 0 1 393.076 71.865 Q 393.099 72.144 393.005 72.483 A 2.549 2.549 0 0 1 393 72.501 A 3.132 3.132 0 0 1 391.619 74.099 A 4.478 4.478 0 0 1 391 74.401 A 6.379 6.379 0 0 1 389.969 74.704 Q 388.889 74.934 387.332 74.986 A 28.306 28.306 0 0 1 386.4 75.001 L 363.6 75.001 A 12.637 12.637 0 0 1 362.266 74.935 Q 360.905 74.79 360.074 74.323 A 3.103 3.103 0 0 1 359.8 74.151 A 2.484 2.484 0 0 1 359.297 73.687 Q 358.776 73.04 358.939 72.158 A 2.789 2.789 0 0 1 359 71.901 A 2.795 2.795 0 0 1 359.599 70.908 Q 359.906 70.57 360.342 70.262 A 6.973 6.973 0 0 1 361.1 69.801 Q 362.6 69.001 363.6 67.901 A 5.3 5.3 0 0 0 364.252 66.991 Q 364.802 66.043 365.238 64.609 A 18.589 18.589 0 0 0 365.3 64.401 L 374 35.501 A 7.824 7.824 0 0 0 374.159 34.967 Q 374.3 34.413 374.3 34.001 A 3.934 3.934 0 0 0 374.241 33.297 Q 374.168 32.895 374.004 32.574 A 2.081 2.081 0 0 0 373.8 32.251 A 4.656 4.656 0 0 0 373.355 31.756 Q 372.925 31.338 372.3 30.901 Q 371.387 30.17 370.975 29.607 A 2.93 2.93 0 0 1 370.9 29.501 A 1.358 1.358 0 0 1 370.686 28.913 Q 370.633 28.505 370.776 27.985 A 3.786 3.786 0 0 1 370.8 27.901 Q 371.38 25.68 376.713 23.972 A 33.737 33.737 0 0 1 377.1 23.851 Q 382.8 22.101 389 22.101 Q 394.494 22.101 397.207 24.075 A 6.784 6.784 0 0 1 397.5 24.301 A 7.167 7.167 0 0 1 400.173 29.545 A 10.048 10.048 0 0 1 400.2 30.301 Q 400.2 32.601 399.5 34.701 Z M 399.071 0.561 A 9.804 9.804 0 0 0 395.7 0.001 A 11.698 11.698 0 0 0 395.208 0.011 A 9.573 9.573 0 0 0 390.2 1.601 Q 387.8 3.201 386.5 5.651 A 12.372 12.372 0 0 0 386.026 6.648 A 10.107 10.107 0 0 0 385.2 10.601 A 11.554 11.554 0 0 0 385.204 10.719 A 8.951 8.951 0 0 0 387.85 16.951 A 8.492 8.492 0 0 0 390.812 18.902 A 9.318 9.318 0 0 0 394.2 19.501 Q 397.2 19.501 399.65 17.951 Q 402.1 16.401 403.45 13.901 Q 404.8 11.401 404.8 8.801 A 10.416 10.416 0 0 0 404.799 8.628 A 8.396 8.396 0 0 0 402.2 2.551 A 8.65 8.65 0 0 0 399.071 0.561 Z M 485.468 45.3 A 9.202 9.202 0 0 0 485.6 45.301 A 7.097 7.097 0 0 0 488.918 44.541 Q 490.366 43.789 491.433 42.295 A 9.958 9.958 0 0 0 492 41.401 Q 494.2 37.501 494.1 32.701 A 7.866 7.866 0 0 0 494.014 31.749 Q 493.856 30.761 493.434 30.301 A 1.212 1.212 0 0 0 492.5 29.901 A 1.81 1.81 0 0 0 491.74 30.087 Q 490.911 30.471 489.9 31.651 Q 488.4 33.401 486.95 36.901 Q 485.704 39.908 484.791 43.876 A 64.737 64.737 0 0 0 484.5 45.201 Q 484.862 45.291 485.468 45.3 Z M 135.7 58.601 L 137.8 52.701 Q 136.1 52.401 134 52.401 A 5.899 5.899 0 0 0 131.552 52.897 A 5.74 5.74 0 0 0 129.45 54.551 A 8.106 8.106 0 0 0 128.194 56.643 A 6.798 6.798 0 0 0 127.7 59.201 A 5.573 5.573 0 0 0 127.805 60.311 Q 127.945 60.998 128.272 61.536 A 3.284 3.284 0 0 0 128.45 61.801 A 2.437 2.437 0 0 0 130.219 62.781 A 3.565 3.565 0 0 0 130.6 62.801 A 3.82 3.82 0 0 0 131.786 62.6 Q 132.578 62.341 133.45 61.751 Q 135 60.701 135.7 58.601 Z"/></g></svg>