<?xml version="1.0" encoding="UTF-8" standalone="no"?>
<!-- Created with Inkscape (http://www.inkscape.org/) -->

<svg
   width="1249.5789mm"
   height="304.14117mm"
   viewBox="0 0 1249.5789 304.14117"
   version="1.1"
   id="svg1"
   inkscape:version="1.3 (0e150ed, 2023-07-21)"
   sodipodi:docname="text.svg"
   xmlns:inkscape="http://www.inkscape.org/namespaces/inkscape"
   xmlns:sodipodi="http://sodipodi.sourceforge.net/DTD/sodipodi-0.dtd"
   xmlns:xlink="http://www.w3.org/1999/xlink"
   xmlns="http://www.w3.org/2000/svg"
   xmlns:svg="http://www.w3.org/2000/svg">
  <sodipodi:namedview
     id="namedview1"
     pagecolor="#ffffff"
     bordercolor="#000000"
     borderopacity="0.25"
     inkscape:showpageshadow="2"
     inkscape:pageopacity="0.0"
     inkscape:pagecheckerboard="0"
     inkscape:deskcolor="#d1d1d1"
     inkscape:document-units="mm"
     showguides="false"
     inkscape:zoom="0.086605465"
     inkscape:cx="3106.0396"
     inkscape:cy="1397.1405"
     inkscape:window-width="1312"
     inkscape:window-height="449"
     inkscape:window-x="0"
     inkscape:window-y="43"
     inkscape:window-maximized="0"
     inkscape:current-layer="layer1" />
  <defs
     id="defs1">
    <linearGradient
       inkscape:collect="always"
       xlink:href="#linearGradient2"
       id="linearGradient3"
       x1="3682.3811"
       y1="1350.4047"
       x2="3682.3811"
       y2="256.45627"
       gradientUnits="userSpaceOnUse" />
    <linearGradient
       id="linearGradient2"
       inkscape:collect="always">
      <stop
         style="stop-color:#b8346c;stop-opacity:1;"
         offset="0"
         id="stop2" />
      <stop
         style="stop-color:#f05a93;stop-opacity:1;"
         offset="0.53794038"
         id="stop30" />
      <stop
         style="stop-color:#f9cfe2;stop-opacity:1;"
         offset="1"
         id="stop3" />
    </linearGradient>
  </defs>
  <g
     inkscape:label="Layer 1"
     inkscape:groupmode="layer"
     id="layer1"
     transform="translate(610.92293,105.56875)">
    <g
       id="g30"
       inkscape:label="text"
       transform="translate(-987.73147,-123.426)">
      <path
         id="path30"
         style="font-size:1066.67px;font-family:Calistoga;-inkscape-font-specification:Calistoga;white-space:pre;display:inline;opacity:1;fill:#ffffff;fill-opacity:1;stroke-width:0.264583"
         inkscape:label="text outline"
         d="m 1290.3281,17.865234 c -7.5526,0.09283 -15.1883,2.176409 -21.3652,6.613282 -6.8256,4.771482 -11.591,12.265054 -13.2652,20.400962 -1.3204,6.400388 -1.1903,13.110601 0.3803,19.454614 1.9102,7.623141 6.4508,14.716431 13.0757,19.060992 6.5706,4.478056 14.6673,6.236453 22.5372,6.02905 7.7008,-0.119137 15.5253,-2.208706 21.7661,-6.84015 6.4625,-4.729558 11.0752,-11.869648 12.7758,-19.692011 1.4883,-6.831034 1.3447,-14.055275 -0.6039,-20.780645 -2.2638,-7.751738 -7.4611,-14.581591 -14.2654,-18.912456 -6.2304,-3.967649 -13.7245,-5.465853 -21.0354,-5.333638 z m -80.1543,6.492188 c -7.4183,0.146791 -14.6962,1.74408 -21.9301,3.250477 -6.8524,1.529272 -13.5973,3.531406 -20.2131,5.875282 -5.2082,1.852041 -10.1949,4.290458 -14.9667,7.049103 -0.7069,0.392233 -1.4137,0.784467 -2.1205,1.1767 0,8.652344 0,17.304688 0,25.957032 3.1282,0.01458 6.2565,0.02345 9.3847,0.04297 0.5594,0.0076 1.4568,0.01056 2.1467,0.04775 2.2535,0.135987 4.6009,0.245382 6.6893,1.169051 1.2061,1.418916 0.9231,3.430571 0.9707,5.161328 -0.01,49.662965 0.013,99.326175 -0.01,148.988975 -0.062,1.61205 -0.1539,3.28706 -0.8478,4.76962 -2.5935,1.10018 -5.49,0.76094 -8.2374,0.85037 -2.1761,0.0127 -4.3521,0.0255 -6.5282,0.0383 0.08,3.95991 0,7.92561 0.2129,11.88085 0.366,4.8551 2.0916,9.54881 4.7637,13.60352 1.9023,3.01417 4.3898,5.58213 6.7597,8.22266 23.3484,0 46.6967,0 70.045,0 2.8115,-3.09492 5.7185,-6.16915 7.7535,-9.85635 0.5378,-0.92986 1.0064,-1.89643 1.4828,-2.8585 1.8081,4.20998 4.6587,7.8861 7.9375,11.05522 0.5863,0.52779 1.0902,1.25191 1.7269,1.65963 23.8209,0 47.6417,0 71.4625,0 2.6841,-2.71448 5.4558,-5.40419 7.4454,-8.69532 2.7328,-4.27184 4.2168,-9.28571 4.3832,-14.3459 0.082,-3.55456 0.089,-7.11194 0.1402,-10.66777 -3.8583,-0.0606 -7.7227,0.0454 -11.5767,-0.14817 -1.5108,-0.16043 -3.1197,-0.37008 -4.3979,-1.25027 -1.0125,-2.11525 -0.7247,-4.54505 -0.7813,-6.82109 0,-30.34088 0,-60.68177 0,-91.02266 1.9372,0.0837 4.0343,-0.16327 5.9871,0.39416 0.8222,0.32753 1.1807,1.28435 1.6907,1.96131 2.3567,4.08716 3.6606,8.65522 5.3725,13.02567 14.7803,39.84882 29.5595,79.69801 44.3404,119.5466 12.3537,-0.0144 24.7081,0.0249 37.0615,-0.0248 7.0363,-0.12791 14.2797,-1.92316 19.8818,-6.35019 4.0136,-3.1507 6.8754,-7.49939 9.2956,-11.93126 3.3162,-6.19399 5.5506,-12.88399 7.5688,-19.59125 9.7228,-29.77739 19.4057,-59.57462 29.1462,-89.34856 0.8685,-2.36409 1.7775,-4.82145 3.4816,-6.72268 1.5198,-1.02193 3.4769,-0.89046 5.2323,-0.93849 0.7715,-0.009 1.5431,-0.0164 2.3146,-0.0224 -5.082,8.72167 -8.5489,18.34495 -10.4075,28.2583 -2.1775,11.61748 -2.4541,23.54972 -1.3258,35.29963 1.3498,13.64073 5.2091,27.23211 12.6473,38.84246 8.1475,12.85665 20.6454,22.86464 34.9427,28.0707 12.5424,4.61733 26.1552,5.7368 39.4068,4.61814 8.4138,-0.73293 16.7644,-2.71354 24.414,-6.34316 7.8525,-3.56818 15.3866,-8.27056 21.0022,-14.91712 3.4784,-4.01456 6.5688,-8.77665 7.039,-14.19809 0.335,-4.36949 -0.9251,-8.654 -2.3763,-12.725 -1.3232,-4.10742 -3.5857,-7.98618 -6.931,-10.77006 -1.6639,-1.50773 -3.3253,-3.01857 -4.9876,-4.52838 -4.5888,3.39745 -8.9941,7.13364 -14.162,9.64616 -3.221,1.68124 -6.6704,2.91924 -10.2511,3.55881 -4.8754,0.88149 -9.9135,1.15694 -14.823,0.38804 -5.2031,-0.83113 -10.2746,-3.29075 -13.6938,-7.36604 -3.0998,-3.96817 -4.4595,-8.9684 -5.3471,-13.84304 -0.4304,-0.88168 0.2984,-0.78996 0.9688,-0.74725 16.8658,-0.0114 33.7321,0.0202 50.5975,-0.0181 6.0207,-0.0805 12.2403,-1.85643 16.7381,-6.00924 3.0351,-2.6868 4.9941,-6.34075 6.3404,-10.11494 3.0635,-8.11641 3.7196,-16.92975 3.1863,-25.52871 -0.6374,-11.37855 -3.5754,-22.83059 -9.8242,-32.46148 -3.903,-6.0812 -9.0679,-11.30273 -14.8626,-15.5922 -8.9207,-6.569719 -19.7198,-10.281702 -30.6776,-11.502709 -13.8292,-1.504932 -28.1241,0.02517 -41.0326,5.351596 -11.0871,4.478443 -20.9605,11.827263 -28.5623,21.044613 -0.6444,0.77214 -1.2699,1.56004 -1.8838,2.35656 0.044,-4.31055 -0.8087,-8.57204 -2.0534,-12.68193 -1.2482,-4.38313 -3.6898,-8.403113 -7.0075,-11.528391 -0.6512,-0.662749 -1.3019,-1.325903 -1.9528,-1.988899 -20.8399,0 -41.6797,0 -62.5195,0 -2.3655,2.411031 -4.8892,4.751597 -6.5199,7.75505 -2.5857,4.48833 -3.586,9.68578 -4.0686,14.78624 -0.2747,4.09652 -0.1375,8.20761 -0.2217,12.31054 -0.2719,0.87526 0.7885,0.43827 1.2957,0.54616 3.2877,0.0651 6.5834,-0.0433 9.8657,0.15505 1.2146,0.15396 2.5381,0.40631 3.4534,1.26923 0.5198,2.71585 -0.6824,5.3321 -1.3448,7.9121 -3.5256,12.34731 -7.1043,24.68004 -10.5968,37.03647 -1.261,4.79839 -2.522,9.59679 -3.783,14.39518 -1.4871,-5.54947 -2.8703,-11.12821 -4.4248,-16.65867 -3.7312,-12.41111 -7.4987,-24.81267 -11.2072,-37.22977 -0.2829,-1.48791 -1.0278,-2.92017 -0.7371,-4.47094 0.1035,-0.62625 0.074,-1.51195 0.8359,-1.71484 2.03,-0.977 4.3481,-0.53453 6.5179,-0.66608 1.9849,-0.0175 3.9698,-0.0351 5.9548,-0.0527 -0.082,-4.02618 0.014,-8.05975 -0.2271,-12.07994 -0.4829,-5.18832 -2.0928,-10.27875 -4.6617,-14.81082 -1.5749,-2.82116 -3.7711,-5.214024 -6.0714,-7.455788 -0.5105,-0.404913 -0.8428,-1.235485 -1.6105,-1.026502 -23.8371,0 -47.6742,0 -71.5114,0 -2.3932,2.40955 -4.9011,4.798236 -6.5976,7.79102 -0.2754,0.62094 -0.4149,-0.6209 -0.6672,-0.85774 -2.2538,-4.708381 -6.7397,-8.171383 -11.7767,-9.433267 -4.9174,-1.317438 -10.0714,-0.897565 -15.0815,-0.480482 -10.155,1.068153 -20.136,3.53091 -29.763,6.902296 -6.477,2.368913 -13.0642,4.638163 -18.9592,8.289583 -1.0815,0.63391 -2.1631,1.26791 -3.2446,1.90188 0,8.98177 0,17.96354 0,26.94531 3.1465,0.0147 6.293,0.0236 9.4395,0.043 0.3773,0.007 1.1383,0.009 1.6665,0.031 2.2251,0.10073 4.5036,0.21352 6.6147,0.98272 0.9829,1.53557 0.8747,3.47535 0.9043,5.23047 -0.01,27.27665 0.016,54.5536 -0.012,81.83008 -0.076,1.49539 -0.1761,3.0639 -0.8867,4.4121 -2.3303,1.18626 -5.0471,0.98682 -7.5863,1.0426 -4.6259,0.0183 -9.256,0.0752 -13.8791,-0.0812 -1.2143,-0.0945 -2.4584,-0.24422 -3.5835,-0.72703 -1.0055,-3.15442 -0.5896,-6.51536 -0.6836,-9.77109 -0.01,-57.46336 0.011,-114.92699 -0.01,-172.390174 -0.046,-5.220887 -1.2663,-10.707398 -4.767,-14.739131 -2.9786,-3.529813 -7.3834,-5.605325 -11.9049,-6.261604 -1.9266,-0.305588 -3.883,-0.391115 -5.8315,-0.361443 z M 712.07422,90.113281 c -11.90905,0.134793 -23.97736,1.338655 -35.24705,5.395298 -8.18363,3.045195 -16.02359,7.401091 -22.25881,13.585171 -6.12289,6.18307 -10.74816,14.10616 -12.04327,22.79071 -1.20371,7.75984 0.0773,16.04548 4.35642,22.71352 3.35441,5.37394 8.45532,9.61018 14.34765,11.93389 0.84883,0.34646 1.71924,0.63566 2.59311,0.91149 -7.44677,2.67565 -14.34328,7.10148 -19.43667,13.20527 -5.9774,6.91995 -9.63797,15.68675 -10.79707,24.72848 -1.01107,7.84267 -0.61115,15.93487 1.70053,23.52328 -2.93335,-0.69759 -6.1855,-1.10627 -8.49804,-3.22266 -0.87091,-1.51391 -0.51993,-3.35778 -0.60159,-5.02812 -0.01,-27.88157 0.017,-55.76351 -0.0157,-83.64484 -0.13798,-9.37991 -2.09812,-18.9779 -7.17826,-26.98365 -4.31263,-6.87256 -10.81337,-12.326142 -18.32322,-15.395435 -9.00862,-3.74129 -18.94379,-4.564262 -28.60352,-4.115893 -9.66028,0.459351 -19.25206,2.721763 -28.00237,6.867161 -3.95083,1.851184 -7.70902,4.124407 -11.14453,6.816407 -5.67912,-6.186611 -13.4674,-10.121705 -21.58008,-12.015218 -8.03212,-1.870799 -16.38007,-2.145109 -24.57374,-1.407292 -8.12622,0.766805 -16.12289,2.943734 -23.45924,6.535171 -2.51175,1.203444 -4.95423,2.555829 -7.28929,4.074839 -1.98278,-3.574181 -5.11331,-6.45044 -8.67773,-8.408204 -4.07578,-2.215876 -8.82516,-2.85591 -13.40521,-2.490669 -6.54287,0.449385 -12.96264,1.881779 -19.37604,3.178169 -8.07659,1.832404 -16.1197,3.981343 -23.7881,7.144634 -4.24833,1.7153 -8.27154,3.92657 -12.15191,6.35166 -0.60398,0.36387 -1.20796,0.72773 -1.81195,1.0916 0,8.95573 0,17.91146 0,26.86718 3.10872,0.0162 6.21748,0.0256 9.32618,0.0449 0.58847,0.007 1.51647,0.0135 2.23496,0.05 2.16161,0.14262 4.41497,0.25238 6.41152,1.16486 0.84301,0.67651 0.80056,1.92371 0.9139,2.90657 0.0512,11.64755 0.006,23.29652 0.0209,34.9446 -0.0113,16.46304 0.0211,32.92668 -0.0177,49.38934 -0.0716,1.42552 -0.18535,2.90363 -0.81556,4.20676 -2.63902,1.10098 -5.57882,0.79255 -8.37145,0.87269 -2.23556,0.0132 -4.47112,0.0263 -6.70667,0.0394 0.0847,4.00217 0.002,8.01102 0.23047,12.00781 0.34397,3.57189 1.19329,7.15037 2.84363,10.35109 2.0482,3.80267 4.88265,7.10615 7.96454,10.10598 0.45167,0.38712 0.81909,0.97518 1.32112,1.24215 22.93412,0 45.86823,0 68.80235,0 2.85073,-2.7587 5.78819,-5.51063 7.84327,-8.94441 0.4193,-0.67416 0.81385,-1.36381 1.17821,-2.06927 1.99486,3.65658 4.66142,6.88166 7.48663,9.92121 0.48392,0.38537 0.74901,1.26108 1.48017,1.09247 22.54427,0 45.08854,0 67.63281,0 2.78133,-2.79728 5.63829,-5.59194 7.65039,-9.02149 2.66434,-4.36847 4.35774,-9.37622 4.48411,-14.51549 0.0478,-3.38798 0.0938,-6.77614 0.14089,-10.1642 -3.7058,-0.0569 -7.41692,0.0266 -11.11914,-0.13867 -0.78066,-0.0861 -1.57876,-0.19713 -2.29687,-0.52734 -1.07103,-2.56027 -0.76256,-5.41276 -0.82063,-8.12266 9e-5,-27.1375 -10e-4,-54.275 -0.002,-81.4125 3.10511,-1.59968 6.7319,-2.31347 10.20109,-1.79079 1.78196,0.23013 3.39858,1.18018 4.54675,2.54964 1.80925,1.92842 1.99544,4.76402 2.00802,7.27631 0.008,31.39939 -0.0127,62.79918 0.0125,94.19831 0.0393,5.6658 2.08576,11.44247 6.23697,15.3995 2.83567,2.79691 6.50769,4.58869 10.32528,5.61434 8.48228,2.49952 17.43219,2.61143 26.19369,2.12107 5.91548,-0.3751 11.87999,-1.05753 17.53229,-2.91866 5.92923,-1.9736 11.54456,-5.02909 16.13582,-9.30083 0.73372,-0.64301 1.46683,-1.28673 2.2002,-1.93014 0,-3.42187 0,-6.84375 0,-10.26562 4.20038,6.94128 10.18558,12.77105 17.20639,16.83193 9.56759,5.66699 20.78696,8.02976 31.8268,8.08662 10.04406,0.0804 20.31075,-1.49224 29.33082,-6.09997 2.31294,-1.14642 4.5762,-2.39319 6.7688,-3.75608 5.62544,5.236 13.03102,8.2586 20.58594,9.30664 9.46824,1.32077 19.1849,0.20596 28.29449,-2.58452 6.48226,-2.119 12.72907,-5.77866 16.67253,-11.47566 0.60343,-0.87162 1.27525,-1.75079 1.71462,-2.69803 0,-6.37161 0,-12.74322 0,-19.11484 -2.9371,-0.70078 -5.91825,-1.236 -8.82313,-2.05936 -1.60165,-0.48384 -3.20714,-1.51395 -3.65891,-3.2258 -0.79927,-2.55282 -0.40046,-5.26733 -0.50046,-7.89648 -0.0101,-23.97375 0.0177,-47.94789 -0.0161,-71.9214 -0.0703,-4.39614 -0.52564,-8.79406 -1.48185,-13.08836 1.38907,0.0192 2.80732,0.0115 4.15234,0.40429 3.35852,6.09052 5.73104,12.65343 8.43427,19.04351 14.10304,34.25188 28.20814,68.50291 42.30987,102.75532 5.14909,0 10.29818,0 15.44727,0 -2.1114,3.98113 -4.75925,7.7269 -8.18307,10.68859 -2.64222,2.37854 -5.67485,4.71725 -9.30912,5.1786 -4.25942,0.1345 -8.7072,-0.4091 -12.47851,-2.52149 -2.17811,-1.17653 -3.78045,-3.09237 -5.33486,-4.96606 -1.01662,-1.18581 -2.03327,-2.37158 -3.04991,-3.55737 -3.05422,1.45667 -6.23289,2.67291 -9.16702,4.36786 -6.30397,3.80934 -10.97607,10.14696 -12.89443,17.2462 -2.14041,7.72101 -1.66951,16.3186 2.11057,23.46577 2.99837,5.71973 7.71374,10.48787 13.23873,13.79621 7.65074,4.49943 16.6456,6.03661 25.4119,6.26238 8.9782,0.31521 18.10156,-1.33135 26.16257,-5.37745 8.24923,-4.0657 15.17403,-10.46643 20.57884,-17.85052 6.73166,-9.04219 11.85468,-19.16694 16.29588,-29.49497 4.66556,-10.84509 8.44461,-22.04306 11.96305,-33.30457 10.57758,-32.91324 21.12708,-65.83578 31.72222,-98.74321 0.48353,-1.39974 1.0303,-2.78221 1.72808,-4.09036 3.36586,0.0343 6.67676,0.0523 9.99805,0.10351 1.17189,0.0546 2.35104,0.14373 3.49219,0.42969 0.0103,26.01086 -0.0179,52.02211 0.0164,78.03273 0.13969,10.51613 2.41346,21.21816 7.94214,30.26834 4.79329,7.95363 12.00207,14.48551 20.55883,18.15708 9.14851,3.98879 19.37754,4.91402 29.2399,3.9995 9.7041,-0.9087 19.2431,-4.25762 27.0946,-10.08852 0.8399,-0.61846 1.6603,-1.26312 2.4626,-1.92967 2.7147,3.44005 6.156,6.30561 10.0912,8.24813 6.1205,3.17168 13.1165,4.37245 19.9664,4.0595 7.0833,-0.24936 14.1489,-1.39181 20.9238,-3.48038 6.4985,-2.08942 12.8,-5.47838 17.1844,-10.82827 0.6066,-0.77385 1.3966,-1.47871 1.8947,-2.29234 0,-6.55131 0,-13.10261 0,-19.65391 -2.7967,-0.27573 -5.5992,-0.53465 -8.3278,-0.81635 -1.7198,-0.0762 -3.6616,-0.75296 -4.3363,-2.49029 -1.2824,-2.76512 -0.7714,-5.88491 -0.8789,-8.82969 -0.01,-33.55929 0.016,-67.11897 -0.012,-100.67802 -0.098,-5.3672 -0.9535,-11.02814 -4.2066,-15.459088 -2.4637,-3.446905 -6.4294,-5.467093 -10.4703,-6.436558 -6.5237,-1.573016 -13.3006,-1.418892 -19.9599,-1.17783 -8.3535,0.389458 -16.6973,1.659144 -24.6667,4.239625 -5.3782,1.664915 -10.8116,3.444522 -15.6176,6.440841 -1.8592,1.20763 -3.5537,2.64605 -5.3343,3.96322 -0.9978,-4.32012 -3.3327,-8.510547 -7.1531,-10.924249 -4.1721,-2.704181 -9.25122,-3.401389 -14.11328,-3.724757 -8.49351,-0.425508 -17.05094,0.101705 -25.4072,1.701697 -5.70108,1.107216 -11.27163,2.819082 -16.72683,4.794965 -1.21491,0.461152 -2.42444,0.938645 -3.60938,1.472654 -1.49511,-2.23642 -3.41848,-4.131105 -5.18945,-6.142576 -20.90234,0 -41.80469,0 -62.70703,0 -2.44651,2.710691 -5.05037,5.364412 -6.70137,8.665246 -2.54515,4.76837 -3.43857,10.2233 -3.74743,15.5636 -0.1108,3.8142 -0.071,7.63146 -0.11761,11.44694 3.70897,0.0601 7.42406,-0.033 11.12891,0.14648 0.8519,0.0964 1.73093,0.21941 2.49805,0.62305 0.55982,1.86222 0.1213,3.84831 -0.17555,5.7228 -1.97062,8.78635 -4.06632,17.54551 -6.08572,26.32125 -1.80028,7.74704 -3.60056,15.49407 -5.40084,23.2411 -5.30969,-15.50973 -10.6647,-31.00479 -15.94607,-46.5237 -0.67788,-2.3048 -0.83592,-4.75535 -0.64768,-7.14231 0.14053,-0.65273 0.17962,-1.50685 0.70054,-1.95246 2.08561,-0.60854 4.29305,-0.29867 6.43496,-0.40295 1.95289,-0.0156 3.90576,-0.0326 5.85864,-0.0489 -0.0813,-4.04542 0.001,-8.09698 -0.21917,-12.13749 -0.52538,-7.17387 -3.48456,-14.10324 -8.20308,-19.520732 -1.18087,-1.349922 -2.40144,-2.66511 -3.59728,-4.001934 -24.95508,0 -49.91016,0 -74.86524,0 -2.52074,2.818851 -5.19164,5.58192 -6.92643,8.983356 -1.505,2.77216 -2.52707,5.78707 -3.18685,8.86625 -5.51852,-7.61457 -13.57278,-13.124626 -22.31505,-16.415874 -11.32833,-4.306737 -23.6021,-5.443399 -35.63612,-5.379045 z m 847.42968,38.851559 c 1.3032,0.31528 2.0395,1.60804 2.7957,2.60717 1.1484,2.2463 1.4918,4.80484 1.8386,7.27676 0.4654,4.16928 0.6487,8.38084 0.4623,12.57237 -0.1484,0.42269 0.1406,1.38777 -0.4513,1.34058 -5.3935,0 -10.787,0 -16.1804,0 0.6741,-6.58459 1.7904,-13.31945 5.0456,-19.17579 0.9121,-1.67781 2.2505,-3.13183 3.9849,-3.97201 0.7673,-0.39919 1.6261,-0.71684 2.5046,-0.64908 z m -854.00585,0.5 c 2.55871,0.40525 5.06119,1.5574 6.83948,3.46268 1.46765,2.23355 1.61858,5.02531 1.71895,7.62047 0.0189,8.39657 0.002,16.79356 0.008,25.19029 -6.36797,-1.25498 -12.80904,-2.24757 -19.30468,-2.4707 5.46321,-3.691 9.6814,-9.28228 11.37408,-15.68629 1.5706,-5.94604 1.50034,-12.47235 -0.9776,-18.16723 0.11393,0.0169 0.22786,0.0339 0.3418,0.0508 z m 313.16405,3.67969 c 2.8458,0.0641 5.6359,-0.0632 8.4973,0.23536 0.916,0.10536 1.829,0.2608 2.7156,0.51659 0,26.38737 0,52.77474 0,79.16211 -2.1594,2.15722 -4.622,4.05597 -7.3535,5.42969 -1.8763,0.84545 -4.0575,1.15354 -6.0606,0.61524 -1.2228,-2.38695 -1.296,-5.15939 -1.3652,-7.7875 0,-26.06758 0,-52.13516 0,-78.20274 1.1888,0.0104 2.3776,0.0208 3.5664,0.0312 z m -546.69921,3.43359 c 2.1775,0.003 4.26257,0.99403 5.73055,2.585 2.13771,1.83441 2.43099,4.86663 2.4099,7.50641 -0.0139,25.64923 0.0163,51.29891 -0.0174,76.94789 -0.0588,1.59012 -0.17776,3.21917 -0.7734,4.7107 -2.41347,0.5868 -4.92504,0.27222 -7.38355,0.37901 -3.19842,-6.6e-4 -6.40233,0.0433 -9.59692,-0.10752 -0.46597,-0.14021 -1.26669,0.0189 -1.49488,-0.46122 -0.90237,-3.39591 -0.50094,-6.94677 -0.59496,-10.41769 0,-25.60351 0,-51.20703 0,-76.81054 2.88455,-2.42173 6.5407,-3.94102 10.28915,-4.29605 0.47592,-0.0418 0.95416,-0.0464 1.43155,-0.036 z m 236.55273,68.32227 c 1.90347,0.10812 3.75888,0.6012 5.54883,1.23633 0,5.32943 0,10.65885 0,15.98828 -3.22292,0.97202 -6.74667,1.26913 -10.02734,0.39648 -2.18836,-0.57455 -4.04164,-2.22811 -4.78133,-4.37542 -0.80233,-2.35655 -0.59713,-4.93252 -0.15354,-7.34077 0.28941,-1.52237 1.03129,-2.98516 2.33721,-3.8756 1.96272,-1.65234 4.55902,-2.23656 7.07617,-2.0293 z" />
      <path
         id="path10"
         style="font-size:1066.67px;font-family:Calistoga;-inkscape-font-specification:Calistoga;white-space:pre;display:inline;opacity:1;fill:#030202;fill-opacity:1;stroke-width:0.264583"
         d="m 1290.3604,22.496706 c -4.4821,0.07936 -8.9855,0.871294 -13.1219,2.63407 -3.5032,1.483648 -6.72,3.647628 -9.4018,6.346777 -2.8924,2.958991 -5.1319,6.550647 -6.5075,10.453571 -1.6044,4.501137 -2.0864,9.340776 -1.833,14.094068 0.2449,4.668705 1.3016,9.33808 3.442,13.514009 1.3102,2.563109 3.0064,4.933019 5.0319,6.979253 3.0226,2.903977 6.702,5.106728 10.6712,6.446253 4.6013,1.566746 9.52,2.025952 14.3564,1.780953 4.6863,-0.241033 9.3788,-1.262306 13.5906,-3.372371 5.8843,-2.918503 10.6812,-7.957757 13.3165,-13.973149 1.8923,-4.277926 2.6854,-8.980712 2.6917,-13.640816 0.017,-4.663937 -0.7527,-9.374248 -2.6197,-13.667221 -1.4467,-3.361891 -3.5647,-6.424618 -6.1623,-9.000027 -2.8432,-2.927448 -6.3692,-5.172458 -10.2024,-6.564214 -4.2268,-1.552652 -8.7666,-2.105229 -13.2517,-2.031156 z m -80.1889,6.49211 c -4.5821,0.09867 -9.1299,0.780812 -13.6218,1.654985 -1.1523,0.231023 -2.3028,0.470913 -3.459,0.682241 -6.1255,1.18241 -12.1661,2.784028 -18.1013,4.702 -6.057,1.849758 -11.9791,4.211476 -17.4954,7.338817 -0.6397,0.355325 -1.2795,0.71065 -1.9192,1.065974 0,6.207202 0,12.414401 0,18.621603 2.1255,0.01868 4.2515,0.0031 6.3766,0.04754 2.4747,0.0818 4.9694,0.277763 7.3643,0.940734 1.0253,0.305827 2.0764,0.672132 2.8963,1.384195 0.8198,0.772604 1.4711,1.724114 1.8604,2.783175 0.6172,1.614379 0.7215,3.36572 0.6935,5.077429 -8e-4,49.763191 0,99.526401 0,149.289581 -0.019,2.12023 -0.1888,4.27495 -0.8902,6.29047 -0.3261,0.88432 -0.7543,1.768 -1.4478,2.42332 -1.1334,0.92771 -2.5781,1.3566 -3.9915,1.63923 -1.8331,0.3566 -3.707,0.39063 -5.5684,0.38605 -1.2247,0.007 -2.4494,0.015 -3.674,0.0225 0.027,1.88267 0.03,3.76592 0.072,5.64822 0.1138,3.31722 0.8749,6.62578 2.3491,9.60673 1.4214,2.92558 3.353,5.58149 5.5603,7.96245 0.377,0.41834 0.7541,0.83667 1.1312,1.255 21.9761,0 43.9522,0 65.9283,0 1.2781,-1.42502 2.5945,-2.82191 3.726,-4.36988 1.2409,-1.66601 2.3162,-3.45496 3.2,-5.33496 1.6253,-3.08123 2.4104,-6.57238 2.4142,-10.04781 0.02,-1.57343 0.041,-3.14685 0.061,-4.72028 -1.9384,-0.0184 -3.8773,-0.009 -5.8154,-0.0461 -2.0075,-0.0747 -4.0453,-0.28488 -5.9361,-1.00243 -0.7018,-0.28411 -1.409,-0.62663 -1.9476,-1.16982 -0.7576,-0.91808 -1.112,-2.08889 -1.3785,-3.22935 -0.501,-2.25415 -0.52,-4.57611 -0.5044,-6.87419 -8e-4,-58.2989 0,-116.59781 0,-174.896705 -0.02,-2.917622 -0.3693,-5.885665 -1.501,-8.597101 -0.7191,-1.739718 -1.8009,-3.335274 -3.2014,-4.598377 -1.8951,-1.796012 -4.3649,-2.880264 -6.8979,-3.416389 -2.0603,-0.444196 -4.1774,-0.560187 -6.2801,-0.518769 z M 712.07785,94.744491 c -7.58852,0.06911 -15.19587,0.624322 -22.65006,2.093206 -4.67233,0.928508 -9.28671,2.217621 -13.68626,4.056533 -5.42139,2.29227 -10.63693,5.18053 -15.16118,8.97097 -2.49179,2.08262 -4.74779,4.45103 -6.66699,7.07245 -2.76096,3.66415 -4.92112,7.81259 -6.10341,12.25642 -1.08575,4.07422 -1.36441,8.36636 -0.78814,12.54425 0.52948,3.83919 1.89598,7.56868 4.04058,10.80139 1.09622,1.65439 2.37051,3.19409 3.80505,4.56591 2.71,2.54875 5.98903,4.47462 9.51431,5.65471 4.07581,1.37198 8.42593,1.79383 12.70702,1.58095 4.02505,-0.21317 8.03714,-1.13355 11.66397,-2.91568 3.80172,-1.87082 7.21238,-4.61666 9.65366,-8.09686 2.03618,-2.88252 3.32926,-6.2634 3.84667,-9.74875 0.30933,-2.12057 0.40119,-4.28094 0.18505,-6.41535 -0.32258,-3.1883 -1.42179,-6.28905 -3.16087,-8.9794 -0.67304,-1.10187 -1.47113,-2.12757 -2.37368,-3.05087 2.34413,-0.48306 4.75454,-0.61503 7.14166,-0.48252 2.99881,0.17817 6.00451,0.96568 8.56083,2.57788 0.80934,0.49908 1.5543,1.09336 2.29447,1.68747 1.51045,1.30392 2.40734,3.16701 2.94333,5.05784 0.74472,2.63858 0.87881,5.40088 0.85167,8.12832 0,9.87347 0,19.74694 0,29.62041 -3.08684,-0.98698 -6.26547,-1.65826 -9.46349,-2.16601 -6.36458,-1.18029 -12.84023,-1.82098 -19.31672,-1.71272 -7.08515,0.0996 -14.20696,0.84593 -21.03226,2.81368 -5.4786,1.58592 -10.76267,4.01415 -15.28294,7.52294 -2.26965,1.73878 -4.29488,3.77941 -6.11958,5.9763 -3.30406,3.98154 -5.82869,8.59982 -7.4277,13.519 -1.86174,5.69317 -2.52103,11.73265 -2.31873,17.70442 0.19762,5.69136 1.34221,11.37538 3.60932,16.61102 2.11161,4.91233 5.19951,9.38487 8.95104,13.18757 1.07524,1.0963 2.20223,2.14281 3.40606,3.09724 4.52543,3.66292 9.72677,6.46867 15.23963,8.32919 7.77287,2.63678 16.06796,3.44228 24.2389,3.10875 6.89536,-0.28845 13.81691,-1.49381 20.20427,-4.1728 2.06539,-0.91339 4.08718,-1.92587 6.06822,-3.01008 2.18628,-1.20682 4.31604,-2.52008 6.34328,-3.9796 2.81297,3.33063 6.38987,5.99744 10.35592,7.79999 4.7425,2.17337 9.95566,3.15341 15.14546,3.37918 7.04271,0.31383 14.10579,-0.72496 20.85766,-2.70692 4.02186,-1.30006 7.93507,-3.14717 11.16058,-5.91794 1.46772,-1.25275 2.75865,-2.70822 3.83863,-4.30694 0.20621,-0.30993 0.45365,-0.60679 0.63436,-0.92482 0,-4.72665 0,-9.45327 0,-14.17992 -1.51294,-0.3483 -3.03366,-0.66416 -4.54125,-1.03479 -2.08825,-0.5525 -4.15753,-1.46478 -5.67585,-3.04356 -1.36773,-1.40593 -2.13592,-3.28967 -2.47888,-5.19817 -0.29202,-1.51904 -0.29855,-3.07115 -0.28617,-4.61204 -10e-4,-24.65271 0.003,-49.30545 -0.002,-73.95816 -0.034,-6.86352 -1.02169,-13.79356 -3.56521,-20.19833 -1.86523,-4.72446 -4.60542,-9.11154 -8.10667,-12.79691 -3.67803,-3.89314 -8.15552,-6.98266 -12.97938,-9.28441 -6.3383,-3.027308 -13.22035,-4.768224 -20.15426,-5.751514 -5.93233,-0.837774 -11.93266,-1.122759 -17.91999,-1.072925 z m -275.54494,0.276985 c -3.36619,0.02359 -6.71094,0.485158 -10.02691,1.030605 -2.00351,0.329919 -3.99363,0.733517 -5.98573,1.124354 -6.64689,1.235919 -13.20892,2.908195 -19.6696,4.895415 -5.33003,1.69206 -10.57703,3.72567 -15.47042,6.4514 -1.33303,0.74659 -2.62798,1.55828 -3.94063,2.33964 0,6.54792 0,13.09584 0,19.64376 2.09979,0.018 4.2,0.002 6.29944,0.0452 2.42538,0.0812 4.87119,0.27614 7.21572,0.93727 1.09037,0.31937 2.18694,0.74739 3.03612,1.52652 1.17041,0.98296 1.79067,2.45805 2.08026,3.92731 0.37039,1.77071 0.26011,3.58777 0.27739,5.38373 -10e-4,26.86182 0.002,53.72366 -0.002,80.58546 -0.0239,2.06315 -0.20254,4.16381 -0.92882,6.11116 -0.3266,0.83339 -0.75539,1.65923 -1.41828,2.2746 -1.09119,0.88016 -2.4706,1.29437 -3.82182,1.57856 -1.98446,0.4064 -4.01831,0.4446 -6.03666,0.43963 -1.21756,0.007 -2.43514,0.0143 -3.6527,0.0215 0.0291,1.89926 0.0327,3.79913 0.0781,5.69802 0.12009,3.24678 0.83598,6.47872 2.15844,9.44861 1.59409,2.98749 3.66604,5.70981 6.06838,8.09286 0.4041,0.41132 0.8082,0.82262 1.2123,1.23394 21.6917,0 43.38338,0 65.07509,0 1.22973,-1.21076 2.49605,-2.39064 3.59627,-3.7243 2.30788,-2.74984 4.07741,-5.97006 5.02525,-9.43959 0.6345,-2.27256 0.90644,-4.63651 0.8948,-6.99331 0.0177,-1.43685 0.0354,-2.87369 0.0531,-4.31057 -1.85235,-0.0194 -3.70518,-0.0135 -5.55721,-0.0495 -1.58456,-0.0717 -3.21056,-0.26622 -4.65174,-0.97128 -0.41307,-0.21707 -0.83124,-0.46564 -1.13456,-0.82505 -0.78444,-1.21859 -1.12297,-2.65869 -1.36417,-4.07035 -0.3343,-2.05044 -0.34414,-4.13363 -0.33133,-6.20552 0,-27.42881 0,-54.85763 0,-82.28645 2.08317,-2.21292 4.65029,-3.95467 7.45434,-5.12061 3.05094,-1.29747 6.38384,-2.07306 9.71219,-1.82892 2.18194,0.15319 4.3339,0.86763 6.12225,2.13768 0.77885,0.53003 1.46169,1.18146 2.13839,1.8325 1.52043,1.38246 2.54891,3.24532 3.07993,5.21893 0.52822,1.90199 0.64289,3.88871 0.61463,5.85388 -10e-4,25.32982 0.003,50.65966 -0.002,75.98947 -0.0286,2.14178 -0.19013,4.31465 -0.86151,6.36188 -0.31962,0.91926 -0.73983,1.8525 -1.47514,2.51536 -0.85698,0.6884 -1.95656,0.96806 -3.01717,1.16486 -1.88725,0.33507 -3.8108,0.23093 -5.71754,0.26667 -0.74877,0.005 -1.49754,0.0103 -2.24634,0.0154 0.0291,1.89773 0.0327,3.79606 0.0782,5.69339 0.12001,3.24548 0.83542,6.47607 2.1568,9.44506 1.55067,2.90336 3.4771,5.60229 5.70402,8.02537 0.38949,0.435 0.77899,0.86998 1.16848,1.30498 21.37595,0 42.7519,0 64.12788,0 1.26527,-1.29503 2.56884,-2.56069 3.68044,-3.99465 1.39244,-1.74937 2.56058,-3.67334 3.49109,-5.70577 1.51786,-3.13764 2.28412,-6.62376 2.28629,-10.10613 0.0215,-1.55408 0.043,-3.10816 0.0646,-4.66225 -1.8791,-0.0196 -3.7587,-0.0119 -5.63745,-0.0499 -1.7335,-0.0745 -3.50597,-0.29308 -5.09225,-1.03791 -0.68747,-0.33512 -1.3575,-0.77994 -1.75956,-1.44859 -0.85281,-1.31239 -1.21999,-2.87026 -1.44761,-4.39999 -0.32769,-2.22786 -0.21953,-4.48482 -0.2385,-6.72822 -10e-4,-27.8281 0.002,-55.65623 -0.002,-83.4843 -0.0646,-0.19381 0.12491,-0.2641 0.25191,-0.36189 1.82195,-1.3115 3.86175,-2.32962 6.02623,-2.93474 3.12079,-0.92002 6.45708,-1.25581 9.67158,-0.65719 2.03954,0.3799 4.00888,1.25347 5.55588,2.65164 0.48413,0.44453 0.94197,0.91721 1.39898,1.38919 1.51911,1.642 2.38091,3.78969 2.7767,5.9684 0.31903,1.66997 0.35547,3.37577 0.3379,5.07082 0.001,31.00682 -0.002,62.01367 0.002,93.02046 0.0102,3.09734 0.62659,6.2435 2.13943,8.97046 1.36099,2.4937 3.45979,4.55358 5.91984,5.96127 1.02036,0.58841 2.09393,1.08733 3.21601,1.44854 5.54836,1.90503 11.43187,2.65891 17.27848,2.77 3.95756,0.0498 7.91895,-0.0606 11.86442,-0.38004 4.19544,-0.35476 8.38938,-0.9421 12.45039,-2.07801 4.98739,-1.54922 9.81874,-3.80463 13.89105,-7.1119 0.89212,-0.7285 1.74154,-1.5072 2.61286,-2.26012 0,-4.665 0,-9.33003 0,-13.99503 -1.57959,-0.36137 -3.16748,-0.68773 -4.74109,-1.07439 -2.35387,-0.61516 -4.689,-1.53782 -6.57088,-3.11656 -0.89262,-0.71657 -1.55728,-1.69488 -1.92637,-2.77601 -0.55076,-1.54629 -0.61384,-3.20807 -0.59079,-4.83335 -0.001,-27.99746 0.002,-55.99493 -0.002,-83.99238 -0.0386,-6.37008 -0.89501,-12.80363 -3.18083,-18.77788 -1.69904,-4.45489 -4.23396,-8.60821 -7.54755,-12.0467 -1.62102,-1.69438 -3.39516,-3.24644 -5.33257,-4.57031 -4.24868,-2.932161 -9.14093,-4.832229 -14.16016,-5.959595 -5.56982,-1.247232 -11.30612,-1.608053 -17.00162,-1.465966 -7.58854,0.193341 -15.17737,1.460645 -22.32692,4.043664 -2.03237,0.733547 -4.02817,1.568057 -5.98768,2.477917 -5.00372,2.34511 -9.67306,5.43184 -13.69724,9.2262 -2.63985,-3.78091 -6.10314,-6.972 -10.0553,-9.34269 -5.06873,-3.062263 -10.83808,-4.804018 -16.66875,-5.674971 -4.61926,-0.688255 -9.30542,-0.869156 -13.96945,-0.700976 -7.10766,0.267284 -14.20728,1.532297 -20.87081,4.052699 -1.98067,0.748663 -3.9185,1.607938 -5.82554,2.527018 -3.88173,1.88924 -7.57407,4.17836 -10.94801,6.87446 -0.77277,-2.61486 -1.88047,-5.1868 -3.64805,-7.29041 -0.61621,-0.74109 -1.33913,-1.381916 -2.05015,-2.029084 -2.17789,-1.912009 -4.86455,-3.226496 -7.70355,-3.800636 -1.33104,-0.273455 -2.69111,-0.397553 -4.04937,-0.393774 z m 863.39949,0.28422 c -6.0676,0.05838 -12.1013,0.915043 -18.0351,2.141678 -4.2479,0.898406 -8.4538,1.996228 -12.6018,3.278846 -2.7396,0.84803 -5.4474,1.79653 -8.1252,2.82245 -3.7812,1.35829 -7.5426,2.80247 -11.1354,4.60964 -1.6172,0.80531 -3.1496,1.7652 -4.7136,2.66634 0,6.56015 0,13.1203 0,19.68045 2.1495,0.0193 4.2996,0.003 6.4488,0.0495 2.3531,0.08 4.724,0.25769 7.0075,0.8635 0.9224,0.26618 1.8735,0.56992 2.6259,1.18917 0.8108,0.75128 1.4047,1.71407 1.7739,2.7524 0.698,1.93076 0.7953,4.01066 0.7706,6.04448 0,27.06305 0,54.12612 0,81.18915 -0.02,2.0836 -0.204,4.20492 -0.9403,6.17037 -0.3565,0.9013 -0.8375,1.79258 -1.5836,2.42985 -1.335,1.02904 -3.0003,1.50257 -4.6365,1.79123 -1.7585,0.30647 -3.5481,0.33533 -5.3283,0.33155 -1.2163,0.007 -2.4324,0.0149 -3.6486,0.0223 0.029,1.93382 0.03,3.86824 0.077,5.80165 0.1231,3.34786 0.8457,6.6996 2.3352,9.71265 1.406,2.89192 3.3586,5.49912 5.6402,7.75798 0.3921,0.40005 0.7843,0.80007 1.1765,1.20012 22.5576,0 45.1152,0 67.6728,0 1.265,-1.29524 2.5694,-2.56021 3.6805,-3.99465 1.7454,-2.21277 3.1897,-4.68212 4.134,-7.34264 0.9835,-2.79281 1.3746,-5.76635 1.3639,-8.71924 0.017,-1.47195 0.033,-2.94391 0.05,-4.41587 -1.922,-0.0185 -3.8445,-0.01 -5.7662,-0.0464 -2.2187,-0.0823 -4.4727,-0.36095 -6.5327,-1.23225 -1.1252,-0.49495 -2.2409,-1.173 -2.9035,-2.2416 -0.8559,-1.35927 -1.1891,-2.97066 -1.3701,-4.5461 -0.1996,-1.79753 -0.1109,-3.60865 -0.1309,-5.41304 -10e-4,-35.74507 0,-71.49015 0,-107.23521 -0.027,-2.93355 -0.3566,-5.91598 -1.4578,-8.65684 -0.6374,-1.58847 -1.5688,-3.06535 -2.7841,-4.275208 -1.7858,-1.876406 -4.1745,-3.094482 -6.6691,-3.722206 -2.084,-0.531177 -4.2452,-0.692914 -6.3903,-0.66407 z m 260.3794,0.282155 c -8.1095,0.05295 -16.236,1.236257 -23.9472,3.778583 -5.1938,1.709466 -10.1942,4.014586 -14.8522,6.879566 -6.0878,3.77982 -11.5583,8.53885 -16.185,14.00833 -4.0398,4.75975 -7.4405,10.04206 -10.2706,15.60142 -3.9788,7.73679 -6.5786,16.14012 -8.0241,24.7068 -1.4555,8.59638 -1.7933,17.35648 -1.3711,26.05643 0.5044,9.8584 2.156,19.72035 5.5915,28.99992 2.5827,7 6.2084,13.63405 10.8746,19.46544 1.9608,2.46732 4.1128,4.78095 6.4229,6.92449 4.8429,4.5189 10.3718,8.30247 16.3487,11.15926 6.3971,3.06697 13.2782,5.0697 20.283,6.14526 6.5412,1.0037 13.1888,1.23637 19.7929,0.88098 6.9616,-0.38883 13.9224,-1.53572 20.5026,-3.88836 2.3241,-0.82934 4.5815,-1.8333 6.8139,-2.88148 4.8262,-2.29878 9.4848,-5.03608 13.5496,-8.52937 2.0855,-1.79118 3.9716,-3.80682 5.6974,-5.94421 1.7757,-2.23308 3.3675,-4.67537 4.2425,-7.41116 0.481,-1.5026 0.6933,-3.09211 0.5834,-4.66769 -0.1579,-2.84291 -0.957,-5.60533 -1.931,-8.26581 -0.8606,-2.84251 -2.1321,-5.62219 -4.1289,-7.85231 -0.8159,-0.91169 -1.7708,-1.68261 -2.6619,-2.51726 -0.4169,-0.37858 -0.8337,-0.75716 -1.2506,-1.13574 -1.6105,1.19829 -3.1909,2.43846 -4.8296,3.59788 -1.7639,1.23949 -3.598,2.3793 -5.4922,3.40893 0.03,-0.0153 -0.2617,0.14065 -0.3581,0.19259 -2.1293,1.13125 -4.3264,2.14066 -6.5885,2.97667 -5.5492,1.87936 -11.4476,2.60393 -17.2917,2.46863 -4.3974,-0.1223 -8.8205,-0.94679 -12.8279,-2.80477 -2.8661,-1.32299 -5.4966,-3.15822 -7.7241,-5.39483 -2.6155,-2.72766 -4.3511,-6.17363 -5.5686,-9.72095 -1.4854,-4.36666 -2.2439,-8.94647 -2.6673,-13.5287 -0.095,-0.2357 0.1023,-0.20348 0.274,-0.19481 18.6425,-0.001 37.2851,0.003 55.9277,-0.002 3.515,-0.0136 7.0877,-0.57212 10.2795,-2.10041 2.6481,-1.25651 4.9615,-3.22035 6.5888,-5.66199 1.0137,-1.4802 1.713,-3.14212 2.3713,-4.80252 2.2901,-5.86787 3.2325,-12.19361 3.2655,-18.47209 0.034,-8.09819 -0.933,-16.26396 -3.5207,-23.96313 -1.9142,-5.72307 -4.7571,-11.15035 -8.5049,-15.88808 -1.5855,-2.01625 -3.3396,-3.89564 -5.2044,-5.65545 -4.5058,-4.36478 -9.7818,-7.92945 -15.5113,-10.48397 -6.8357,-3.066545 -14.2542,-4.701559 -21.7083,-5.254049 -2.3253,-0.174979 -4.6579,-0.244705 -6.9896,-0.23002 z m -573.47708,1.130162 c -8.80739,0.06931 -17.65098,1.104942 -26.1112,3.613977 -2.44279,0.72664 -4.8837,1.46468 -7.28143,2.3309 -2.81311,1.02016 -5.60753,2.14925 -8.17589,3.6995 -1.03241,-2.35818 -2.48812,-4.5223 -4.24577,-6.400662 -0.38275,-0.423913 -0.76547,-0.847828 -1.14821,-1.271741 -19.5294,0 -39.05878,0 -58.58817,0 -1.11583,1.250715 -2.28801,2.460773 -3.23739,3.848223 -1.72202,2.44662 -2.91822,5.24727 -3.57201,8.16344 -0.78793,3.34677 -1.14387,6.78877 -1.12432,10.22531 -0.01,1.40178 -0.0194,2.80356 -0.0291,4.20534 1.8678,0.0202 3.7361,0.0133 5.60355,0.0517 1.77472,0.0743 3.589,0.29848 5.21335,1.05988 0.99545,0.46258 1.86325,1.2378 2.32381,2.24562 0.65969,1.41507 0.7575,3.01464 0.70573,4.55317 -0.10502,2.29276 -0.56973,4.55013 -1.10755,6.77544 -4.85971,20.91074 -9.71939,41.82148 -14.5791,62.73222 -7.00971,-20.43049 -14.02463,-40.85924 -21.03109,-61.29082 -0.50951,-1.54184 -0.87397,-3.13715 -0.9879,-4.75971 -0.18714,-2.19773 -0.3038,-4.45847 0.30265,-6.60559 0.29031,-1.01704 0.73502,-2.0064 1.39732,-2.83617 0.91641,-0.9771 2.2483,-1.41018 3.53147,-1.65025 1.72464,-0.32311 3.48602,-0.2238 5.23047,-0.26043 0.80672,-0.007 1.61346,-0.0135 2.42017,-0.0202 -0.0281,-1.94368 -0.029,-3.88794 -0.0753,-5.83123 -0.14714,-4.17219 -1.158,-8.32355 -3.04467,-12.05341 -1.32887,-2.65904 -3.08842,-5.0891 -5.11153,-7.262085 -0.38862,-0.430141 -0.77724,-0.86028 -1.16586,-1.290418 -23.57893,0 -47.15786,0 -70.73678,0 -1.12882,1.280126 -2.31534,2.516923 -3.29488,3.919653 -1.7983,2.51647 -3.09031,5.37619 -3.89568,8.3581 -0.89077,3.19883 -1.30923,6.52257 -1.2941,9.8415 -0.0136,1.44033 -0.0273,2.88066 -0.0409,4.32099 1.90384,0.0213 3.80815,0.0156 5.71161,0.0548 1.61094,0.0687 3.25234,0.2312 4.76115,0.83568 0.66136,0.27209 1.32231,0.67679 1.64476,1.34293 1.5753,2.6961 2.87864,5.53971 4.13533,8.3949 1.33011,3.05441 2.56196,6.15031 3.84032,9.22651 14.05284,34.12786 28.1051,68.25597 42.15834,102.38367 6.53449,0 13.06896,0 19.60345,0 -1.89822,4.63362 -4.17621,9.14752 -7.17372,13.1744 -1.32496,1.77483 -2.80755,3.43376 -4.45365,4.91699 -2.34641,2.24766 -4.93877,4.30099 -7.90388,5.66973 -1.98461,0.91485 -4.16118,1.46936 -6.35627,1.40777 -3.80492,-0.0333 -7.65878,-0.54332 -11.20169,-1.9867 -2.76354,-1.11596 -5.27846,-2.86115 -7.23736,-5.11249 -0.84748,-0.98505 -1.69045,-1.97401 -2.53619,-2.96053 -1.35152,0.62648 -2.71766,1.22205 -4.0591,1.86981 -3.28171,1.63346 -6.09762,4.12284 -8.27879,7.05641 -0.75139,1.01071 -1.45436,2.06145 -2.01697,3.19029 -1.87767,3.62104 -2.87687,7.66771 -3.05856,11.73512 -0.1678,3.24614 0.20125,6.53182 1.21648,9.62538 1.23206,3.8081 3.41635,7.27004 6.15979,10.16958 2.01147,2.12243 4.27514,4.02145 6.79667,5.51111 4.4513,2.65496 9.5023,4.15425 14.59894,4.94906 3.94023,0.60854 7.93522,0.81941 11.91932,0.7633 5.90783,-0.10465 11.81973,-1.17706 17.31666,-3.36828 5.12993,-2.02946 9.85991,-5.02211 13.97638,-8.68736 2.9659,-2.63223 5.61596,-5.60639 7.99489,-8.77551 4.30162,-5.65605 7.89088,-11.82026 11.09387,-18.15359 4.26175,-8.46786 7.82973,-17.26814 11.03106,-26.18576 1.87759,-5.23447 3.60963,-10.52 5.26156,-15.8296 10.71311,-33.35749 21.42217,-66.71629 32.13785,-100.07294 0.82539,-2.46827 1.80266,-4.91737 3.26094,-7.08694 0.50929,-0.72617 1.0528,-1.44984 1.75236,-2.00416 1.5952,-1.21297 3.60291,-1.71846 5.56606,-1.91772 0.0539,0.0982 0.006,0.30824 0.0222,0.44774 0,0.93148 0,1.86297 0,2.79445 1.96649,0.0256 3.93351,0.0248 5.89965,0.0677 1.94985,0.0789 3.92576,0.29226 5.76577,0.97717 0.64752,0.27211 1.38176,0.53647 1.76734,1.16582 0.47456,0.85578 0.38592,1.87012 0.39585,2.81295 10e-4,25.72325 -0.003,51.44652 0.002,77.16976 0.0358,7.49855 1.12707,15.06868 3.91626,22.06135 2.05925,5.19414 5.08267,10.01414 8.93701,14.06493 3.43072,3.62472 7.56045,6.58162 12.09405,8.66773 5.71503,2.64612 11.99253,3.91562 18.26173,4.21415 6.88672,0.32028 13.86602,-0.35399 20.45612,-2.43843 5.3707,-1.6873 10.4407,-4.33416 14.8746,-7.80513 1.7673,-1.37501 3.4391,-2.88991 5.001,-4.48296 1.8715,3.50414 4.4952,6.60849 7.6706,8.99951 1.1252,0.81184 2.3281,1.51389 3.5563,2.15815 3.8196,1.98255 8.0465,3.13555 12.3287,3.50086 2.7556,0.23918 5.528,0.14954 8.2844,-0.0283 5.1134,-0.36121 10.1855,-1.25373 15.1328,-2.59001 4.1917,-1.213 8.297,-2.8929 11.8836,-5.41033 1.7861,-1.25489 3.4163,-2.73351 4.8128,-4.41272 0.3009,-0.34803 0.6018,-0.69606 0.9026,-1.0441 0,-4.6092 0,-9.2184 0,-13.82757 -1.6517,-0.16775 -3.3064,-0.30882 -4.9562,-0.49408 -1.8947,-0.24874 -3.7777,-0.9393 -5.2134,-2.23132 -0.6179,-0.53681 -1.1481,-1.1707 -1.5538,-1.88227 -1.315,-2.1872 -1.7948,-4.77368 -1.8211,-7.29839 -0.01,-16.2755 -8e-4,-32.55105 0,-48.82658 0,-18.56389 0,-37.1278 0,-55.69168 -0.03,-3.06867 -0.2905,-6.17283 -1.2236,-9.1117 -0.7012,-2.19487 -1.8522,-4.29714 -3.5889,-5.84202 -1.5274,-1.362069 -3.4452,-2.196742 -5.3871,-2.779701 -3.0031,-0.879057 -6.1361,-1.200042 -9.2508,-1.362681 -3.3714,-0.15657 -6.7496,-0.102227 -10.1204,0.04214 -7.6451,0.359039 -15.3009,1.413253 -22.6184,3.711382 -4.0125,1.18952 -8.0107,2.47859 -11.8232,4.21872 -1.9716,0.90705 -3.8932,1.95703 -5.5913,3.31834 -0.487,0.37231 -0.9741,0.74462 -1.4611,1.11693 0,6.43251 0,12.86502 0,19.29753 2.0468,0.0243 4.0941,0.0208 6.1405,0.0642 2.3369,0.0853 4.6971,0.3193 6.9292,1.05231 0.7668,0.27822 1.5839,0.54829 2.1738,1.13865 0.5403,0.57748 0.5657,1.42197 0.5607,2.16824 0,27.30637 0,54.61275 0,81.91913 -2.1276,2.49952 -4.6882,4.60313 -7.4419,6.37764 -2.1879,1.48389 -4.7248,2.51239 -7.3753,2.71616 -1.503,0.10486 -3.0429,0.0505 -4.4941,-0.3857 -1.0382,-0.3074 -2.0145,-0.9288 -2.5856,-1.86764 -0.999,-1.60196 -1.4747,-3.46587 -1.7753,-5.31212 -0.3531,-2.19142 -0.3865,-4.41683 -0.3698,-6.63149 0,-31.27275 0,-62.54551 0,-93.81825 -0.027,-3.03881 -0.2601,-6.10913 -1.1199,-9.03726 -0.651,-2.1924 -1.7225,-4.31773 -3.4066,-5.89829 -1.3379,-1.256436 -2.9943,-2.131225 -4.7284,-2.705789 -2.67581,-0.885073 -5.49445,-1.227775 -8.29511,-1.422355 -2.02126,-0.134617 -4.04797,-0.167663 -6.0732,-0.152913 z m 340.52758,3.358967 c -2.5092,2.50704 -4.3103,5.66686 -5.4018,9.02962 -0.8232,2.52098 -1.418,5.12139 -1.6792,7.76273 -0.2187,2.01493 -0.1643,4.04397 -0.1962,6.06692 -0.01,0.63676 -0.012,1.27352 -0.017,1.91028 1.8601,0.0216 3.7208,0.0161 5.5805,0.0556 1.5733,0.0734 3.1855,0.2723 4.6185,0.96615 0.6067,0.28997 1.1362,0.72224 1.5579,1.24447 1.2793,1.4544 2.2114,3.17286 3.0528,4.90663 1.2831,2.66733 2.228,5.47666 3.2708,8.24203 14.7771,39.8417 29.5537,79.68362 44.3312,119.52517 10.9773,-0.002 21.9547,0.004 32.932,-0.003 4.1756,-0.0313 8.3977,-0.60653 12.2942,-2.1618 3.2579,-1.29337 6.2418,-3.31952 8.539,-5.97755 2.4355,-2.84504 4.396,-6.06645 6.0485,-9.41925 2.3754,-4.82123 4.1765,-9.90367 5.7177,-15.04592 0.4474,-1.53391 0.9769,-3.04239 1.4618,-4.56467 9.3877,-28.79171 18.7712,-57.58486 28.1617,-86.37567 0.8549,-2.50619 1.8492,-4.99314 3.3017,-7.21948 0.7451,-1.11545 1.6217,-2.20373 2.8256,-2.84599 1.6822,-0.91527 3.6233,-1.19561 5.5131,-1.27384 1.8413,-0.0346 3.6834,-0.0328 5.525,-0.053 -0.027,-1.96709 -0.024,-3.93477 -0.072,-5.90145 -0.1181,-3.05116 -0.6644,-6.07959 -1.5607,-8.9966 -0.7994,-3.31489 -2.3269,-6.48129 -4.6017,-9.03742 -0.6856,-0.76784 -1.4301,-1.480049 -2.144,-2.221073 -19.5458,0 -39.0915,0 -58.6373,0 -1.0709,1.103683 -2.1993,2.162153 -3.112,3.406613 -1.8468,2.44054 -3.0673,5.31512 -3.7401,8.29115 -0.8158,3.33343 -1.2182,6.76626 -1.2006,10.19794 -0.012,1.42131 -0.023,2.84263 -0.035,4.26394 1.8543,0.0204 3.7091,0.0135 5.5631,0.0518 2.0721,0.0844 4.196,0.431 6.0231,1.46304 0.5712,0.33047 1.1031,0.72863 1.6016,1.15961 0.9363,0.86086 1.3353,2.13888 1.4632,3.37108 0.1485,1.39502 0.01,2.80359 -0.2182,4.18236 -0.1671,0.94683 -0.4601,1.8635 -0.7411,2.78067 -3.6577,12.7596 -7.321,25.51764 -10.975,38.27822 -2.8302,10.76695 -5.6603,21.5339 -8.4905,32.30085 -2.8474,-10.82742 -5.6897,-21.65627 -8.5403,-32.4828 -3.842,-12.74948 -7.6901,-25.49742 -11.5285,-38.24782 -0.2151,-1.03145 -0.5071,-2.04576 -0.821,-3.05024 -0.1484,-0.90064 -0.2002,-1.81596 -0.1311,-2.72675 0.1005,-1.47697 0.3822,-3.01434 1.2606,-4.24217 0.4933,-0.71573 1.2473,-1.18204 1.9939,-1.59483 1.7091,-0.92073 3.6776,-1.23446 5.6011,-1.21083 1.4761,-0.0131 2.9522,-0.0263 4.4283,-0.0395 -0.027,-1.88736 -0.029,-3.77531 -0.072,-5.66228 -0.118,-3.35157 -0.8525,-6.66655 -2.0444,-9.79664 -1.254,-3.4704 -3.168,-6.73603 -5.7923,-9.34886 -0.4412,-0.448211 -0.8824,-0.896424 -1.3236,-1.344633 -22.7431,0 -45.4863,0 -68.2294,0 -0.4537,0.46233 -0.9074,0.924663 -1.3611,1.386993 z m 232.1227,24.24658 c 1.3406,0.0242 2.6441,0.53196 3.7002,1.34748 1.0523,0.7902 1.8917,1.81857 2.6582,2.87828 0.8456,1.12299 1.3301,2.4672 1.7352,3.79997 0.857,2.95805 1.2243,6.03115 1.4671,9.09312 0.2087,2.89103 0.2899,5.79147 0.2563,8.68964 -0.058,2.28786 -0.3261,4.60578 -1.1613,6.75191 -0.052,0.1418 -0.067,0.33942 -0.256,0.35352 -0.8237,0.23829 -1.6921,0.12888 -2.5372,0.15486 -7.4644,0 -14.9288,0 -22.3933,0 0.3104,-4.89385 0.8082,-9.7907 1.8396,-14.59036 0.5839,-2.75081 1.4312,-5.4436 2.5022,-8.04314 0.9458,-2.24649 2.0792,-4.45297 3.6882,-6.30202 1.0013,-1.1627 2.2751,-2.05417 3.6024,-2.80621 1.4927,-0.82672 3.176,-1.38307 4.8984,-1.32705 z m -851.55315,75.91837 c 2.33942,0.0415 4.65831,0.50369 6.86927,1.25806 1.33081,0.425 2.64258,0.91963 3.89441,1.54228 0,7.37492 0,14.74983 0,22.12475 -1.24056,0.63359 -2.53532,1.16425 -3.86141,1.5892 -3.40527,0.88337 -7.00027,1.20893 -10.48065,0.59247 -2.2379,-0.39984 -4.41693,-1.29905 -6.15376,-2.78689 -0.87463,-0.74641 -1.60107,-1.65649 -2.21832,-2.62316 -1.26225,-1.99161 -1.83946,-4.35667 -1.88542,-6.69924 -0.0325,-2.37454 0.16788,-4.7862 0.93136,-7.0482 0.55467,-1.6464 1.49021,-3.194 2.84467,-4.30298 1.73135,-1.57048 3.84207,-2.74145 6.12825,-3.26078 1.28585,-0.30288 2.61244,-0.41333 3.9316,-0.38551 z"
         inkscape:label="text border" />
      <path
         d="m 2613.1,1101.8371 q -39.4668,0 -68.2669,-10.6667 -27.7334,-11.7334 -27.7334,-44.8002 V 691.16912 q 0,-34.13344 -19.2001,-52.26683 -18.1334,-19.20007 -49.0668,-19.20007 -17.0667,0 -35.2001,6.40003 -17.0667,6.40002 -30.9335,19.20006 1.0667,4.26668 1.0667,8.53336 0,3.20001 0,7.46669 V 980.2367 q 0,30.9334 12.8001,44.8001 12.8,12.8001 40.5334,12.8001 0,17.0667 -7.4667,32.0001 -6.4,13.8667 -18.1334,25.6001 h -227.2007 q -10.6667,-11.7334 -18.1334,-25.6001 -6.4,-14.9334 -6.4,-32.0001 27.7334,0 38.4001,-12.8001 11.7334,-13.8667 11.7334,-44.8001 V 691.16912 q 0,-34.13344 -20.2667,-52.26683 -19.2001,-19.20007 -46.9335,-19.20007 -20.2667,0 -41.6001,9.60004 -21.3334,9.60003 -36.2668,27.73342 V 980.2367 q 0,30.9334 10.6667,44.8001 11.7333,12.8001 38.4001,12.8001 0,33.0668 -25.6001,57.6002 h -231.4674 q -11.7334,-11.7334 -19.2,-25.6001 -6.4001,-14.9334 -6.4001,-32.0001 32.0001,0 45.8668,-12.8001 13.8668,-13.8667 13.8668,-44.8001 V 667.70238 q 0,-27.73342 -16.0001,-40.53346 -14.9334,-12.80005 -55.4668,-12.80005 v -46.93348 q 24.5334,-14.93338 61.8668,-26.66675 38.4001,-11.73337 73.6003,-18.13339 36.2667,-7.46669 55.4668,-7.46669 21.3334,0 35.2001,13.86671 14.9334,12.80004 19.2001,54.40017 27.7334,-30.93343 69.3335,-49.06682 42.6668,-19.20006 96.0003,-19.20006 106.667,0 138.6671,71.46689 27.7335,-34.13344 71.4669,-52.26683 44.8002,-19.20006 99.2003,-19.20006 76.8003,0 114.1337,37.33345 38.4002,37.33345 38.4002,108.80035 V 980.2367 q 0,24.5334 13.8667,37.3335 13.8667,12.8 38.4001,18.1333 v 30.9335 q -19.2001,17.0667 -50.1335,26.6667 -30.9334,8.5334 -81.0669,8.5334 z m 354.1326,1.0667 q -80.0003,0 -130.1338,-43.7335 -49.0668,-44.8002 -49.0668,-114.13371 0,-69.33355 44.8001,-112.00036 45.8668,-42.6668 140.8005,-42.6668 30.9334,0 65.0668,6.40002 34.1335,5.33335 55.4669,17.06672 V 671.96906 q 0,-44.80014 -23.4668,-61.86687 -22.4,-18.13339 -55.4668,-18.13339 -35.2001,0 -57.6002,17.06672 21.3334,7.46669 30.9335,23.46675 9.6,14.93338 9.6,33.06677 0,35.20011 -25.6001,56.53351 -24.5334,20.26673 -60.8002,20.26673 -40.5334,0 -65.0669,-23.46674 -24.5334,-24.53341 -24.5334,-60.80019 0,-36.26678 24.5334,-68.26689 24.5335,-33.06677 75.7336,-54.40017 52.2668,-21.3334 134.4004,-21.3334 214.4007,0 214.4007,169.60054 v 282.66756 q 0,51.20021 49.0668,61.86691 v 34.1334 q -13.8667,20.2667 -46.9334,30.9334 -33.0668,9.6001 -64.0002,9.6001 -72.5336,0 -102.4004,-50.1335 -21.3334,19.2 -56.5335,35.2001 -35.2001,14.9334 -83.2002,14.9334 z m 69.3335,-86.4003 q 14.9334,0 30.9334,-4.2667 16.0001,-5.3333 26.6668,-12.80004 V 895.96977 q -10.6667,-7.46669 -27.7334,-12.80004 -16.0001,-5.33335 -32.0001,-5.33335 -27.7335,0 -48.0002,18.13339 -20.2667,17.06672 -20.2667,54.40017 0,28.80009 19.2,48.00015 19.2001,18.13341 51.2002,18.13341 z m 494.9321,39.4668 -164.2671,-398.93462 q -12.8001,-30.93343 -22.4001,-46.93349 -9.6,-16.00005 -42.6668,-16.00005 0,-18.13339 5.3333,-35.20011 5.3334,-17.06672 17.0668,-29.86676 h 251.7341 q 25.6001,27.73342 25.6001,65.06687 -26.6668,0 -38.4002,13.86671 -10.6667,13.86672 -10.6667,35.20012 0,7.46669 1.0667,17.06672 1.0667,8.53336 4.2667,18.13339 l 99.2003,289.06758 70.4002,-302.93429 q 3.2,-14.93338 3.2,-25.60008 0,-44.80015 -52.2668,-44.80015 0,-18.13339 4.2667,-35.20011 4.2667,-17.06672 16,-29.86676 h 205.8674 q 11.7333,12.80004 16,29.86676 5.3334,17.06672 5.3334,35.20011 -26.6668,0 -41.6002,12.80004 -13.8667,12.80004 -23.4667,42.66681 l -121.6004,378.66791 q -46.9335,151.4671 -101.3337,221.8673 -53.3335,70.4002 -137.6004,70.4002 -66.1335,0 -99.2003,-27.7334 -33.0668,-27.7334 -33.0668,-66.1335 0,-25.6001 11.7334,-45.8668 12.8,-20.2668 32.0001,-28.8001 28.8001,34.1334 85.3336,34.1334 32.0001,0 65.0669,-32.0001 34.1334,-30.9334 56.5335,-98.1336 z m 614.3991,46.9335 q -74.6669,0 -116.267,-45.8669 -41.6002,-45.8668 -41.6002,-123.73368 V 639.96896 q 0,-18.13339 -13.8667,-25.60009 -13.8667,-7.46669 -38.4001,-7.46669 V 559.9687 q 13.8667,-11.73337 57.6002,-24.53341 44.8001,-13.86671 100.267,-13.86671 41.6001,0 54.4002,9.60003 13.8667,9.60003 13.8667,46.93348 v 358.40114 q 0,32.0001 10.6667,49.06682 10.6667,17.06675 37.3334,17.06675 22.4001,0 42.6668,-13.86674 21.3334,-13.86671 35.2001,-32.0001 v -316.801 q 0,-18.13339 -16,-25.60009 -16.0001,-7.46669 -43.7335,-7.46669 V 559.9687 q 14.9334,-11.73337 58.6669,-24.53341 43.7334,-13.86671 103.467,-13.86671 41.6001,0 56.5335,9.60003 14.9333,9.60003 14.9333,46.93348 v 392.53458 q 0,25.60008 12.8001,42.66683 13.8667,17.0667 38.4001,19.2 v 29.8668 q -17.0667,20.2667 -54.4002,30.9334 -36.2667,9.6001 -70.4002,9.6001 -35.2001,0 -61.8669,-18.1334 -25.6,-19.2001 -34.1334,-54.4002 -52.2668,72.5336 -146.1338,72.5336 z m 637.8657,-7.4667 q -11.7334,-12.8001 -18.1334,-26.6668 -6.4,-13.8667 -6.4,-30.9334 30.9334,0 44.8001,-12.8001 13.8667,-13.8667 13.8667,-45.86677 V 412.76824 q 0,-24.53341 -13.8667,-38.40013 -13.8667,-14.93338 -58.6668,-14.93338 v -42.6668 q 26.6667,-14.93338 61.8668,-25.60008 36.2668,-11.73337 71.4669,-18.13339 35.2001,-7.46669 58.6669,-7.46669 24.5334,0 35.2001,10.6667 11.7334,10.6667 11.7334,37.33345 v 665.60211 q 0,33.06677 12.8,45.86677 13.8667,12.8001 45.8668,12.8001 0,17.0667 -7.4667,30.9334 -6.4,13.8667 -18.1334,26.6668 z m 454.3998,-653.86877 q -45.8668,0 -73.6002,-26.66675 -26.6668,-27.73342 -26.6668,-73.60024 0,-44.80014 27.7334,-72.53356 28.8001,-27.73342 74.6669,-27.73342 46.9335,0 73.6003,27.73342 27.7334,27.73342 27.7334,72.53356 0,45.86682 -28.8001,73.60024 -27.7334,26.66675 -74.6669,26.66675 z m -119.4671,653.86877 q -11.7333,-11.7334 -18.1333,-25.6001 -6.4001,-13.8667 -6.4001,-32.0001 30.9335,0 45.8668,-12.8001 14.9334,-13.8667 14.9334,-45.86677 V 669.83572 q 0,-27.73342 -13.8667,-41.60013 -12.8,-13.86672 -56.5335,-13.86672 v -46.93348 q 16.0001,-9.60003 49.0668,-21.3334 33.0668,-12.80004 71.4669,-21.3334 39.4668,-8.53336 70.4002,-8.53336 24.5335,0 35.2002,11.73337 10.6667,10.6667 10.6667,37.33345 V 980.2367 q 0,32.0001 16,44.8001 16.0001,12.8001 46.9335,12.8001 0,18.1334 -6.4,32.0001 -6.4001,13.8667 -18.1334,25.6001 z m 478.9327,7.4667 -168.5338,-454.40148 q -10.6667,-28.8001 -22.4001,-41.60014 -11.7334,-13.86671 -39.4668,-13.86671 0,-17.06672 5.3334,-34.13344 5.3333,-18.13339 17.0667,-29.86676 h 243.2007 q 11.7334,11.73337 18.1334,29.86676 6.4001,17.06672 6.4001,34.13344 -21.3334,0 -36.2668,11.73337 -13.8667,11.73337 -13.8667,36.26679 0,4.26668 1.0666,10.6667 2.1334,6.40002 3.2,11.73337 l 43.7335,145.06712 49.0668,186.66726 49.0669,-186.66726 41.6001,-145.06712 q 2.1333,-6.40002 3.2,-12.80004 1.0667,-7.46669 1.0667,-12.80004 0,-22.40008 -14.9334,-33.06678 -14.9334,-11.73337 -40.5335,-11.73337 0,-17.06672 4.2667,-34.13344 4.2667,-18.13339 16.0001,-29.86676 h 206.9339 q 11.7334,11.73337 16.0001,29.86676 5.3333,17.06672 5.3333,34.13344 -27.7334,0 -41.6001,13.86671 -12.8,12.80004 -22.4001,41.60014 l -110.9336,340.26774 q -17.0668,58.66684 -39.4668,86.40024 -21.3334,27.7335 -69.3336,27.7335 z m 656.002,2.1333 q -119.4671,0 -190.934,-75.7336 -70.4002,-75.73355 -70.4002,-211.20065 0,-92.80029 35.2001,-160.0005 35.2001,-68.26689 94.9337,-104.53367 60.8002,-36.26678 137.6004,-36.26678 96.0003,0 153.6005,56.53351 58.6668,55.46685 58.6668,156.8005 0,40.53346 -13.8667,71.46689 -12.8,29.86676 -54.4001,29.86676 h -230.4008 q 3.2,84.26694 38.4002,119.46705 36.2667,35.20011 93.8669,35.20011 36.2668,0 67.2002,-10.6667 30.9335,-11.73337 57.6002,-32.0001 9.6,8.53336 14.9334,26.66675 6.4,17.06672 6.4,28.80009 0,17.06674 -24.5334,42.66684 -23.4667,24.5334 -68.2669,43.7334 -43.7335,19.2001 -105.6003,19.2001 z m -80.0003,-354.13446 h 107.7337 q 18.1334,0 22.4001,-13.86671 5.3333,-13.86671 5.3333,-34.13344 0,-68.26688 -17.0667,-89.60029 -16,-22.40007 -38.4001,-22.40007 -18.1334,0 -36.2668,13.86671 -18.1334,13.86671 -29.8668,49.06683 -11.7333,34.13344 -13.8667,97.06697 z"
         id="text1"
         style="font-size:1066.67px;font-family:Calistoga;-inkscape-font-specification:Calistoga;white-space:pre;fill:url(#linearGradient3)"
         transform="matrix(0.26458333,0,0,0.26458333,-95.339009,-36.653689)"
         aria-label="mayu live"
         inkscape:label="text" />
    </g>
  </g>
</svg>
