<svg xmlns="http://www.w3.org/2000/svg" xmlns:xlink="http://www.w3.org/1999/xlink" width="2763.335" height="876.426" viewBox="0 0 731.132 231.888"><defs><linearGradient xlink:href="#a" id="b" x1="3682.381" x2="3682.381" y1="1350.405" y2="256.456" gradientUnits="userSpaceOnUse"/><linearGradient id="a"><stop offset="0" style="stop-color:#b8346c;stop-opacity:1"/><stop offset=".538" style="stop-color:#f05a93;stop-opacity:1"/><stop offset="1" style="stop-color:#f9cfe2;stop-opacity:1"/></linearGradient></defs><path d="M712.074 90.113c-11.909.135-23.977 1.339-35.247 5.396-8.183 3.045-16.023 7.4-22.259 13.585-6.123 6.183-10.748 14.106-12.043 22.79-1.204 7.76.077 16.046 4.357 22.714 3.354 5.374 8.455 9.61 14.347 11.934.849.346 1.72.636 2.593.911-7.446 2.676-14.343 7.102-19.436 13.206-5.978 6.92-9.638 15.686-10.797 24.728-1.012 7.843-.612 15.935 1.7 23.523-2.933-.697-6.185-1.106-8.498-3.222-.87-1.514-.52-3.358-.602-5.028-.01-27.882.017-55.764-.015-83.645-.138-9.38-2.098-18.978-7.179-26.984-4.312-6.872-10.813-12.326-18.323-15.395-9.008-3.742-18.944-4.565-28.603-4.116-9.66.46-19.252 2.722-28.003 6.867-3.95 1.851-7.709 4.124-11.144 6.816-5.68-6.186-13.468-10.121-21.58-12.015-8.032-1.87-16.38-2.145-24.574-1.407-8.126.767-16.123 2.944-23.46 6.535a64.343 64.343 0 0 0-7.289 4.075c-1.982-3.574-5.113-6.45-8.677-8.408-4.076-2.216-8.825-2.856-13.405-2.491-6.543.45-12.963 1.882-19.377 3.178-8.076 1.833-16.12 3.981-23.788 7.145-4.248 1.715-8.271 3.926-12.152 6.351l-1.811 1.092v26.867c3.108.016 6.217.026 9.326.045.588.007 1.516.014 2.235.05 2.161.143 4.415.253 6.411 1.165.843.676.8 1.924.914 2.907.051 11.647.006 23.296.021 34.944-.011 16.463.021 32.927-.018 49.39-.071 1.425-.185 2.903-.815 4.206-2.64 1.101-5.58.793-8.372.873l-6.706.04c.084 4.002.002 8.01.23 12.007.344 3.572 1.193 7.15 2.844 10.351 2.048 3.803 4.882 7.106 7.964 10.106.452.387.82.975 1.321 1.242h68.803c2.85-2.758 5.788-5.51 7.843-8.944.42-.674.814-1.364 1.178-2.07 1.995 3.657 4.662 6.882 7.487 9.922.484.385.749 1.261 1.48 1.092h67.633c2.781-2.797 5.638-5.592 7.65-9.021 2.665-4.369 4.358-9.376 4.484-14.516l.141-10.164c-3.706-.057-7.417.027-11.119-.138-.78-.087-1.579-.198-2.297-.528-1.07-2.56-.762-5.413-.82-8.122l-.002-81.413c3.105-1.6 6.731-2.313 10.2-1.79 1.783.23 3.4 1.18 4.547 2.549 1.81 1.928 1.996 4.764 2.008 7.276.008 31.4-.012 62.8.013 94.199.04 5.665 2.086 11.442 6.237 15.399 2.836 2.797 6.508 4.589 10.325 5.614 8.482 2.5 17.432 2.612 26.194 2.121 5.915-.375 11.88-1.057 17.532-2.918 5.93-1.974 11.545-5.03 16.136-9.301l2.2-1.93v-10.266c4.2 6.941 10.186 12.771 17.207 16.832 9.567 5.667 20.787 8.03 31.826 8.087 10.044.08 20.311-1.493 29.331-6.1a80.697 80.697 0 0 0 6.769-3.756c5.625 5.236 13.031 8.258 20.586 9.306 9.468 1.321 19.185.206 28.294-2.584 6.483-2.12 12.73-5.779 16.673-11.476.603-.871 1.275-1.75 1.715-2.698v-19.115c-2.938-.7-5.919-1.236-8.824-2.06-1.601-.483-3.207-1.513-3.658-3.225-.8-2.553-.4-5.267-.5-7.896-.011-23.974.017-47.948-.017-71.922-.07-4.396-.526-8.794-1.482-13.088 1.39.02 2.807.011 4.152.404 3.359 6.09 5.731 12.654 8.435 19.044 14.103 34.252 28.208 68.503 42.31 102.755h15.447c-2.112 3.981-4.76 7.727-8.183 10.689-2.642 2.378-5.675 4.717-9.31 5.178-4.259.135-8.707-.409-12.478-2.521-2.178-1.177-3.78-3.093-5.335-4.966l-3.05-3.558c-3.054 1.457-6.232 2.673-9.167 4.368-6.304 3.81-10.976 10.147-12.894 17.246-2.14 7.721-1.67 16.319 2.11 23.466 2.999 5.72 7.714 10.488 13.24 13.796 7.65 4.5 16.645 6.037 25.411 6.263 8.978.315 18.102-1.332 26.163-5.378 8.249-4.065 15.174-10.466 20.579-17.85 6.731-9.042 11.854-19.167 16.295-29.495 4.666-10.845 8.445-22.043 11.963-33.305 10.578-32.913 21.128-65.836 31.723-98.743.483-1.4 1.03-2.782 1.728-4.09 3.366.034 6.677.052 9.998.103 1.172.055 2.35.144 3.492.43.01 26.01-.018 52.022.016 78.033.14 10.516 2.414 21.218 7.943 30.268 4.793 7.953 12.002 14.485 20.558 18.157 9.149 3.989 19.378 4.914 29.24 4 9.704-.91 19.243-4.258 27.095-10.09a53.46 53.46 0 0 0 2.463-1.929c2.714 3.44 6.155 6.306 10.09 8.248 6.121 3.172 13.117 4.373 19.967 4.06 7.083-.25 14.149-1.392 20.924-3.48 6.498-2.09 12.8-5.479 17.184-10.829.607-.774 1.397-1.478 1.895-2.292v-19.654c-2.797-.276-5.6-.535-8.328-.816-1.72-.077-3.661-.753-4.336-2.49-1.282-2.766-.771-5.886-.879-8.83-.01-33.56.016-67.12-.012-100.678-.098-5.368-.953-11.029-4.207-15.46-2.463-3.446-6.429-5.467-10.47-6.436-6.524-1.573-13.3-1.419-19.96-1.178-8.353.39-16.697 1.66-24.666 4.24-5.379 1.665-10.812 3.444-15.618 6.44-1.86 1.208-3.554 2.647-5.334 3.964-.998-4.32-3.333-8.51-7.153-10.924-4.173-2.705-9.252-3.402-14.114-3.725-8.493-.426-17.05.102-25.407 1.702-5.701 1.107-11.272 2.819-16.727 4.794a64.313 64.313 0 0 0-3.61 1.473c-1.494-2.236-3.418-4.131-5.189-6.142h-62.707c-2.446 2.71-5.05 5.364-6.701 8.665-2.545 4.768-3.439 10.223-3.747 15.563-.111 3.815-.071 7.632-.118 11.447 3.709.06 7.424-.033 11.129.147.852.096 1.73.22 2.498.623.56 1.862.121 3.848-.176 5.723-1.97 8.786-4.066 17.545-6.085 26.32l-5.401 23.242c-5.31-15.51-10.665-31.005-15.946-46.524-.678-2.304-.836-4.755-.648-7.142.14-.653.18-1.507.7-1.952 2.086-.609 4.294-.3 6.436-.403l5.858-.05c-.081-4.045.001-8.096-.219-12.137-.525-7.174-3.485-14.103-8.203-19.52-1.181-1.35-2.402-2.666-3.597-4.002h-74.866c-2.52 2.818-5.191 5.581-6.926 8.983-1.505 2.772-2.527 5.787-3.187 8.866-5.518-7.614-13.573-13.124-22.315-16.416-11.328-4.306-23.602-5.443-35.636-5.379zm-6.576 39.352c2.559.405 5.061 1.557 6.84 3.463 1.467 2.233 1.618 5.025 1.718 7.62.02 8.397.002 16.794.008 25.19-6.367-1.255-12.809-2.247-19.304-2.47 5.463-3.691 9.681-9.283 11.374-15.687 1.57-5.946 1.5-12.472-.978-18.167zm313.164 3.68c2.846.064 5.636-.064 8.497.235.916.105 1.83.26 2.716.516v79.163c-2.16 2.157-4.622 4.056-7.353 5.43-1.877.845-4.058 1.153-6.061.615-1.223-2.387-1.296-5.16-1.365-7.788v-78.203zm-546.7 3.433c2.178.003 4.263.994 5.731 2.585 2.138 1.835 2.431 4.867 2.41 7.507-.014 25.649.017 51.298-.017 76.947-.059 1.59-.178 3.22-.773 4.711-2.414.587-4.926.272-7.384.38-3.198-.002-6.402.042-9.597-.108-.466-.14-1.267.019-1.495-.462-.902-3.396-.5-6.946-.595-10.417v-76.81c2.885-2.423 6.54-3.942 10.29-4.297a13.1 13.1 0 0 1 1.43-.036M708.517 204.9c1.903.109 3.758.602 5.548 1.237v15.988c-3.222.972-6.746 1.27-10.027.396-2.188-.574-4.042-2.228-4.781-4.375-.803-2.356-.597-4.932-.154-7.34.29-1.523 1.032-2.986 2.337-3.876 1.963-1.653 4.56-2.237 7.077-2.03" style="font-size:1066.67px;font-family:Calistoga;-inkscape-font-specification:Calistoga;white-space:pre;display:inline;opacity:1;fill:#fff;fill-opacity:1;stroke-width:.264583" transform="translate(-376.809 -90.11)"/><path d="M712.078 94.744c-7.589.07-15.196.625-22.65 2.094-4.673.928-9.287 2.217-13.686 4.056-5.422 2.292-10.637 5.18-15.162 8.971a40.198 40.198 0 0 0-6.667 7.073c-2.76 3.664-4.92 7.812-6.103 12.256a31.935 31.935 0 0 0-.788 12.544c.53 3.84 1.896 7.569 4.04 10.802a26.796 26.796 0 0 0 3.805 4.566c2.71 2.548 5.99 4.474 9.515 5.654 4.076 1.372 8.426 1.794 12.707 1.581 4.025-.213 8.037-1.133 11.664-2.915 3.801-1.871 7.212-4.617 9.653-8.097 2.037-2.883 3.33-6.264 3.847-9.749.31-2.12.401-4.281.185-6.415a20.4 20.4 0 0 0-3.16-8.98 17.182 17.182 0 0 0-2.374-3.05c2.344-.484 4.754-.616 7.141-.483 2.999.178 6.005.966 8.561 2.578.81.499 1.554 1.093 2.295 1.687 1.51 1.304 2.407 3.167 2.943 5.058.745 2.639.879 5.4.852 8.128v29.62c-3.087-.986-6.266-1.657-9.464-2.165-6.365-1.18-12.84-1.821-19.317-1.713-7.085.1-14.207.846-21.032 2.814-5.479 1.586-10.763 4.014-15.283 7.523-2.27 1.738-4.295 3.78-6.12 5.976a41.124 41.124 0 0 0-7.427 13.519c-1.862 5.693-2.521 11.733-2.319 17.704.198 5.692 1.342 11.376 3.61 16.611 2.111 4.913 5.199 9.385 8.95 13.188a36.932 36.932 0 0 0 3.407 3.097c4.525 3.663 9.726 6.469 15.24 8.33 7.772 2.636 16.067 3.442 24.238 3.108 6.895-.288 13.817-1.494 20.204-4.173a80.318 80.318 0 0 0 6.069-3.01c2.186-1.207 4.316-2.52 6.343-3.98 2.813 3.331 6.39 5.998 10.356 7.8 4.742 2.174 9.955 3.154 15.145 3.38 7.043.314 14.106-.725 20.858-2.707 4.022-1.3 7.935-3.147 11.16-5.918a21.448 21.448 0 0 0 3.84-4.307c.205-.31.453-.607.633-.925v-14.18c-1.512-.348-3.033-.664-4.54-1.034-2.09-.553-4.158-1.465-5.677-3.044-1.367-1.406-2.136-3.29-2.479-5.198-.292-1.52-.298-3.071-.286-4.612 0-24.653.003-49.306-.002-73.958-.034-6.864-1.021-13.794-3.565-20.199-1.865-4.724-4.605-9.111-8.107-12.797-3.678-3.893-8.155-6.982-12.979-9.284-6.338-3.027-13.22-4.768-20.154-5.752-5.933-.837-11.933-1.122-17.92-1.073m-275.545.277c-3.366.024-6.711.486-10.027 1.031-2.004.33-3.994.734-5.986 1.124-6.647 1.236-13.209 2.909-19.67 4.896-5.33 1.692-10.576 3.726-15.47 6.451-1.333.747-2.628 1.559-3.94 2.34v19.644c2.1.018 4.2.002 6.3.045 2.424.081 4.87.276 7.215.937 1.09.32 2.187.748 3.036 1.527 1.17.983 1.79 2.458 2.08 3.927.37 1.77.26 3.588.278 5.384-.001 26.862.002 53.723-.002 80.585-.024 2.063-.203 4.164-.93 6.111-.326.834-.755 1.66-1.418 2.275-1.09.88-2.47 1.294-3.821 1.578-1.985.407-4.019.445-6.037.44l-3.653.022c.03 1.899.033 3.799.078 5.698.12 3.246.836 6.478 2.159 9.448 1.594 2.988 3.666 5.71 6.068 8.093l1.212 1.234h65.076c1.23-1.21 2.496-2.39 3.596-3.724 2.308-2.75 4.077-5.97 5.025-9.44.635-2.272.907-4.636.895-6.993l.053-4.31c-1.852-.02-3.705-.014-5.557-.05-1.585-.072-3.21-.266-4.652-.972-.413-.217-.831-.465-1.135-.825-.784-1.218-1.122-2.658-1.364-4.07-.334-2.05-.344-4.134-.331-6.205v-82.287c2.083-2.213 4.65-3.955 7.454-5.12 3.051-1.298 6.384-2.074 9.713-1.83 2.181.154 4.333.868 6.122 2.138.779.53 1.461 1.182 2.138 1.833 1.52 1.382 2.55 3.245 3.08 5.219.528 1.902.643 3.888.615 5.854-.001 25.33.003 50.66-.002 75.989-.029 2.142-.19 4.315-.862 6.362-.32.92-.74 1.852-1.475 2.515-.857.689-1.956.968-3.017 1.165-1.887.335-3.81.231-5.718.267l-2.246.015c.03 1.898.033 3.796.078 5.694.12 3.245.836 6.476 2.157 9.445a39.114 39.114 0 0 0 5.704 8.025l1.169 1.305h64.127c1.266-1.295 2.57-2.56 3.68-3.995a27.631 27.631 0 0 0 3.492-5.705c1.518-3.138 2.284-6.624 2.286-10.107l.065-4.662c-1.88-.02-3.759-.012-5.638-.05-1.733-.074-3.506-.293-5.092-1.038-.687-.335-1.357-.78-1.76-1.448-.852-1.313-1.22-2.87-1.447-4.4-.328-2.228-.22-4.485-.239-6.728 0-27.829.002-55.657-.002-83.485-.064-.194.125-.264.252-.362 1.822-1.311 3.862-2.33 6.027-2.934 3.12-.92 6.457-1.256 9.671-.658 2.04.38 4.01 1.254 5.556 2.652.484.445.942.917 1.399 1.39 1.52 1.641 2.38 3.789 2.777 5.968.319 1.67.355 3.375.338 5.07 0 31.007-.002 62.014.002 93.021.01 3.097.626 6.243 2.14 8.97 1.36 2.494 3.459 4.554 5.919 5.962a16.706 16.706 0 0 0 3.216 1.448c5.548 1.905 11.432 2.66 17.278 2.77 3.958.05 7.92-.06 11.865-.38 4.195-.355 8.39-.942 12.45-2.078 4.988-1.549 9.819-3.804 13.891-7.112.892-.728 1.742-1.507 2.613-2.26v-13.995c-1.58-.361-3.167-.688-4.741-1.074-2.354-.615-4.689-1.538-6.57-3.117a6.085 6.085 0 0 1-1.927-2.776c-.551-1.546-.614-3.208-.591-4.833-.001-27.998.002-55.995-.002-83.993-.039-6.37-.895-12.803-3.18-18.777-1.7-4.455-4.235-8.609-7.548-12.047-1.621-1.695-3.396-3.247-5.333-4.57-4.249-2.933-9.14-4.833-14.16-5.96-5.57-1.247-11.306-1.608-17.002-1.466-7.588.193-15.177 1.46-22.327 4.044a73.408 73.408 0 0 0-5.987 2.478c-5.004 2.345-9.673 5.431-13.698 9.226-2.64-3.781-6.103-6.972-10.055-9.343-5.069-3.062-10.838-4.804-16.669-5.675-4.619-.688-9.305-.869-13.97-.7-7.107.266-14.206 1.531-20.87 4.052a72.437 72.437 0 0 0-5.825 2.527c-3.882 1.89-7.575 4.178-10.948 6.874-.773-2.615-1.88-5.186-3.649-7.29-.616-.741-1.339-1.382-2.05-2.03a16.762 16.762 0 0 0-7.703-3.8 19.859 19.859 0 0 0-4.05-.394zm550.302 1.697c-8.808.07-17.651 1.105-26.111 3.614-2.443.727-4.884 1.465-7.282 2.33-2.813 1.021-5.607 2.15-8.176 3.7-1.032-2.358-2.488-4.522-4.246-6.4l-1.148-1.272h-58.588c-1.116 1.25-2.288 2.46-3.237 3.848-1.722 2.447-2.919 5.247-3.572 8.164-.788 3.346-1.144 6.788-1.125 10.225l-.029 4.205c1.868.02 3.736.014 5.604.052 1.775.074 3.589.298 5.213 1.06.996.462 1.863 1.238 2.324 2.246.66 1.415.757 3.014.706 4.553-.105 2.292-.57 4.55-1.108 6.775l-14.579 62.732c-7.01-20.43-14.025-40.859-21.031-61.29-.51-1.542-.874-3.138-.988-4.76-.187-2.198-.304-4.459.303-6.606.29-1.017.735-2.006 1.397-2.836.916-.977 2.248-1.41 3.531-1.65 1.725-.323 3.486-.224 5.23-.26.808-.008 1.614-.014 2.421-.02-.028-1.945-.029-3.889-.075-5.832-.147-4.172-1.158-8.324-3.045-12.053-1.329-2.66-3.088-5.09-5.111-7.263l-1.166-1.29H782.21c-1.129 1.28-2.315 2.517-3.295 3.92-1.798 2.516-3.09 5.376-3.896 8.358-.89 3.199-1.309 6.522-1.294 9.841l-.04 4.321c1.903.022 3.808.016 5.711.055 1.611.069 3.252.231 4.761.836.662.272 1.322.677 1.645 1.343 1.575 2.696 2.879 5.54 4.135 8.395 1.33 3.054 2.562 6.15 3.84 9.226l42.159 102.384h19.603c-1.898 4.633-4.176 9.147-7.173 13.174a33.902 33.902 0 0 1-4.454 4.917c-2.346 2.248-4.939 4.301-7.904 5.67-1.984.915-4.161 1.47-6.356 1.408-3.805-.034-7.659-.544-11.202-1.987-2.763-1.116-5.278-2.861-7.237-5.113-.848-.985-1.69-1.974-2.536-2.96-1.352.626-2.718 1.222-4.06 1.87-3.281 1.633-6.097 4.123-8.278 7.056-.752 1.01-1.455 2.062-2.017 3.19-1.878 3.621-2.877 7.668-3.059 11.736-.168 3.246.201 6.531 1.217 9.625 1.232 3.808 3.416 7.27 6.16 10.17 2.01 2.122 4.275 4.021 6.796 5.51 4.451 2.656 9.502 4.155 14.6 4.95 3.94.608 7.934.82 11.918.763 5.908-.105 11.82-1.177 17.317-3.368 5.13-2.03 9.86-5.022 13.976-8.688 2.966-2.632 5.616-5.606 7.995-8.775 4.302-5.656 7.891-11.82 11.094-18.154 4.262-8.468 7.83-17.268 11.031-26.186 1.878-5.234 3.61-10.52 5.262-15.83 10.713-33.357 21.422-66.715 32.138-100.072.825-2.468 1.802-4.917 3.26-7.087.51-.726 1.053-1.45 1.753-2.004 1.595-1.213 3.603-1.719 5.566-1.918.054.098.006.308.022.448v2.794c1.967.026 3.934.025 5.9.068 1.95.079 3.926.292 5.766.977.647.272 1.381.537 1.767 1.166.475.856.386 1.87.396 2.813 0 25.723-.003 51.446.002 77.17.036 7.498 1.127 15.068 3.916 22.061 2.06 5.194 5.083 10.014 8.937 14.065a39.339 39.339 0 0 0 12.094 8.668c5.715 2.646 11.993 3.915 18.262 4.214 6.887.32 13.866-.354 20.456-2.439a47.063 47.063 0 0 0 14.875-7.805 50.265 50.265 0 0 0 5-4.483c1.872 3.504 4.496 6.609 7.671 9 1.125.812 2.328 1.514 3.557 2.158 3.82 1.983 8.046 3.136 12.328 3.5 2.756.24 5.528.15 8.285-.027 5.113-.362 10.185-1.254 15.132-2.59 4.192-1.213 8.297-2.893 11.884-5.41a24.779 24.779 0 0 0 4.813-4.413l.902-1.045V232.33c-1.651-.168-3.306-.309-4.956-.494-1.895-.249-3.778-.94-5.213-2.232a7.275 7.275 0 0 1-1.554-1.882c-1.315-2.187-1.795-4.774-1.821-7.298-.01-16.276 0-32.551 0-48.827v-55.691c-.03-3.07-.29-6.173-1.224-9.112-.7-2.195-1.852-4.297-3.589-5.842-1.527-1.362-3.445-2.197-5.387-2.78-3.003-.879-6.136-1.2-9.25-1.363-3.372-.156-6.75-.102-10.12.043-7.646.359-15.302 1.413-22.62 3.71-4.012 1.19-8.01 2.48-11.822 4.22-1.972.907-3.894 1.957-5.592 3.318l-1.46 1.117v19.297c2.046.025 4.093.021 6.14.065 2.336.085 4.697.319 6.929 1.052.767.278 1.584.548 2.174 1.139.54.577.565 1.422.56 2.168v81.919c-2.127 2.5-4.688 4.603-7.442 6.378-2.188 1.484-4.724 2.512-7.375 2.716-1.503.105-3.043.05-4.494-.386-1.038-.307-2.015-.929-2.586-1.868-.999-1.602-1.474-3.465-1.775-5.312-.353-2.191-.386-4.417-.37-6.631v-93.818c-.027-3.04-.26-6.11-1.12-9.038-.65-2.192-1.722-4.317-3.406-5.898-1.338-1.256-2.995-2.131-4.729-2.706-2.675-.885-5.494-1.228-8.295-1.422-2.021-.135-4.048-.168-6.073-.153zM707.932 200.242c2.34.041 4.658.504 6.87 1.258 1.33.425 2.642.92 3.894 1.542v22.125a25.817 25.817 0 0 1-3.862 1.59c-3.405.883-7 1.208-10.48.592-2.238-.4-4.417-1.3-6.154-2.787-.875-.747-1.601-1.657-2.219-2.623-1.262-1.992-1.84-4.357-1.885-6.7-.033-2.374.168-4.786.931-7.048.555-1.646 1.49-3.194 2.845-4.303 1.731-1.57 3.842-2.741 6.128-3.26 1.286-.303 2.613-.414 3.932-.386" style="font-size:1066.67px;font-family:Calistoga;-inkscape-font-specification:Calistoga;white-space:pre;display:inline;opacity:1;fill:#030202;fill-opacity:1;stroke-width:.264583" transform="translate(-376.809 -90.11)"/><path d="M2613.1 1101.837c-26.311 0-49.067-3.556-68.267-10.667-18.489-7.822-27.733-22.755-27.733-44.8v-355.2c0-22.757-6.4-40.179-19.2-52.268-12.09-12.8-28.445-19.2-49.067-19.2-11.378 0-23.111 2.134-35.2 6.4-11.378 4.267-21.69 10.667-30.934 19.2a35.068 35.068 0 0 1 1.067 8.534v326.401c0 20.622 4.267 35.555 12.8 44.8 8.533 8.533 22.044 12.8 40.533 12.8 0 11.378-2.489 22.044-7.466 32-4.267 9.245-10.311 17.778-18.134 25.6h-227.2a128.485 128.485 0 0 1-18.134-25.6c-4.267-9.956-6.4-20.622-6.4-32 18.49 0 31.29-4.267 38.4-12.8 7.823-9.245 11.734-24.178 11.734-44.8V691.169c0-22.756-6.756-40.178-20.267-52.267-12.8-12.8-28.445-19.2-46.934-19.2-13.51 0-27.377 3.2-41.6 9.6-14.222 6.4-26.31 15.645-36.266 27.734v323.2c0 20.623 3.555 35.556 10.666 44.8 7.822 8.534 20.622 12.8 38.4 12.8 0 22.045-8.533 41.246-25.6 57.601h-231.467c-7.822-7.822-14.222-16.355-19.2-25.6-4.267-9.956-6.4-20.622-6.4-32 21.333 0 36.622-4.267 45.867-12.8 9.244-9.245 13.866-24.178 13.866-44.8V667.702c0-18.489-5.333-32-16-40.533-9.955-8.533-28.444-12.8-55.467-12.8v-46.934c16.356-9.955 36.978-18.844 61.867-26.666 25.6-7.823 50.134-13.867 73.6-18.134 24.178-4.978 42.667-7.466 55.467-7.466 14.223 0 25.956 4.622 35.2 13.866 9.956 8.534 16.356 26.667 19.2 54.4 18.49-20.622 41.6-36.977 69.334-49.066 28.445-12.8 60.445-19.2 96-19.2 71.112 0 117.334 23.822 138.667 71.466 18.49-22.755 42.312-40.177 71.467-52.266 29.867-12.8 62.934-19.2 99.2-19.2 51.2 0 89.245 12.444 114.134 37.333 25.6 24.889 38.4 61.156 38.4 108.8v318.935c0 16.355 4.623 28.8 13.867 37.333 9.245 8.533 22.045 14.578 38.4 18.133v30.934c-12.8 11.378-29.51 20.267-50.133 26.667-20.622 5.689-47.645 8.533-81.067 8.533m354.133 1.067c-53.334 0-96.712-14.578-130.134-43.734-32.711-29.867-49.067-67.911-49.067-114.133 0-46.223 14.933-83.556 44.8-112 30.578-28.445 77.511-42.668 140.8-42.668 20.623 0 42.312 2.134 65.067 6.4 22.756 3.556 41.245 9.245 55.467 17.067V671.97c0-29.867-7.822-50.489-23.467-61.867-14.933-12.089-33.422-18.133-55.466-18.133-23.467 0-42.667 5.689-57.6 17.067 14.222 4.977 24.533 12.8 30.933 23.466 6.4 9.956 9.6 20.978 9.6 33.067 0 23.467-8.533 42.311-25.6 56.534-16.356 13.51-36.622 20.266-60.8 20.266-27.023 0-48.712-7.822-65.067-23.466-16.356-16.356-24.534-36.623-24.534-60.8 0-24.178 8.178-46.934 24.534-68.268 16.355-22.044 41.6-40.177 75.733-54.4 34.845-14.222 79.645-21.333 134.4-21.333 142.935 0 214.401 56.533 214.401 169.6V966.37c0 34.134 16.356 54.756 49.067 61.867v34.133c-9.244 13.511-24.889 23.823-46.933 30.934-22.045 6.4-43.378 9.6-64 9.6-48.356 0-82.49-16.711-102.4-50.134-14.223 12.8-33.068 24.534-56.534 35.2-23.467 9.956-51.2 14.934-83.2 14.934m69.333-86.4c9.956 0 20.267-1.423 30.934-4.267 10.666-3.556 19.555-7.822 26.666-12.8V895.97c-7.11-4.978-16.355-9.245-27.733-12.8-10.667-3.556-21.334-5.334-32-5.334-18.49 0-34.49 6.045-48 18.134-13.512 11.378-20.267 29.511-20.267 54.4 0 19.2 6.4 35.2 19.2 48 12.8 12.089 29.867 18.134 51.2 18.134m494.932 39.466-164.267-398.934c-8.533-20.623-16-36.267-22.4-46.934-6.4-10.667-20.622-16-42.667-16 0-12.089 1.778-23.822 5.333-35.2 3.556-11.378 9.245-21.333 17.067-29.867h251.734c17.067 18.49 25.6 40.178 25.6 65.067-17.777 0-30.577 4.622-38.4 13.867-7.11 9.244-10.666 20.978-10.666 35.2 0 4.978.355 10.667 1.066 17.067.711 5.689 2.134 11.733 4.267 18.133l99.2 289.068 70.4-302.935c2.134-9.955 3.2-18.489 3.2-25.6 0-29.866-17.422-44.8-52.266-44.8 0-12.089 1.422-23.822 4.266-35.2 2.845-11.378 8.178-21.333 16-29.867h205.868c7.822 8.534 13.155 18.49 16 29.867 3.555 11.378 5.333 23.111 5.333 35.2-17.778 0-31.644 4.267-41.6 12.8-9.244 8.534-17.067 22.756-23.467 42.667l-121.6 378.668c-31.29 100.978-65.067 174.934-101.334 221.867-35.555 46.934-81.422 70.4-137.6 70.4-44.09 0-77.156-9.244-99.2-27.733-22.045-18.489-33.067-40.533-33.067-66.134 0-17.066 3.91-32.355 11.733-45.866 8.533-13.512 19.2-23.112 32-28.8 19.2 22.755 47.645 34.133 85.334 34.133 21.333 0 43.022-10.667 65.067-32 22.755-20.622 41.6-53.334 56.533-98.134zm614.4 46.934c-49.779 0-88.534-15.29-116.268-45.867-27.733-30.578-41.6-71.823-41.6-123.734V639.97c0-12.089-4.622-20.622-13.867-25.6-9.244-4.978-22.044-7.467-38.4-7.467V559.97c9.245-7.823 28.445-16 57.6-24.534 29.867-9.244 63.29-13.866 100.268-13.866 27.733 0 45.866 3.2 54.4 9.6 9.244 6.4 13.866 22.044 13.866 46.933v358.401c0 21.334 3.556 37.69 10.667 49.067 7.111 11.378 19.556 17.067 37.333 17.067 14.934 0 29.156-4.622 42.667-13.867 14.223-9.244 25.956-19.911 35.2-32V639.969c0-12.089-5.333-20.622-16-25.6-10.666-4.978-25.244-7.467-43.733-7.467V559.97c9.955-7.823 29.511-16 58.667-24.534 29.155-9.244 63.644-13.866 103.467-13.866 27.733 0 46.578 3.2 56.533 9.6 9.956 6.4 14.934 22.044 14.934 46.933v392.535c0 17.066 4.266 31.289 12.8 42.667 9.244 11.377 22.044 17.777 38.4 19.2v29.866c-11.378 13.511-29.511 23.823-54.4 30.934-24.178 6.4-47.645 9.6-70.4 9.6-23.467 0-44.09-6.045-61.868-18.134-17.066-12.8-28.444-30.933-34.133-54.4-34.844 48.356-83.556 72.534-146.134 72.534" aria-label="mayu live" style="font-size:1066.67px;font-family:Calistoga;-inkscape-font-specification:Calistoga;white-space:pre;fill:url(#b)" transform="matrix(.26458 0 0 .26458 -472.148 -126.764)"/></svg>