<svg xmlns="http://www.w3.org/2000/svg" xmlns:xlink="http://www.w3.org/1999/xlink" xml:space="preserve" width="6651.968" height="1700.787" viewBox="0 0 1760 450"><defs><linearGradient id="j"><stop offset="0" style="stop-color:#b8346c;stop-opacity:1"/><stop offset="1" style="stop-color:#f05a93;stop-opacity:1"/></linearGradient><linearGradient id="i"><stop offset="0" style="stop-color:#9e295e;stop-opacity:1"/><stop offset=".574" style="stop-color:#d03f76;stop-opacity:1"/><stop offset="1" style="stop-color:#9e295e;stop-opacity:1"/></linearGradient><linearGradient id="h"><stop offset="0" style="stop-color:#f8bed7;stop-opacity:1"/><stop offset="1" style="stop-color:#f5b0ce;stop-opacity:1"/></linearGradient><linearGradient id="g"><stop offset="0" style="stop-color:#ff8fc0;stop-opacity:1"/><stop offset=".828" style="stop-color:#ff95c1;stop-opacity:1"/><stop offset="1" style="stop-color:#ff9cc3;stop-opacity:0"/></linearGradient><linearGradient id="f"><stop offset="0" style="stop-color:#790c47;stop-opacity:1"/><stop offset=".74" style="stop-color:#851350;stop-opacity:0"/></linearGradient><linearGradient id="e"><stop offset="0" style="stop-color:#698eb6;stop-opacity:1"/><stop offset="1" style="stop-color:#314d84;stop-opacity:1"/></linearGradient><linearGradient id="d"><stop offset="0" style="stop-color:#fd69a8;stop-opacity:1"/><stop offset="1" style="stop-color:#fd69a8;stop-opacity:0"/></linearGradient><linearGradient id="c"><stop offset="0" style="stop-color:#bc2576;stop-opacity:1"/><stop offset="1" style="stop-color:#dd3d7a;stop-opacity:1"/></linearGradient><linearGradient id="b"><stop offset="0" style="stop-color:#7dbdd1;stop-opacity:1"/><stop offset=".431" style="stop-color:#6abcd1;stop-opacity:1"/><stop offset=".627" style="stop-color:#61dae4;stop-opacity:1"/><stop offset="1" style="stop-color:#5fcdda;stop-opacity:1"/></linearGradient><linearGradient id="a"><stop offset="0" style="stop-color:#6094bf;stop-opacity:0"/><stop offset=".572" style="stop-color:#6094bf;stop-opacity:1"/><stop offset="1" style="stop-color:#6094bf;stop-opacity:1"/></linearGradient><linearGradient xlink:href="#a" id="r" x1="5.543" x2="105.54" y1="215.174" y2="118.728" gradientUnits="userSpaceOnUse" spreadMethod="pad"/><linearGradient xlink:href="#c" id="n" x1="20.405" x2="48.623" y1="303.157" y2="343.33" gradientUnits="userSpaceOnUse"/><linearGradient xlink:href="#d" id="o" x1="-82.597" x2="-81.399" y1="342.515" y2="321.844" gradientTransform="translate(.15)" gradientUnits="userSpaceOnUse"/><linearGradient xlink:href="#e" id="s" x1="143.746" x2="130.519" y1="51.24" y2="69.623" gradientUnits="userSpaceOnUse"/><linearGradient xlink:href="#f" id="p" x1="206.401" x2="173.316" y1="161.287" y2="204.236" gradientUnits="userSpaceOnUse"/><linearGradient xlink:href="#g" id="l" x1="-36.866" x2="68.369" y1="193.663" y2="122.446" gradientUnits="userSpaceOnUse"/><linearGradient xlink:href="#h" id="k" x1="-51.169" x2="18.591" y1="58.491" y2="5.617" gradientUnits="userSpaceOnUse"/><linearGradient xlink:href="#i" id="m" x1="211.933" x2="210.315" y1="114.767" y2="78.061" gradientUnits="userSpaceOnUse"/><linearGradient xlink:href="#j" id="t" x1="1586.962" x2="1586.962" y1="345.059" y2="476.331" gradientUnits="userSpaceOnUse"/><radialGradient xlink:href="#b" id="q" cx="121.638" cy="324.551" r="120.911" fx="121.638" fy="324.551" gradientTransform="matrix(1.80347 -.0828 .0457 .99512 -125.81 -148.6)" gradientUnits="userSpaceOnUse"/></defs><g style="display:inline"><g style="display:inline"><path d="M16.543-71.885c-4.274.138-8.575.018-12.809.727-7.04 1.007-13.877 3.046-20.59 5.35-5.48 2.121-10.595 5.064-15.67 7.998-4.759 3.138-9.282 6.628-13.649 10.286-2.733 2.55-5.416 5.596-5.988 9.423-.171 3.784 1.425 7.701 4.534 9.956 2.977 2.247 7.101 2.836 10.591 1.525 4.193-1.23 8.387-2.478 12.593-3.646 2.47-.136 4.982-.09 7.414.357 2.673.994 5.403 2.023 7.713 3.725 2.646 2.036 5.07 4.45 6.616 7.441.65 1.258 1.344 2.52 1.807 3.856.342 1.767.673 3.571.659 5.369A76.471 76.471 0 0 0-1.53 2.38c-6.106 3.48-12.022 7.292-17.803 11.284-5.573 4.54-11.194 9.03-16.738 13.604-3.843 3.743-7.734 7.444-11.549 11.214-4.514 5.562-9.084 11.083-13.564 16.671-3.415 4.906-6.884 9.778-10.266 14.706-2.97 5.111-5.992 10.195-8.928 15.324-2.463 5.4-4.99 10.773-7.414 16.19-1.844 5.552-3.753 11.086-5.557 16.65-1.014 4.261-2.131 8.5-3.08 12.774-.779 5.027-1.649 10.042-2.371 15.075-.208 2.948-.65 5.887-.519 8.85.047 4.382.012 8.768.11 13.148.573 5.464 1.075 10.94 1.694 16.397 1.077 4.935 2.057 9.894 3.193 14.816 1.31 4.854 2.542 9.734 3.9 14.572 2.219 5.585 4.36 11.204 6.628 16.768 3.085 6.739 6.117 13.504 9.235 20.227 3.335 6.233 6.612 12.5 9.983 18.712 3.901 6.535 7.767 13.09 11.69 19.612-10.871 4.158-20.329 11.533-27.675 20.498-7.69 9.342-13.339 20.215-17.58 31.505-1.271 4.887-2.708 9.868-2.424 14.97.195 3.331 1.716 6.704 4.57 8.568 1.633 1.104 3.544 1.83 5.525 1.89 5.272.479 10.57.106 15.846-.06 5.75-.573 11.509-1.071 17.252-1.69 5.42-.972 10.863-1.828 16.27-2.876 6.47-1.408 12.55-4.12 18.597-6.745 2.933-1.418 5.69-3.178 8.326-5.086a646.026 646.026 0 0 0 15.175 7.01c8.351 3.24 17.161 5.184 26.027 6.355 7.333.9 14.813 1.337 22.143.18 4.048-.692 8.26-1.938 11.265-4.878 1.87-1.914 2.512-4.689 2.331-7.296.154-4.568-.835-9.089-2.078-13.458-2.1-7.019-5.621-13.509-9.382-19.757-3.527-4.81-7.11-9.646-11.565-13.652-4.239-3.915-8.848-7.409-13.535-10.764-3.196-2.05-6.698-3.558-10.098-5.224l-6.623-2.432c1.74-3.738 3.462-7.542 5.953-10.85 3.398-4.073 6.997-8.003 11.09-11.39 5.363-4.888 11.588-8.69 17.888-12.232 6.753-4.032 13.878-7.39 20.992-10.727 12.484-5.62 24.96-11.258 37.395-16.986 4.147-1.928 8.34-3.763 12.458-5.749 7.477-3.904 14.99-7.742 22.443-11.689l12.95-7.166c2.839 2.206 5.613 4.505 8.493 6.654 5.759 3.522 11.5 7.08 17.27 10.58 5.948 2.54 11.577 5.75 17.424 8.506 7.077 3.354 14.371 6.565 22.164 7.784 5.022.763 10.489.429 14.88-2.354 4.197-2.595 6.77-7.164 7.892-11.87.353-1.61.263-3.294.317-4.937-.097-10.018-2.35-19.94-5.93-29.269-3.164-8.12-7.469-15.818-12.913-22.633 10.579-.406 21.256-1.38 31.408-4.544 5.234-1.61 10.17-4.064 14.778-7.007 2.247-1.386 4.625-2.932 7.372-2.885 7.216-.381 14.665-.34 21.49-3.033 2.7-1.06 5.155-2.643 7.538-4.274 4.686-3.37 8.285-7.96 11.682-12.566.82-3.035.968-6.267.195-9.329-1.38-5.816-5.178-10.595-8.61-15.34-3.468-5.098-8.824-8.602-14.446-10.934-5.822-2.455-12.035-3.762-17.98-5.86-4.888-2.096-8.8-5.811-13.175-8.744-.004-5.774-.492-11.595-2.156-17.148-2.652-9.66-6.23-19.158-11.548-27.685-4.298-6.681-9.32-12.866-14.532-18.848-5.67-6.195-12.642-10.97-19.515-15.71-7.384-4.498-14.944-8.766-22.912-12.15-8.652-3.4-17.765-5.524-26.95-6.86-9.702-.955-19.43-2.066-29.196-1.774-9.801-.167-19.502 1.813-29.304 1.597-7.043-6.521-13.182-13.926-19.848-20.815-2.457-2.416-5.21-4.508-7.8-6.777-1.744-1.446-3.388-3.024-5.345-4.187-2.386-1.545-4.692-3.222-7.131-4.682-3.445-1.866-6.857-3.803-10.321-5.625-3.882-1.431-7.742-2.93-11.637-4.319-4.11-.939-8.21-1.947-12.328-2.842-4.479-.405-8.954-.898-13.434-1.249m11.371 15.19c3.611.872 7.253 1.645 10.845 2.58 2.845 1.11 5.744 2.102 8.556 3.288 2.728 1.48 5.527 2.838 8.21 4.396 2.22 1.446 4.522 2.773 6.687 4.295 2.877 2.338 5.818 4.604 8.654 6.987 7.753 7.886 15.011 16.245 22.894 24.004 1.911 1.763 3.765 3.75 6.21 4.76.637.283 1.282.5 1.978.305 3.318-.361 6.64-.688 9.964-.986.67-.06 1.661-.14 2.454-.208 2.429-.203 4.86-.37 7.292-.529.445-.022 1.265-.072 1.854-.104a275.458 275.458 0 0 1 17.592-.448c.336.002 1.2.017 1.739.024.615.012 1.302.014 1.728.031 5.276.148 10.254.33 15.543 1.15a108.67 108.67 0 0 1 13.41 2.826c.336.102 1.087.305 1.586.458 5.999 1.75 11.815 4.098 17.418 6.854 6.786 2.325 12.291 7.101 17.878 11.422 1.609 1.284 3.296 2.48 4.922 3.732 5.082 5.55 11.15 10.263 15.306 16.612 1.063 1.587 1.774 3.373 2.891 4.925 4.882 7.767 8.17 16.42 10.641 25.223.086.332.316 1.159.458 1.68.286.997.579 1.992.518 3.04l.09 1.857c-6.458-1.313-13.138.399-18.955 3.238-4.392 1.132-8.74 2.457-12.963 4.12.53.658.453 1.024-.437 1l-2.488.466c.862-.734-.17-.149-.624.037-1.464.457-3.028.595-4.53.928-3.337.654-6.701 1.195-10.02 1.92-5.022 1.5-10.016 3.101-15.056 4.537-12.932 3.318-26.39 3.922-39.68 3.395-6.074-.16-12.188-1.007-18.239-.06-1.377.234-2.799.377-4.128.783l-10.204 5.626c3.814 1.14 7.617 2.363 11.438 3.451 2.311.006 4.63-.18 6.937-.045 2.576.241 5.21.363 7.636 1.36 3.135 1.252 5.907 3.226 8.85 4.852 6.11 3.538 12.19 7.128 18.317 10.634 6.128 2.902 12.212 5.899 18.368 8.739 9.987 4.461 20.313 8.1 30.648 11.658 9.988 3.689 20.498 5.747 31.044 7.025-5.737 1.33-11.646 1.68-17.52 1.744-.353-.004-1.2.002-1.742 0-1.434.014-3.072-.023-4.374-.032l-7.854-.16c-2.481 1.75-4.89 3.613-7.544 5.1-15.504 9.386-30.99 18.801-46.506 28.167-4.817 2.635-9.613 5.31-14.528 7.759-8.624 4.425-17.23 8.882-25.927 13.16-8.318 4.132-16.613 8.311-24.945 12.412-10.735 4.702-21.487 9.37-32.212 14.095-9.433 5.1-18.892 10.16-28.31 15.284-5.373 4.2-10.774 8.37-16.13 12.59-2.935 3.206-5.995 6.301-8.837 9.591-1.702 2.007-3.306 4.129-4.365 6.554-2.545 5.227-5.121 10.503-6.622 16.143-.242 1.16-.529 2.316-.638 3.496l2.353-.167-1.433 4.166c1.306 2.367 3.862 3.588 6.305 4.454 4.863 1.863 9.755 3.663 14.6 5.566 8.08 4.259 15.551 9.7 21.98 16.195 3.826 4.093 5.62 9.503 7.858 14.521 1.764 4.35 3.165 8.886 3.766 13.55-6.646 1.117-13.441.369-20.032-.773-3.678-.666-7.321-1.517-10.93-2.488-.333-.097-1.157-.321-1.678-.467-5.8-1.655-11.536-3.563-17.146-5.768l-4.51-2.976c3.917-8.697 5.635-18.536 4.011-27.994l-5.373-10.485c-1.267 3.748-2.618 7.482-3.833 11.24a81.547 81.547 0 0 1-.094 3.286c-.022.25-.057 1.076-.102 1.557-.448 5.466-1.363 11.01-3.735 16-.642 1.261-1.248 2.563-2.315 3.53-3.313 3.625-7.797 5.829-12.14 7.962a67.384 67.384 0 0 1-12.371 4.597c-5.879 1.645-11.91 2.642-17.923 3.654-1.458.236-2.92.451-4.381.663-.366.052-1.19.16-1.731.234-5.654.496-11.33.747-17.002.958-.992-.03-2.137.054-3.03.095 2.06-8.018 5.048-15.801 8.964-23.098 3.496-6.91 7.985-13.497 14.172-18.27 5.705-4.444 12.315-7.506 18.832-10.545l11.984-4.378c-5.088-8.869-10.356-17.63-15.654-26.375-2.079-3.518-4.294-6.963-6.07-10.65-3.553-6.997-7.223-13.936-10.69-20.977-3.323-6.866-6.396-13.857-9.038-21.014-2-5.176-3.712-10.46-5.102-15.833a573.22 573.22 0 0 1-1.417-5.222c-.095-.36-.298-1.163-.435-1.692-1.26-4.771-2.206-9.618-2.898-14.502-.838-5.507-1.82-11.032-1.84-16.618.107-3.32.198-6.64.386-9.955.017-.285.08-1.198.114-1.724.25-4.31.888-8.586 1.747-12.815 1.025-5.364 2.027-10.747 3.49-16.012 2.001-5.985 3.864-12.025 6.241-17.877.13-.295.454-1.097.663-1.586 3.013-6.768 6.398-13.371 10.052-19.815 2.107-3.705 4.298-7.366 6.768-10.841 3.068-4.468 6.08-8.978 9.182-13.419 4.655-5.175 9.273-10.387 13.951-15.54 4.176-3.823 8.315-7.692 12.514-11.485 3.365-2.437 6.678-4.951 10.076-7.34C-4.547 21.368.722 18.177 6.192 15.35a124.76 124.76 0 0 1 8.163-4.128c.277-.854.534-1.715.823-2.565 5.184-1.789 10.337-3.671 15.51-5.496C25.22 1.856 19.769.475 14.29-.78c-.244-.348-.017-1.11-.096-1.605-.018-3.498.037-7.001-.027-10.496-.509-4.212-1.252-8.516-3.412-12.237-1.947-3.768-4.626-7.117-7.732-9.993a30.508 30.508 0 0 0-6.95-5.007c-2.608-1.434-5.308-2.792-8.194-3.553-4.886-1.206-10.013-1.643-14.995-.785 2.395-1.48 4.64-3.228 7.235-4.356 2.773-1.31 5.558-2.612 8.495-3.517 3.243-1.083 6.448-2.29 9.716-3.293a86.75 86.75 0 0 1 10.13-1.973c2.75-.057 5.504-.253 8.25-.222zM236.936 83.697c4.489.298 8.471 2.65 12.297 4.815 1.88 1.09 3.816 2.104 5.587 3.392 8.696 5.728 18.57 9.361 28.554 12.124 6.402 2.092 11.442 7.108 14.862 12.773.548 1.183 1.733 1.985 1.986 3.32.507 1.928-.246 4.02-1.667 5.373-1.369 2.733-4.25 4.216-6.945 5.357-6.35 2.5-13.225 3.271-19.996 3.576-12.992.47-25.983-1.187-38.669-3.905-23.082-5.029-45.28-13.868-65.77-25.59-.732-.23-.785-.592-.062-.867 7.751-1.893 15.437-4.171 22.772-7.336l-2.012-4.374 7.975-.22-2.885 3.183c1.952-.966 3.884-1.997 5.662-3.261 3.019-.105 6.054-.125 9.063-.283 8.419-3.003 16.756-6.619 25.704-7.706 1.158-.296 2.35-.43 3.544-.37m-25.963 89.713c2.184 3.853 4.456 7.662 6.585 11.542 2.96 6.952 4.519 14.377 6.239 21.702.222.947.49 2.165.652 3.232.317 2.347.672 4.877-.268 7.127-.658 1.336-2.401 1.352-3.692 1.36-4.3-.2-8.39-1.745-12.36-3.288a128.913 128.913 0 0 1-5.902-2.558 628.682 628.682 0 0 1-12.068-5.814c-6.127-3.445-12.283-6.85-18.392-10.32l-5.974-5.032c2.72-1.432 5.527-2.708 8.187-4.25 5.733-3.48 11.504-6.904 17.215-10.419 4.649-3.189 9.317-6.35 13.953-9.555z" style="display:inline;opacity:1;fill:#fff;fill-opacity:1;stroke-width:.264583" transform="translate(106.808 78.092)"/><path d="m-93.49 168.614 5.018-42.426 16.423-41.969 23.265-34.214 34.67-31.933L5.502 6.667 8.24-18.879C-.377-27.116-6.666-36.516-26.887-38.951l-15.51 5.93-4.106-7.299 28.74-17.791 46.075-5.93 37.407 15.054 34.67 35.126 75.727 1.369 49.268 29.196c17.482 19.29 24.76 40.934 26.46 63.866 10.909 8.745 23.095 14.938 37.406 16.879l17.792 20.072-18.248 20.984-26.002 1.825-52.006 13.686-78.008 46.53-53.83 26.003-160.577-7.299z" style="display:inline;fill:#f05a93;fill-opacity:1;stroke-width:.264583" transform="translate(106.808 78.092)"/><path d="m209.612 84.678 36.708 17.247c17.953 8.03 33.936 14.676 52.846 6.328l-9.177-10.284-22.31-6.329-25.631-14.714c-11.635 1.212-22.036 4.48-32.436 7.752" style="display:inline;fill:#fff;fill-opacity:.809689;stroke:none;stroke-width:.264583" transform="translate(106.808 78.092)"/><path d="m97.018 168.392 126.054-14.241 26.645-2.643 15.577-10.815-39.254-5.231-28.823-9.209-62.926-30.367c-10.595.107-20.276.093-25.62 6.145-17.071 16.897-16.518 23.611-21.528 33.54l-9.854 23.522z" style="display:inline;fill:#fff;fill-opacity:1;stroke:none;stroke-width:.264583" transform="translate(106.808 78.092)"/><path d="M-91.804 152.852c5.14-6.446 10.904-12.625 14.391-21.666 3.93-10.935 7.384-26.444 14.195-37.619 11.55-20.214 24.528-36.938 42.322-52.679l23.25-16.41C26.5 8.365 37.291 6.244 56.342-.062L8.244 5.829l-31.575 18.978-28.466 28.793-22.086 35.174-14.887 39.754Z" style="display:inline;fill:#f684b7;fill-opacity:1;stroke:none;stroke-width:.264583" transform="translate(106.808 78.092)"/><path d="m-52.191 57.923 2.206 1.615c.994.743 1.617.445 2.088-.276l9.415-11.228 9.14-9.06 9.022-7.368 10.992-7.485 14.064-7.643L20.81 8.44c5.056-1.868 10.112-3.12 15.167-4.61L8.44 6.393l-31.28 18.792-20.368 18.438Z" style="display:inline;fill:url(#k);stroke:none;stroke-width:.264583" transform="translate(106.808 78.092)"/><path d="M168.219 99.76c7.056 6.684 16.246 10.848 26.134 14.185 11.978 4.357 24.328 7.226 36.822 9.52 13.58 2.891 29.15 4.484 48.675 3.498 9.493.492 18.442-.785 26.912-8.744l-2.818 11.659-22.151 8.064-47.606-1.166-43.914-12.63-42.748-23.997z" style="display:inline;fill:#c93b71;fill-opacity:1;stroke:none;stroke-width:.264583" transform="translate(106.808 78.092)"/><path d="m-37.847-36.303 14.215-7.177c6.613-1.24 13.14-1.103 19.562.704 7.028 2.351 12.564 5.697 17.31 9.57 6.009 4.69 12.233 9.382 19 14.073C52.598-4.437 62.315-3.693 70.449-5.546l20.76-2.75.071 2.678-19.985 2.815c-8.789 1.898-18.397 4.944-26.32 5.63L3.812 9.301 8.033-15.05-2.24-31.94l-16.326-5.63Z" style="display:inline;fill:#d03572;fill-opacity:1;stroke:none;stroke-width:.264583" transform="translate(106.808 78.092)"/><path d="M-44.164-35.605c11.784-5.089 17.141-13.026 32.624-18 7.466-2.414 14.932-3.635 22.398-4.705 6.818.253 13.636 1.112 20.454 2.455l12.477 4.909c5.134 3.136 10.036 6.853 14.625 11.352l11.045 10.33 9.204 11.556 5.932 6.443 5.113 3.989c.752.638 1.39.466 2.142-.022l10.029-5.092-16.261-17.59-22.91-21.682-30.373-11.761-31.09-.102-25.057 7.67-17.08 12.682z" style="fill:#f8bed7;fill-opacity:1;stroke:none;stroke-width:.264583" transform="translate(106.808 78.092)"/><path d="M-38.04 196.814c5.748-3.842 10.845-7.855 18.008-12.303 8.01-5.29 15.837-10.671 24.266-15.752 10.513-6.701 19.077-14.795 28.097-22.563 6.627-4.985 11.975-10.318 20.86-14.687l16.817-7.876-8.302-6.811-30.439 19.796-34.909 30.226-31.929 21.073z" style="display:inline;fill:url(#l);stroke:none;stroke-width:.264583" transform="translate(106.808 78.092)"/><path d="m-34.048 280.134 20.206-7.686 15.593 17.35 32.284 18.009 12.08 14.495 8.784 22.84.22 9.444-27.453 1.318-37.116-10.981-6.37-3.075-17.788 10.322-30.528 5.71-27.892.88-3.294-4.174 8.565-22.62 16.032-24.599 26.794-15.153" style="display:inline;fill:#f2508f;fill-opacity:1;stroke-width:.264583" transform="translate(106.808 78.092)"/><path d="m87.35-4.364 8.034-.307c10.962-1.813 20.701-1.32 31.643-.72 13.576 1.117 22.364 5.334 34.61 10.608l18.967 9.979 16.63 11.236c2.646 1.326 19.084 15.882 18.968 5.664l-8.116-19.646c-.356-2.177 2.83-3.019 4.88-3.727L197.324-3.772l-29.036-8.45-37.036-3.956-27.872 4.398c-5.472 4.184-11.327 2.822-16.03 7.416" style="display:inline;fill:#f9cfe2;fill-opacity:1;stroke:none;stroke-width:.264583" transform="translate(106.808 78.092)"/><path d="M251.428 68.243c-5.674-1.847-10.875-2.09-15.484-.32-6.737 2.04-12.474 4.702-18.118 7.423-9.393 5.715-15.507 9.62-23.146 13.41l-16.761 6.464-28.813 5.747 21.23 13.09 29.691 13.01 33.602 10.774 28.334 1.756 27.217-.718 19.474-12.93-2.314-4.15c-5.053 6.521-11.498 8.285-18.198 9.178-11.52.962-23.04.36-34.56-.16-11.726-.37-23.206-1.726-34.24-4.868-10.34-2.812-20.768-5.475-30.17-9.897-8.78-4.252-17.093-9.105-24.902-14.606 7.634.732 16.833-2.19 26.1-5.268 5.271-1.836 12.613-6.892 18.995-10.456l17.24-5.746L237.3 77.74l15.325.798z" style="display:inline;fill:url(#m);stroke:none;stroke-width:.264583" transform="translate(106.808 78.092)"/><path d="M12.758 297.751c5.362 4.347 10.724 7.68 16.086 13.274 3.003 2.883 5.22 6.355 7.296 9.933 2.302 5.531 6.416 12.606 6.593 18.987l2.901 15.56 9.23-1.32-.879-14.855-11.34-21.185-17.317-16.262Z" style="display:inline;fill:url(#n);stroke-width:.264583" transform="translate(106.808 78.092)"/><path d="M-88.29 352.701c5.427-5.934 10.099-12.472 17.376-16.926l22.768-12.433L-9.5 308.513l-30.857-13.032-21.869 14.08-20.671 28.31z" style="display:inline;fill:url(#o);stroke-width:.264583" transform="translate(106.808 78.092)"/><path d="m152.488 189.512 19.256 15.631 27.411 13.592 24.693 8.156 4.757-.453 3.172-9.062-1.586-19.935-7.702-20.615-15.405-20.616z" style="display:inline;fill:#a01f5d;fill-opacity:1;stroke-width:.264583" transform="translate(106.808 78.092)"/><path d="M208.98 156.961c-.557 10.715.332 21.701-6.373 31.264-4.192 8.144-11.096 16.289-17.15 24.433l-23.371-13.203-8.954-9.561z" style="display:inline;fill:url(#p);fill-opacity:1;stroke-width:.264583" transform="translate(106.808 78.092)"/><path d="M-10.911 305.634c-2.658.885-5.703 4.266-9.122 5.954l-25.463 9.248c-7.447 3.483-14.76 7.167-21.537 11.655l-4.94 4.18c8.477-4.27 16.512-9.646 25.59-12.415 8.605-3.065 14.71-5.297 21.41-7.727 3.296-.299 4.314 1.682 4.94 4.054 2.67 9.104.515 16.921-1.773 24.703l7.825-5.393 23.486 11.216 33.316 4.747 9.582-2.285c-.65-2.753-1.909-5.303-3.253-7.824-1.731-3.692-4.66-7.384-8.263-11.076-3.904-3.894-9.65-6.866-14.856-10.109-4.466-1.658-8.946-3.301-13.185-5.187-3.612-1.523-7.156-3.047-9.846-4.57-3.387-1.745-6.362-2.872-9.287-3.924-.42-2.048.421-4.433-4.624-5.247" style="display:inline;fill:#c7366f;fill-opacity:1;stroke-width:.264583" transform="translate(106.808 78.092)"/><path d="M-28.777 291.774c-10.843 5.482-20.33 12.32-29.43 19.547-18.622 15.74-23.413 31.479-32.284 47.218l-3.953-3.074 10.542-31.406 20.205-20.864 21.523-11.42z" style="display:inline;fill:#f6bed7;fill-opacity:1;stroke-width:.264583" transform="translate(106.808 78.092)"/><path d="m-43.5 191.66 4.77 8.857 13.285 6.132 16.352-1.022-12.264 69.154-15.33 7.836-12.945-59.276z" style="display:inline;fill:#da407b;fill-opacity:1;stroke-width:.264583" transform="translate(106.808 78.092)"/><path d="M198.992 27.732c4.687 3.131 10.189 8.436 14.052 9.368 3.725.772 8.51 2.246 6.905-2.218-1.348-7.409-4.732-14.915-8.03-22.416l-.468-3.078c-2.709.797-4.4 2.016-2.743 4.617l6.401 17.072c1.762 6.638-2.58 3.632-6.017 3.098" style="display:inline;fill:#fff;fill-opacity:.228374;stroke:none;stroke-width:.264583" transform="translate(106.808 78.092)"/></g><g style="display:inline"><path d="m-12.796 207.366-6.682 14.876-3.898 11.852-2.784 14.955-.636 18.614.159 9.943c1.152 3.179 2.9 6.308 3.133 9.563 4.305-2.233 6.284-2.84 8.067-3.308 2.595-.805 4.581-.985 6.686-.652 1.196.243 1.784.746 2.398 1.238 1.585 2.506 1.92 5.735 3.739 8.193 1.29 1.1 2.083 1.21 3.124 1.812l4.83-20.346 15.512-15.432 27.762-18.853 31.42-14.08 35.08-16.147 38.74-20.444 31.023-17.182 27.428-20.503c-12.411-.82-21.984-1.803-34.349-3.122-19.13-.946-37.419 6.517-56 10.261-29.571 9.335-45.386 8.727-36.507-17.182L67.864 159.4l-23.387 19.568-38.58 22.671-16.068 4.614" style="display:inline;fill:url(#q);fill-opacity:1;stroke-width:.264583" transform="translate(106.808 78.092)"/><path d="M-23.663 287.166c3.837-13.442 7.76-20.764 16.17-21.415 8.429 1.352 9.398 6.39 6.668 11.637-3.17 4.112-3.202 4.097-5.1 7.574-4.768-4.32-11.576.368-17.738 2.204" style="display:inline;fill:#fff;fill-opacity:1;stroke:none;stroke-width:.264583" transform="translate(106.808 78.092)"/><path d="m-2.12 292.213-.854-9.477 10.586-14.377-5.397 26.07Z" style="display:inline;fill:#53b2cc;fill-opacity:1;stroke-width:.264583" transform="translate(106.808 78.092)"/><path d="M85.121 143.054c-.801 4.575-2.83 6.523-5.568 10.174l-5.43 9.418-5.913 7.562-6.805 7.08-11.343 9.9-12.374 11.204-16.773 15.261-8.318 6.737-26.604-13.06 25.298-8.113 26.466-14.642 24.679-19.248 18.698-18.836m-37.449 140.95 2.745-6.012" style="display:inline;fill:url(#r);fill-rule:nonzero;stroke-width:.264583" transform="translate(106.808 78.092)"/></g><g style="display:inline"><path d="M40.516 130.616c4.338-3.986 9.067-7.731 12.708-12.694 3.2-4.827 6.057-12.142 9.536-14.048 3.552.186 6.873.835 9.165 3.543 2.439 2.19 4.411 5.241 3.35 8.605-11.66 3.917-23.517 8.095-34.76 14.594M-37.693 196.357c12.064 6.342 24.185 1.388 35.955-2.635 11.365-3.39 22.037-8.723 32.39-15.033 8.527-4.56 15.846-10.893 22.3-17.667 7.204-6.332 13.801-13.272 20.474-20.147l9.454-9.299 4.185-5.734 2.634 4.184-12.398 19.528-21.387 21.542-26.656 18.287L2.29 201.471l-16.737 5.27-13.483-1.24-11.934-5.58z" style="display:inline;fill:#b8346c;fill-opacity:1;stroke-width:.264583" transform="translate(106.808 78.092)"/><path d="m13.993 150.144-5.944-15.84c-3.024-6.633-6.129-12.362-9.896-19.538-2.818-4.57-6.305-9.46-11.96-13.084-5.655-3.947-11.31-5.438-16.964-6.525-6.723.838-13.33 2.138-19.574 4.894-5.795 5.047-11.468 10.338-16.31 17.29-4.886 7.285-7.363 14.57-10.44 21.856l-6.524 15.66c-2.598 6.447-5.75 6.25-8.808 7.176l2.283 25.445 11.092 35.232 15.985 35.559 20.37 35.339 14.824-1.16c-5.466-15.834-9.11-31.214-12.685-46.576-1.36-16.42-3.19-32.84-1.305-49.26l15.333-15.332 34.906-25.445" style="display:inline;fill:#b8346c;fill-opacity:1;stroke-width:.264583" transform="translate(106.808 78.092)"/></g><g style="display:inline"><path d="m16.65-67.256-7.435.174c-3.309.178-6.427.737-9.525 1.336-5.567 1.152-10.464 2.773-15.334 4.414-5.37 2.198-9.752 4.776-14.23 7.318-4.47 2.913-8.706 6.235-12.894 9.642-2.344 2.17-4.322 4.367-4.762 6.679-.07 5.025 3.95 7.714 7.84 7.028l5.518-1.627 8.829-2.555c3.078-.25 6.156-.11 9.235.348 3.091 1.1 6.166 2.302 9.118 4.24 2.032 1.668 4.086 3.21 5.983 5.692 2.009 2.476 3.252 5.273 4.452 7.884.534 2.226.88 4.64 1.012 7.27C3.542-5.017 2.915 1.252 3.129 5.084c-7.082 3.868-13.343 7.971-19.467 12.113l-16.438 13.328-11.3 10.94-13.2 16.18L-67.4 72.11l-8.77 15.007-7.231 15.73-5.424 16.18-2.984 12.205-2.35 14.736-.542 6.328.09 15.006 1.627 16.001L-90 197.316l3.887 14.644 6.328 16.092 9.22 20.25 9.764 18.351 11.3 18.984 3.345 5.424-.633.724c-24.796 7.342-38.924 29.422-46.918 50.534-3.13 11.41-3.65 17.553 2.44 19.346 5.308.654 10.67.21 16.002.09l16.905-1.627 14.554-2.531c6.575-1.145 12.527-3.846 18.623-6.419 3.821-1.746 7.162-4.087 10.487-6.6l7.232 3.436 9.853 4.52c16.304 6.564 46.452 10.384 54.603 2.983 1.3-1.334 1.178-2.903 1.131-4.43.164-3.165-.49-6.318-1.208-9.473-1.831-7.494-5.403-14.093-9.343-20.765-2.324-3.2-4.726-6.401-7.55-9.601-4.836-5.145-10.285-9.269-16.08-13.507-2.978-1.975-6.275-3.315-9.433-4.931l-8.468-3.108c-2.601-.89-1.944-2.476-1.473-4.074 2.045-4.445 4.035-8.916 6.94-12.97 3.604-4.31 7.307-8.467 11.47-11.9 5.617-5.18 11.966-9.202 18.544-12.863 6.664-4.05 13.72-7.37 20.702-10.705l22.193-10.014 28.085-12.863 22.082-11.47 16.519-9.14 10.377 8.196 16.977 10.418c14.273 5.838 49.764 30.18 55.869 4.938 1.02-12.599-3.549-36.5-19.741-55.122-1.698-2.079-1.737-3.605-1.16-4.926 48.643-.28 48.228-14.034 59.755-14.542 7.913-.469 17.46-.141 24.307-4.766 5.35-2.987 9.134-7.63 12.724-12.48 2.027-8.05-4.416-14.981-8.683-21.14-7.098-8.74-18.838-10.354-28.91-13.785-6.206-2.315-11.087-7.362-16.755-10.788.056-5.766-.094-11.51-1.625-17.106-2.443-9.273-5.76-18.388-10.663-26.674-3.959-6.382-8.768-12.34-13.634-18.057-5.516-6.461-12.52-11.175-19.422-16.009-7.028-4.313-14.347-8.413-21.898-11.715-8.339-3.344-17.031-5.351-25.892-6.72-9.463-.912-19.016-2.07-28.538-1.777-10.586-.233-21.057 2.1-31.618 1.524-6.97-5.846-19.374-20.59-22.65-23.382l-9.433-7.996-8.015-5.343-10.28-5.634-11.035-4.124-11.733-2.73zm-.175 4.762 12.197 1.22 11.152 2.614 9.06 3.426 8.364 4.414 7.26 4.589 9.263 7.433c9.292 9.362 24.694 27.08 27.872 28.095 17.48-1.906 35.08-2.983 52.65-1.794 13.815 1.216 27.426 4.952 39.858 11.147 9.275 3.187 16.21 10.332 24.107 15.847 6.29 6.909 14.095 12.643 18.226 21.226 6.47 9.757 10.404 20.834 13.254 32.12-.086 3.003 1.007 9.139-1.33 9.566-6.666-3.295-14.202-1.483-20.535 1.676-7.618 1.949-15.033 4.418-21.866 8.374 8.672-3.1 17.275-6.806 26.481-7.933 8.443-2.114 15.912 3.297 22.927 7.181 8.362 5.95 17.943 9.662 27.752 12.445 8.457 2.117 15.148 8.523 19.414 15.901 3.442 3.733 3.102 9.523-.239 13.149-9.64 17.805-82.512 17.154-149.633-26.701 3.664.347 10.746.84 11.784-1.572 19.81-4.63 29.81-10.059 32.452-12.427l-14.683 4.466c-15.407 4.047-30.221 4.379-45.35 3.632-7.54-.372-10.275-.813-17.748.692l6.608-.115 5.087.483c5.556.943 7.92 2.769 12.94 5.67l19.195 11.17 16.896 8.08c10.128 4.601 20.518 8.331 30.962 11.881 15.205 5.706 29.877 7.25 48.038 8.791-14.213 10.194-30.907 9.459-47.792 9.103l-3.781 2.7-49.155 29.788-9.346 5.11-21.843 11.21-34.41 17.151-32.372 14.15-27.888 15.038-15.543 12.113-7.396 7.933c-1.439 1.659-2.864 3.323-3.978 5.144-3.197 6.284-6.98 14.436-7.498 18.746-1.02 3.158 2.54 4.081 3.697 4.59l15.068 5.714c8.697 4.579 15.736 9.675 22.782 16.477 4.357 4.325 6.336 9.088 8.673 14.67 3.675 7.899 5.993 18.29 4.868 21.13-16.01 4.971-42.404-3.62-56.282-8.983l-8.498-5.604c.548-.776 8.112-13.745 5.465-28.858-.032 6.061-.791 13.465-3.114 19.908-1.102 2.965-1.907 4.147-2.803 5.876-2.43 2.953-4.714 4.975-8.036 7.01-3.934 2.37-7.548 4.04-11.038 5.556-4.872 2.068-9.844 3.33-14.826 4.52-6.472 1.31-13.013 2.48-19.707 3.345a419.02 419.02 0 0 1-16.725.903c-3.23-.135-9.752 1.235-8.498-2.17.315-1.746 3.053-14.237 9.583-26.487 9.44-19.039 19.068-24.228 35.709-32.001l7.173-2.622c-5.656-9.832-11.66-19.41-17.298-29.019l-10.758-20.973a277.061 277.061 0 0 1-8.588-18.803c-2.421-6.263-4.901-12.496-6.69-19.075-2.077-7.594-4.29-15.144-5.424-23.052-.955-6.218-2.083-12.366-2.26-18.894.236-7.202.355-14.404 1.537-21.606 1.267-6.83 2.505-13.67 4.249-20.34 2.807-8.354 5.269-16.751 9.311-24.951 3.684-7.744 7.828-15.489 12.656-23.233l11.752-17.238 14.284-15.94 12.87-11.842 10.264-7.521c4.504-2.713 8.98-5.512 13.567-7.972 3.237-1.694 6.543-3.6 9.7-5.053.225-.72.42-1.342.93-2.265.536-1.19 1.98-1.203 3.023-1.632a13.445 13.445 0 0 0-4.302-.4c-.699.01-.925-.505-.813-1.395l.175-3.194V-12.37c-.395-3-.762-6.001-2.092-9.002-1.252-2.564-2.718-5.088-4.82-7.493-1.88-2.063-3.87-4.057-6.331-5.75-2.733-1.644-5.53-3.243-8.945-4.414-13.038-3.318-17.895.79-28.575 2.846-1.576-.002-2.427-.427-1.452-1.917l5.576-4.879 6.156-4.53 6.558-4.249c2.747-1.42 5.55-2.674 8.369-3.882l12.313-4.24c3.71-1.03 7.534-1.716 11.384-2.323zm189.299 223.495 8.95 9.646 6.869 11.961c3.224 7.396 4.895 15.182 6.713 22.995 7.452 31.002-24.669 12.57-39.818 5.48l-19.292-10.804-11.729-9.877 13.35-6.791 17.517-10.572 13.658-9.337z" style="display:inline;fill:#000;stroke-width:.264583" transform="translate(106.808 78.092)"/><path d="m46.129 127.573-5.644 3.877-7.46 6.626-9.227 8-13.251 12.122-10.062 8.049c-9.334 7.154-19.276 13.431-29.005 20.024-13.748 10.004-11.118 15.928 5.35 17.717 9.21.39 17.317-1.343 25.893-4.105l11.455-5.072 7.853-4.172 13.448-8c13.618-7.595 24.612-18.652 36.362-28.717 17.06-19.64 9.308-15.819 17.798-23.66-1.877 10.3-6.58 17.828-13.67 25.335l-9.816 9.767-8.884 7.901L45 182.737l-10.208 6.724-11.975 7.166a108.88 108.88 0 0 1-31.705 11.582c-15.934.75-50.086-1.953-22.821-25.423l5.644-4.171 8.589-5.399c9.66-6.206 18.535-13.505 27.625-20.498 6.261-5.479 12.118-11.562 19.098-16.114l9.766-5.595" style="display:inline;fill:#000;stroke-width:.264583" transform="translate(106.808 78.092)"/></g><g style="display:inline"><path d="M131.234 43.193c-4.097.657-8.203 1.283-11.764 3.818-3.938 2.456-5.814 5.737-7.017 9.287-1.592 4.426-.275 8.02 1.96 11.352 1.736 3.156 4.193 5.89 7.854 7.396 2.781 1.103 3.688 2.997 11.857 2.304 3.98-.022 7.78-1.498 10.938-4.54 3.319-2.849 5.647-6.275 5.676-11.042.459-3.301-.494-6.744-2.786-10.32-2.057-2.514-4.437-4.906-8.669-6.604-2.47-1.614-5.329-1.286-8.049-1.651" style="display:inline;fill:#153164;fill-opacity:1;stroke-width:.264583" transform="translate(106.808 78.092)"/><path d="M127.789 47.156c-3.145 1.23-4.867 1.418-7.785 4.01-1.715 2.692-1.91 6.145-2.733 9.283l4.054 8.013 7.07 3.394 7.353.283 6.787-3.205 3.206-6.6-.66-6.22-2.781-4.95c-1.496-1.394-2.076-3.154-5.28-3.865-2.062-.523-4.175-.746-6.363-.519z" style="display:inline;fill:#1a3671;fill-opacity:1;stroke-width:.264583" transform="translate(106.808 78.092)"/><path d="M116.816 58.183c-.238 4.607.901 7.057 2.86 9.467 2.076 3.037 4.927 4.995 8.772 5.572 3.965.36 7.93.763 11.97-1.651 3.196-2.051 5.575-4.569 6.089-8.152.436-2.564.808-5.12-.413-7.533-.708-1.718-1.808-3.122-2.89-4.541l-2.992-2.373c.878 1.736 1.352 3.05 2.443 5.337 1.325 2.389 2.523 4.281 2.098 6.736-.516 2.337-1.232 4.567-2.89 6.295-1.95 2.187-4.741 2.859-7.43 3.715-3.023.64-5.849.042-8.565-1.238-2.5-1.115-4.165-2.872-5.676-4.747-1.171-2.015-2.174-4.182-1.754-7.637.217-1.074-.334-1.88.526-4.066" style="display:inline;fill:url(#s);stroke-width:.264583" transform="translate(106.808 78.092)"/><path d="M76.747 116.185a5.9 4.72 0 0 1-5.9 4.72 5.9 4.72 0 0 1-5.9-4.72 5.9 4.72 0 0 1 5.9-4.72 5.9 4.72 0 0 1 5.9 4.72" style="display:inline;fill:#fbfdff;stroke-width:.255098" transform="matrix(.86196 -.50698 .6399 .76846 106.808 78.092)"/></g></g><path d="M386.142 65.708c-5.217-.005-9.652 4.288-10.724 9.239-.774 3.574-.279 7.265-.42 10.89.013 48.705-.025 97.41.02 146.114.194 3.443.519 7.099 2.378 10.094 2.632 3.857 7.973 4.745 12.235 3.575 3.268-.88 5.632-3.744 6.502-6.934 1.79-5.317 1.011-10.998 1.185-16.498V109.386c27.72 40.874 55.395 81.78 83.142 122.635 2.588 3.713 6.962 6.58 11.637 6.023 4.925-.527 8.57-4.46 11.094-8.415l81.496-120.243c.015 40.861-.03 81.723.022 122.584.233 3.74.696 7.817 3.182 10.801 3.153 3.664 8.778 4.1 13.038 2.327 2.927-1.237 4.78-4.141 5.314-7.198 1.238-5.367.606-10.914.763-16.367-.014-47.856.029-95.714-.021-143.57-.099-4.945-3.165-9.947-7.89-11.688-4.834-1.674-10.216.472-13.555 4.109-3.046 3.231-5.134 7.206-7.689 10.812L491.002 211.75c-30.613-45.999-61.188-92.023-91.826-138.006-2.974-4.312-7.496-8.199-13.034-8.036m884.058-.004c-3.841-.112-7.946 1.77-9.532 5.433-2.097 5.28-1.497 11.093-1.599 16.646.013 48.149-.026 96.298.02 144.446.188 3.221.416 6.623 1.987 9.509 2.219 3.799 7.13 4.88 11.201 4.15 3.583-.55 6.541-3.446 7.316-6.967 1.582-5.605.861-11.484 1.027-17.224-.013-47.272.026-94.544-.019-141.815-.207-3.398-.479-6.99-2.192-10.008-1.68-2.827-4.995-4.27-8.209-4.17m53.827 9.067c-5.16-.095-10.17 3.12-12.187 7.875-2.39 5.522-1.109 12.782 3.899 16.435 4.959 3.578 12.28 3.49 17.17-.176 3.89-2.8 5.782-7.854 5.007-12.543-.787-6.378-6.817-11.528-13.2-11.578-.23-.005-.46-.036-.689-.013m-608.464 41.33c-13.336.179-26.757.55-39.901 3-6.66 1.451-13.308 3.015-19.839 4.973-2.872.73-5.71 2.582-6.553 5.567-1.41 4.844 1.56 10.38 6.12 12.331 2.146.94 4.54.605 6.648-.254a209.03 209.03 0 0 1 21.284-5.465c11.43-1.878 23.06-2.007 34.615-1.966 10.037.213 20.187 1.153 29.784 4.249 8.135 2.702 14.848 9.323 17.531 17.479 1.57 4.54 2.29 9.327 2.63 14.105-12.18-3.587-24.902-4.75-37.512-5.747-10.983-.697-22.01-1.116-33.009-.557-10.181.624-20.406 2.143-30.047 5.574-8.614 3.248-16.77 8.748-21.534 16.792-4.553 7.844-5.625 17.272-4.712 26.173.882 8.133 4.75 16 11.109 21.232 7.946 6.882 18.164 10.492 28.4 12.247 12.921 2.329 26.144 2.058 39.188 1.115 9.148-.717 18.248-2.316 26.961-5.234 7.28-2.259 14.271-5.49 20.536-9.851 1.014-1.098.942-.05.93.9.343 4.117 1.15 8.81 4.69 11.435 3.484 2.565 8.63 2.505 12.186.119 2.946-1.948 3.795-5.597 4.34-8.858.733-4.604.275-9.287.403-13.927-.034-14.497.07-28.995-.054-43.49-.34-11.502-1.814-23.307-7.044-33.706-4.792-9.215-12.534-16.983-22.09-21.191-7.417-3.181-15.397-4.859-23.365-5.95-7.19-.962-14.45-1.185-21.695-1.095m877.967.01c-13.864.267-27.855 2.312-40.791 7.457-11.387 4.671-21.417 13.01-27.392 23.839-5.898 10.957-7.499 23.653-7.423 35.938.087 13.287 3.085 26.907 10.67 38 5.182 7.732 12.435 14.058 20.873 18.01 12.399 5.932 26.28 7.86 39.892 8.334 12.509.297 25.16-.16 37.388-3.018 7.418-1.92 14.757-4.366 21.572-7.902 3.903-2.195 7.68-4.65 11.21-7.406 2.201-1.58 3.945-4.02 3.907-6.824.071-3.808-2.524-7.287-5.787-9.025-2.606-1.325-5.911-.982-8.17.886-5.855 3.67-11.863 7.226-18.445 9.439-6.967 2.536-14.222 4.313-21.62 4.954-2.01.202-4.013.35-5.885.444-9.274.443-18.627.29-27.799-1.27-.647-.12-1.902-.347-2.775-.535-7.892-1.697-15.843-4.553-21.954-9.998-6.377-6.036-9.17-14.795-10.495-23.252a84.461 84.461 0 0 1-.841-7.785c38.945.493 77.89.989 116.836 1.479 2.985-.138 4.921-2.888 5.686-5.526 2.026-6.56 2.77-13.523 2.059-20.359-.851-10.098-4.734-20.09-11.779-27.486-7.4-7.933-17.505-12.85-27.95-15.366-10.115-2.497-20.6-3.16-30.987-3.028m-269.263 1.67c-3.75-.118-7.74 1.83-9.159 5.454-2.128 5.681-1.347 11.861-1.504 17.792.018 30.736-.035 61.473.026 92.208.207 3.438.437 7.302 2.87 9.979 2.905 3.042 7.602 3.316 11.486 2.46 3.116-.72 5.683-3.28 6.279-6.442 1.41-5.316.724-10.867.89-16.296-.015-30.416.03-60.833-.022-91.25-.222-3.572-.835-7.34-2.916-10.336-1.828-2.47-4.939-3.646-7.95-3.569zm38.507 1.383c-3.793-.099-7.697 2.102-8.953 5.799-1.576 4.345-.542 9.305 2.015 13.065 20.01 34.15 39.985 68.322 60.016 102.459 1.906 2.892 4.288 5.862 7.825 6.708 4.31 1.221 9.371-.088 12.105-3.757 3.324-3.81 5.443-8.45 8.093-12.716 18.356-31.376 36.765-62.723 55.087-94.116 2.163-4.04 2.94-9.435.106-13.352-2.36-3.329-6.814-4.856-10.73-3.751-4.203 1.03-7.101 4.644-8.96 8.349l-52.382 92.968c-17.907-31.747-35.757-63.529-53.699-95.256-2.22-3.682-6.074-6.544-10.523-6.4m-526.557 0c-3.832-.128-7.752 2.121-9.052 5.824-2.085 6.127-1.294 12.691-1.452 19.04.037 14.083-.074 28.167.058 42.25.318 11.552 1.55 23.335 6.055 34.085 3.7 8.638 10.378 16.02 18.831 20.2 8.29 4.096 17.555 5.72 26.691 6.55 12.309 1.04 24.71.405 36.948-1.125 9.985-1.52 20.1-4.073 28.624-9.703 1.66-1.025 3.476-2.553 4.84-3.537-.878 9.258-2.294 18.679-6.297 27.16-2.925 6.224-8.03 11.415-14.358 14.171-9.129 4.115-19.32 4.927-29.214 4.998-1.968-.01-3.601-.02-5.6-.09-9.042-.337-18.313-1.126-26.673-4.864-4.59-1.867-9.033-4.132-13.073-7.01-4.298-2.82-11.046-1.283-13.14 3.582-1.636 3.672-1.284 8.608 2.028 11.256 4.514 3.336 9.228 6.49 14.361 8.793 9.888 4.174 20.626 5.927 31.3 6.39 14.768.684 29.93.323 44.054-4.5 8.027-2.717 15.618-7.122 21.249-13.538 7.872-8.798 11.991-20.247 14.38-31.642 3.126-15.069 3.336-30.53 3.228-45.86-.02-22.714.042-45.428-.03-68.141-.212-3.317-.652-6.756-2.194-9.742-2.307-4.108-7.739-5.358-12.027-4.083-3.45.987-5.744 4.249-6.388 7.664-1.43 5.521-.753 11.267-.912 16.9V203.9c-1.825 6.5-6.373 12.101-12.29 15.328-8.57 5.025-18.334 7.63-28.14 8.819-7.467 1.01-15.014 1.437-22.547 1.187-.621-.035-1.948-.07-2.597-.11-7.371-.463-14.954-1.27-21.69-4.511-5.516-2.72-9.268-8.131-10.859-13.971-3.47-12.511-3.045-25.628-3.066-38.487-.03-12.994.058-25.991-.044-38.985-.23-3.205-.498-6.573-2.027-9.459-1.76-3.176-5.471-4.659-8.977-4.547m179.883 0c-3.841-.12-7.688 2.195-9.035 5.855-2.247 5.916-1.484 12.336-1.619 18.517.03 15.84-.057 31.682.043 47.522.317 11.86 2.402 24.105 8.82 34.291 4.293 6.946 10.847 12.328 18.293 15.603 11.546 5.148 24.361 6.485 36.879 6.667 12.592.122 25.414-1.044 37.243-5.628 7.195-2.585 13.997-6.277 19.94-11.102.815-.915.315.93.473 1.43.186 3.882.491 8.333 3.521 11.151 3.015 2.722 7.638 3.275 11.386 1.93 3.244-1.189 5.212-4.412 5.817-7.687 1.29-5.297.644-10.788.802-16.18-.015-29.305.03-58.611-.023-87.916-.209-3.39-.633-6.92-2.24-9.96-2.314-4.012-7.568-5.177-11.82-4.157-3.678.813-6.36 4.19-6.8 7.863-1.097 5.928-.524 11.986-.669 17.976v66.412c-7.341 5.057-15.43 8.935-23.645 12.343-10.999 4.227-22.918 5.355-34.62 5.195-.724-.016-2.06-.038-3.018-.078-7.919-.344-16.024-1.029-23.425-4.068-5.781-2.406-10.501-7.309-12.346-13.33-2.112-6.389-2.764-13.15-3.002-19.84-.014-.597-.05-1.838-.047-2.554-.05-18.695.045-37.391-.047-56.085-.2-3.212-.516-6.546-1.903-9.488-1.67-3.267-5.427-4.804-8.958-4.682zm580.045 15.25c1.58.005 3.57.033 4.894.083 10.55.404 21.485 1.773 30.752 7.201 5.1 2.852 9.418 7.2 11.75 12.602 2.238 4.743 2.819 10.058 2.645 15.247h-106.16c.98-8.43 3.884-17.119 10.32-22.966 5.303-4.739 12.124-7.357 18.9-9.191 8.773-2.248 17.867-2.954 26.9-2.976M707.757 181.88c12.505-.029 24.985.972 37.388 2.503 4.818.542 9.66 1.124 14.356 1.735 2.87.37 5.74.742 8.606 1.152v24.566c-7.278 5.101-15.537 8.58-23.786 11.777-12.273 4.217-25.355 5.288-38.247 5.629-1.482.043-2.604.042-4.141.053-10.53.066-21.456-1.08-30.888-6.098-4.267-2.244-7.426-6.43-8.272-11.191-.893-5.185-.556-10.685 1.389-15.602 1.78-4.498 5.727-7.807 10.19-9.477 9.923-3.976 20.754-4.839 31.344-5.03z" style="font-size:192px;font-family:Gruppo;-inkscape-font-specification:Gruppo;white-space:pre;opacity:1;fill:#fff;fill-opacity:1;stroke-width:1.63859" transform="translate(87.847 59.13)"/><path d="M1325.584 454.865q-2.719 0-3.375-1.875-.656-1.969-.656-4.687V355.49q0-2.156 1.125-3.562 1.218-1.5 3-1.5 3 0 5.718 4.031l58.126 87.375 58.125-87.375q2.625-4.031 5.718-4.031 1.781 0 2.906 1.5 1.22 1.406 1.22 3.562v92.813q0 2.718-.657 4.687-.656 1.875-3.375 1.875-2.344 0-3.187-1.875-.75-1.969-.75-4.687v-83.25l-55.407 81.75q-2.25 3.187-4.594 3.187-2.53 0-4.593-3.187l-55.407-81.75v83.25q0 2.718-.843 4.687-.75 1.875-3.094 1.875m192.656.938q-9.562 0-17.437-2.157-7.781-2.25-12.469-7.03-4.594-4.876-4.594-12.75 0-9.188 4.969-14.345 4.969-5.156 13.406-7.218 8.438-2.157 18.938-2.157 12 0 23.156 1.313 11.25 1.312 17.25 3.937 0-12.468-4.406-18.562-4.313-6.188-12.281-8.156-7.875-2.063-18.563-2.063-14.625 0-21.937 1.688-7.313 1.687-11.813 3.187-.562.188-.75.188-1.125 0-2.062-1.125-.938-1.219-.938-2.438t1.125-1.781q1.594-.75 10.781-2.906 9.188-2.25 28.313-2.25 11.531 0 20.625 2.812 9.094 2.719 14.25 10.781 5.25 7.97 5.25 23.72v29.812q0 2.156-.656 4.406-.563 2.156-3.188 2.156-2.156 0-3-1.969-.75-1.968-.75-4.968v-5.25q-2.719 2.812-7.969 5.906-5.156 3-13.687 5.156-8.531 2.063-21.563 2.063m-.75-5.532q18.469 0 28.875-4.125 10.407-4.125 15.094-7.968v-18.844q-9.094-1.313-19.406-2.438-10.219-1.218-20.25-1.218-14.438 0-22.5 3.75-8.063 3.75-8.063 14.437 0 8.906 7.407 12.656 7.406 3.75 18.843 3.75m120.375 35.907q-10.5 0-16.781-1.407-6.281-1.406-9.937-3.468-3.563-2.063-6-3.938-.75-.656-.75-1.781 0-3.094 2.906-3.094.75 0 1.594.563 3.562 2.625 9.937 5.062 6.469 2.531 19.031 2.531 12.938 0 20.25-3.937 7.313-3.844 10.313-12.938 3.094-9.093 3.094-24.843-1.5 5.718-5.907 9.093-4.312 3.375-10.125 5.063-5.718 1.687-11.718 2.156-5.907.563-10.688.563-13.406 0-21.469-3.375-7.968-3.469-11.531-11.625-3.469-8.157-3.469-22.219v-28.781q0-2.438.563-4.594.562-2.156 3.094-2.156 2.718 0 3.28 2.156.563 2.156.563 4.594v28.781q0 12.187 2.25 19.125 2.344 6.937 8.532 9.75 6.28 2.812 18.187 2.812 7.219 0 15.281-1.406 8.157-1.5 14.625-5.344 6.469-3.843 8.532-11.156v-42.562q0-2.438.656-4.594t2.906-2.156q2.719 0 3.281 2.156.657 2.156.657 4.594v46.031q0 19.219-4.22 30.187-4.124 11.063-13.218 15.563-9 4.594-23.719 4.594m105.75-30.375q-20.062 0-28.687-7.875-8.625-7.969-8.625-25.688v-32.437q0-2.438.656-4.594t3.094-2.156q2.719 0 3.187 2.156.563 2.156.563 4.594v32.437q0 10.406 2.437 16.594 2.532 6.094 9 8.812 6.469 2.625 18.375 2.625 13.125 0 22.313-4.03 9.281-4.032 14.625-8.063v-48.375q0-2.438.469-4.594.562-2.156 3-2.156 2.812 0 3.375 2.156.656 2.156.656 4.594v58.5q0 2.437-.656 4.5-.657 2.062-2.907 2.062-2.343 0-3.187-1.5-.75-1.5-.75-5.062v-6.657q-2.625 3.094-7.313 6.375-4.687 3.282-11.906 5.532t-17.719 2.25m121.313-.938q-2.719 0-3.281-1.875-.563-1.969-.563-4.5v-91.312q0-2.719.563-4.688.656-2.062 3.468-2.062 2.344 0 2.907 2.062.562 2.063.562 4.5v91.313q0 2.718-.656 4.687-.656 1.875-3 1.875m33.187 0q-2.625 0-3.187-1.594-.563-1.593-.563-4.312v-60.188q0-2.718.563-4.593.562-1.969 3.187-1.969 2.344 0 3 1.969.75 1.968.75 4.406v60.375q0 2.437-.562 4.219-.469 1.687-3.188 1.687m-.094-88.125q-2.437 0-3.937-1.406-1.5-1.5-1.5-3.844 0-2.437 1.5-3.937 1.5-1.594 3.937-1.594 2.344 0 3.938 1.594 1.687 1.5 1.687 3.937 0 2.344-1.687 3.844-1.594 1.406-3.938 1.406m62.719 89.063q-1.969 0-3.094-1.313-1.125-1.312-1.687-2.344l-36.563-62.437q-.937-1.5-.937-3.281 0-3.375 3.187-3.375 2.438 0 4.125 2.906l34.969 62.062 34.969-62.062q1.687-2.906 4.125-2.906 1.312 0 2.25.937.937.844.937 2.438 0 1.5-.937 3.281l-36.563 62.437q-.656 1.032-1.781 2.344-1.125 1.313-3 1.313m102.562.093q-23.437 0-33.843-9.75-10.407-9.843-10.407-27.375 0-14.53 5.907-22.687 6-8.156 16.218-11.531 10.22-3.375 22.782-3.375 19.5 0 29.156 7.5 9.75 7.406 9.75 21.28 0 2.532-.75 6-.75 3.376-1.5 3.376l-74.063-.938q.375 18.47 9.563 25.22 9.281 6.75 27.094 6.75 10.5 0 17.53-1.876 7.126-1.969 11.438-4.312 4.407-2.438 6.47-3.844.28-.188.75-.188 1.03 0 1.874 1.032.938.937.938 2.062 0 1.031-.938 1.688-1.031 1.03-5.344 3.75-4.218 2.625-12.28 4.968-7.97 2.25-20.345 2.25m-36.656-42.093h70.688v-4.407q0-6.28-3.188-11.343-3.187-5.157-10.5-8.25-7.312-3.094-19.687-3.094-17.344 0-27 6-9.563 6-10.313 21.094" aria-label="Mayu live" style="font-size:192px;font-family:Gruppo;-inkscape-font-specification:Gruppo;white-space:pre;fill:url(#t);fill-opacity:1" transform="translate(-1698.008 -444.745)scale(1.63859)"/></svg>