<svg xmlns="http://www.w3.org/2000/svg" xmlns:xlink="http://www.w3.org/1999/xlink" width="1571.607" height="1657.421" viewBox="0 0 415.821 438.526"><defs><linearGradient xlink:href="#a" id="j" x1="-51.169" x2="18.591" y1="58.491" y2="5.617" gradientUnits="userSpaceOnUse"/><linearGradient id="a"><stop offset="0" style="stop-color:#f8bed7;stop-opacity:1"/><stop offset="1" style="stop-color:#f5b0ce;stop-opacity:1"/></linearGradient><linearGradient xlink:href="#b" id="k" x1="-36.866" x2="68.369" y1="193.663" y2="122.446" gradientUnits="userSpaceOnUse"/><linearGradient id="b"><stop offset="0" style="stop-color:#ff8fc0;stop-opacity:1"/><stop offset=".828" style="stop-color:#ff95c1;stop-opacity:1"/><stop offset="1" style="stop-color:#ff9cc3;stop-opacity:0"/></linearGradient><linearGradient xlink:href="#c" id="l" x1="211.933" x2="210.315" y1="114.767" y2="78.061" gradientUnits="userSpaceOnUse"/><linearGradient id="c"><stop offset="0" style="stop-color:#9e295e;stop-opacity:1"/><stop offset=".574" style="stop-color:#d03f76;stop-opacity:1"/><stop offset="1" style="stop-color:#9e295e;stop-opacity:1"/></linearGradient><linearGradient xlink:href="#d" id="m" x1="20.405" x2="48.623" y1="303.157" y2="343.33" gradientUnits="userSpaceOnUse"/><linearGradient id="d"><stop offset="0" style="stop-color:#bc2576;stop-opacity:1"/><stop offset="1" style="stop-color:#dd3d7a;stop-opacity:1"/></linearGradient><linearGradient xlink:href="#e" id="n" x1="-82.597" x2="-81.399" y1="342.515" y2="321.844" gradientTransform="translate(.15)" gradientUnits="userSpaceOnUse"/><linearGradient id="e"><stop offset="0" style="stop-color:#fd69a8;stop-opacity:1"/><stop offset="1" style="stop-color:#fd69a8;stop-opacity:0"/></linearGradient><linearGradient xlink:href="#f" id="o" x1="206.401" x2="173.316" y1="161.287" y2="204.236" gradientUnits="userSpaceOnUse"/><linearGradient id="f"><stop offset="0" style="stop-color:#790c47;stop-opacity:1"/><stop offset=".74" style="stop-color:#851350;stop-opacity:0"/></linearGradient><linearGradient id="g"><stop offset="0" style="stop-color:#7dbdd1;stop-opacity:1"/><stop offset=".431" style="stop-color:#6abcd1;stop-opacity:1"/><stop offset=".627" style="stop-color:#61dae4;stop-opacity:1"/><stop offset="1" style="stop-color:#5fcdda;stop-opacity:1"/></linearGradient><linearGradient xlink:href="#h" id="q" x1="5.543" x2="105.54" y1="215.174" y2="118.728" gradientUnits="userSpaceOnUse" spreadMethod="pad"/><linearGradient id="h"><stop offset="0" style="stop-color:#6094bf;stop-opacity:0"/><stop offset=".572" style="stop-color:#6094bf;stop-opacity:1"/><stop offset="1" style="stop-color:#6094bf;stop-opacity:1"/></linearGradient><linearGradient xlink:href="#i" id="r" x1="143.746" x2="130.519" y1="51.24" y2="69.623" gradientUnits="userSpaceOnUse"/><linearGradient id="i"><stop offset="0" style="stop-color:#698eb6;stop-opacity:1"/><stop offset="1" style="stop-color:#314d84;stop-opacity:1"/></linearGradient><radialGradient xlink:href="#g" id="p" cx="121.638" cy="324.551" r="120.911" fx="121.638" fy="324.551" gradientTransform="matrix(1.80347 -.0828 .0457 .99512 -125.81 -148.6)" gradientUnits="userSpaceOnUse"/></defs><g style="display:inline"><g style="display:inline"><path d="M16.543-71.885c-4.274.138-8.575.018-12.809.727-7.04 1.007-13.877 3.046-20.59 5.35-5.48 2.121-10.595 5.064-15.67 7.998-4.759 3.138-9.282 6.628-13.649 10.286-2.733 2.55-5.416 5.596-5.988 9.423-.134 3.27.941 6.74 3.528 8.878 2.953 2.534 7.24 2.898 10.857 1.786 2.515-.625 5.028-1.264 7.569-1.776.222-.041 1.094-.22 1.581-.297 3.815-.661 7.739-.903 11.583-.403 2.678.994 5.412 2.025 7.727 3.729 1.988 1.544 3.842 3.268 5.335 5.303a15.544 15.544 0 0 1 3.376 9.472c.117 4.606-.761 9.164-.872 13.763-6.186 3.52-12.175 7.384-18.027 11.431-10.022 7.406-19.137 15.943-28.05 24.625-8.729 9.835-16.34 20.586-23.842 31.363-3.028 5.22-6.125 10.402-9.108 15.647-5.472 10.32-9.153 21.446-12.817 32.499-3.085 11.247-5.082 22.793-6.009 34.415.115 10.222-.064 20.522 1.743 30.626 1.08 6.226 2.434 12.402 3.772 18.576 2.318 9.849 6.174 19.237 9.9 28.615 3.126 6.83 6.2 13.686 9.359 20.5 3.335 6.233 6.612 12.5 9.983 18.712 3.984 6.665 7.917 13.36 11.932 20.004-8.94 3.811-17.119 9.387-23.902 16.349-9.755 9.928-16.735 22.29-21.595 35.258-1.27 4.888-2.709 9.87-2.424 14.973.195 3.332 1.716 6.705 4.57 8.569 1.633 1.104 3.544 1.83 5.525 1.89 5.415.488 10.854.09 16.273-.074 10.873-.637 21.626-2.487 32.334-4.395 9.796-2.12 19.17-6.185 27.438-11.848.512-.31 1.113.41 1.662.533A638.56 638.56 0 0 0 .997 356.96c8.351 3.239 17.161 5.183 26.027 6.354 7.333.9 14.813 1.337 22.143.18 4.048-.692 8.26-1.938 11.265-4.878 1.87-1.914 2.512-4.689 2.331-7.296.159-4.713-.901-9.37-2.189-13.874-3.021-9.942-8.238-19.137-14.693-27.245-5.18-6.425-11.786-11.57-18.818-15.822a135.621 135.621 0 0 0-10.958-5.914l-6.683-2.455c3.26-7.743 8.493-14.544 14.735-20.123 3.114-2.807 6.284-5.57 9.771-7.91 4.372-3.045 9.071-5.57 13.662-8.258 6.012-3.326 12.217-6.293 18.453-9.173 12.333-5.55 24.654-11.125 36.939-16.781 4.115-1.917 8.281-3.73 12.365-5.712 7.447-3.889 14.93-7.711 22.354-11.643l12.95-7.166c2.814 2.194 5.578 4.463 8.425 6.611 12.12 7.383 24.392 14.592 37.332 20.456 6.756 2.98 13.735 5.748 21.104 6.705 4.787.598 9.992.125 14.037-2.725 3.925-2.693 6.134-7.202 7.22-11.72.367-1.687.27-3.447.323-5.169-.139-10.081-2.427-20.064-6.08-29.435-3.144-7.986-7.404-15.55-12.764-22.262 10.579-.406 21.256-1.38 31.408-4.544 5.234-1.61 10.17-4.064 14.778-7.007 2.128-1.322 4.534-2.849 7.02-2.867 7.043-.37 14.136-.92 20.956-2.832 1.872-.534 3.772-1.044 5.566-1.793 4.036-2.195 7.832-4.992 10.567-8.73a35.997 35.997 0 0 0 4.112-7.166c1.175-4.357.44-9.044-1.48-13.077-2.1-4.539-5.298-8.434-8.181-12.482-4.147-5.097-10.08-8.363-16.195-10.52-4.998-1.826-10.212-2.99-15.216-4.792-4.846-2.107-8.735-5.79-13.083-8.706-.004-5.774-.492-11.595-2.156-17.148-2.652-9.66-6.23-19.158-11.548-27.685-4.298-6.681-9.32-12.866-14.532-18.848-5.67-6.195-12.642-10.97-19.515-15.71-7.384-4.498-14.944-8.766-22.912-12.15-8.652-3.4-17.765-5.524-26.95-6.86-9.702-.955-19.43-2.066-29.196-1.774-9.801-.167-19.502 1.813-29.304 1.597-7.043-6.521-13.182-13.926-19.848-20.815-2.457-2.416-5.21-4.508-7.8-6.777-1.744-1.446-3.388-3.024-5.345-4.187-2.386-1.545-4.692-3.222-7.131-4.682-3.445-1.866-6.857-3.803-10.321-5.625-3.882-1.431-7.742-2.93-11.637-4.319-4.11-.939-8.21-1.947-12.328-2.842-4.479-.405-8.954-.898-13.434-1.249m11.371 15.19c3.611.872 7.253 1.645 10.845 2.58 2.845 1.11 5.744 2.102 8.556 3.288 2.728 1.48 5.527 2.838 8.21 4.396 2.22 1.446 4.522 2.773 6.687 4.295 2.877 2.338 5.818 4.604 8.654 6.987 7.753 7.886 15.011 16.245 22.894 24.004 1.911 1.763 3.765 3.75 6.21 4.76.637.283 1.282.5 1.978.305 3.318-.361 6.64-.688 9.964-.986.67-.06 1.661-.14 2.454-.208 2.429-.203 4.86-.37 7.292-.529.445-.022 1.265-.072 1.854-.104a275.458 275.458 0 0 1 17.592-.448c.336.002 1.2.017 1.739.024.615.012 1.302.014 1.728.031 5.276.148 10.254.33 15.543 1.15a108.67 108.67 0 0 1 13.41 2.826c.336.102 1.087.305 1.586.458 5.999 1.75 11.815 4.098 17.418 6.854 6.786 2.325 12.291 7.101 17.878 11.422 1.609 1.284 3.296 2.48 4.922 3.732 5.082 5.55 11.15 10.263 15.306 16.612 1.063 1.587 1.774 3.373 2.891 4.925 4.882 7.767 8.17 16.42 10.641 25.223.086.332.316 1.159.458 1.68.286.997.579 1.992.518 3.04l.09 1.857c-6.458-1.313-13.138.399-18.955 3.238-4.392 1.132-8.74 2.457-12.963 4.12.53.658.453 1.024-.437 1l-2.488.466c.862-.734-.17-.149-.624.037-1.464.457-3.028.595-4.53.928-3.337.654-6.701 1.195-10.02 1.92-5.022 1.5-10.016 3.101-15.056 4.537-12.932 3.318-26.39 3.922-39.68 3.395-6.074-.16-12.188-1.007-18.239-.06-1.377.234-2.799.377-4.128.783l-10.204 5.626c3.814 1.14 7.617 2.363 11.438 3.451 2.311.006 4.63-.18 6.937-.045 2.576.241 5.21.363 7.636 1.36 3.135 1.252 5.907 3.226 8.85 4.852 6.11 3.538 12.19 7.128 18.317 10.634 6.128 2.902 12.212 5.899 18.368 8.739 9.987 4.461 20.313 8.1 30.648 11.658 9.988 3.689 20.498 5.747 31.044 7.025-5.737 1.33-11.646 1.68-17.52 1.744-.353-.004-1.2.002-1.742 0-1.434.014-3.072-.023-4.374-.032l-7.854-.16c-2.481 1.75-4.89 3.613-7.544 5.1-15.504 9.386-30.99 18.801-46.506 28.167-4.817 2.635-9.613 5.31-14.528 7.759-8.624 4.425-17.23 8.882-25.927 13.16-8.318 4.132-16.613 8.311-24.945 12.412-10.8 4.736-21.624 9.42-32.409 14.19-12.74 6.166-25.298 12.945-36.42 21.774-5.627 4.454-10.936 9.325-15.804 14.6-4.675 5.605-8.122 12.18-10.494 19.064-.866 2.638-1.596 5.339-1.986 8.087.704.04 1.582-.1 2.352-.13l-1.433 4.167c1.306 2.367 3.862 3.588 6.305 4.454 4.863 1.863 9.755 3.663 14.6 5.566 8.08 4.259 15.551 9.7 21.98 16.195 3.826 4.093 5.62 9.503 7.858 14.521 1.757 4.327 3.146 8.84 3.76 13.478-6.677.91-13.466.405-20.107-.569-8.757-1.366-17.353-3.835-25.449-7.452-.264-.12-.973-.435-1.414-.647a87.206 87.206 0 0 1-7.275-3.83c3.884-8.673 5.584-18.473 3.966-27.896l-5.373-10.485c-1.267 3.748-2.618 7.482-3.833 11.24a81.547 81.547 0 0 1-.094 3.286c-.022.25-.057 1.076-.102 1.557-.448 5.466-1.363 11.01-3.735 16-.642 1.261-1.248 2.563-2.315 3.53-3.313 3.625-7.797 5.829-12.14 7.962a67.384 67.384 0 0 1-12.371 4.597c-5.879 1.645-11.91 2.642-17.923 3.654-1.458.236-2.92.451-4.381.663-.366.052-1.19.16-1.731.234-5.654.496-11.33.747-17.002.958-.992-.03-2.137.054-3.03.095 2.06-8.018 5.048-15.801 8.964-23.098 3.496-6.91 7.985-13.497 14.172-18.27 5.705-4.444 12.315-7.506 18.832-10.545l11.984-4.378c-5.088-8.869-10.356-17.63-15.654-26.375-2.079-3.518-4.294-6.963-6.07-10.65-3.553-6.997-7.223-13.936-10.69-20.977-3.323-6.866-6.396-13.857-9.038-21.014-2-5.176-3.712-10.46-5.102-15.833a573.22 573.22 0 0 1-1.417-5.222c-.095-.36-.298-1.163-.435-1.692-1.26-4.771-2.206-9.618-2.898-14.502-.838-5.507-1.82-11.032-1.84-16.618.107-3.32.198-6.64.386-9.955.017-.285.08-1.198.114-1.724.25-4.31.888-8.586 1.747-12.815 1.025-5.364 2.027-10.747 3.49-16.012 2.001-5.985 3.864-12.025 6.241-17.877.13-.295.454-1.097.663-1.586 3.013-6.768 6.398-13.371 10.052-19.815 2.107-3.705 4.298-7.366 6.768-10.841 3.068-4.468 6.08-8.978 9.182-13.419 4.655-5.175 9.273-10.387 13.951-15.54 4.176-3.823 8.315-7.692 12.514-11.485 3.365-2.437 6.678-4.951 10.076-7.34C-4.547 21.368.722 18.177 6.192 15.35a124.76 124.76 0 0 1 8.163-4.128c.277-.854.534-1.715.823-2.565 5.184-1.789 10.337-3.671 15.51-5.496C25.22 1.856 19.769.475 14.29-.78c-.244-.348-.017-1.11-.096-1.605-.018-3.498.037-7.001-.027-10.496-.509-4.212-1.252-8.516-3.412-12.237-1.947-3.768-4.626-7.117-7.732-9.993a30.508 30.508 0 0 0-6.95-5.007c-2.499-1.384-5.097-2.668-7.842-3.464-5.434-.886-11.017-1.108-16.459-.153 2.244-1.408 4.41-2.952 6.705-4.271 2.704-1.315 5.415-2.65 8.246-3.672 3.84-1.293 7.648-2.694 11.51-3.918a86.494 86.494 0 0 1 10.228-1.999c2.749-.057 5.503-.253 8.249-.222zM236.936 83.697c4.489.298 8.471 2.65 12.297 4.815 1.88 1.09 3.816 2.104 5.587 3.392 8.696 5.728 18.57 9.361 28.554 12.124 6.402 2.092 11.442 7.108 14.862 12.773.548 1.183 1.733 1.985 1.986 3.32.507 1.928-.246 4.02-1.667 5.373-1.369 2.733-4.25 4.216-6.945 5.357-6.35 2.5-13.225 3.271-19.996 3.576-12.992.47-25.983-1.187-38.669-3.905-23.082-5.029-45.28-13.868-65.77-25.59-.732-.23-.785-.592-.062-.867 7.751-1.893 15.437-4.171 22.772-7.336l-2.012-4.374 7.975-.22-2.885 3.183c1.952-.966 3.884-1.997 5.662-3.261 3.019-.105 6.054-.125 9.063-.283 8.419-3.003 16.756-6.619 25.704-7.706 1.158-.296 2.35-.43 3.544-.37m-30.903 84.022c5.632 5.89 9.777 13.078 12.572 20.706 2.448 6.639 4.158 13.524 5.664 20.429.434 2.587.89 5.344.033 7.893-.471 1.446-2.218 1.622-3.513 1.63-4.17-.104-8.153-1.569-12.01-3.034a127.993 127.993 0 0 1-6.592-2.831c-.431-.207-1.199-.558-1.76-.82-4.553-2.202-9.12-4.378-13.669-6.59-7.486-3.736-14.398-8.524-20.895-13.776 2.696-1.421 5.481-2.683 8.117-4.215 5.733-3.48 11.504-6.904 17.215-10.419 4.71-3.235 9.448-6.43 14.14-9.69z" style="display:inline;opacity:1;fill:#fff;fill-opacity:1;stroke-width:.264583" transform="translate(100.6 71.885)"/><path d="m-93.49 168.614 5.018-42.426 16.423-41.969 23.265-34.214 34.67-31.933L5.502 6.667 8.24-18.879C-.377-27.116-6.666-36.516-26.887-38.951l-15.51 5.93-4.106-7.299 28.74-17.791 46.075-5.93 37.407 15.054 34.67 35.126 75.727 1.369 49.268 29.196c17.482 19.29 24.76 40.934 26.46 63.866 10.909 8.745 23.095 14.938 37.406 16.879l17.792 20.072-18.248 20.984-26.002 1.825-52.006 13.686-78.008 46.53-53.83 26.003-160.577-7.299z" style="display:inline;fill:#f05a93;fill-opacity:1;stroke-width:.264583" transform="translate(100.6 71.885)"/><path d="m209.612 84.678 36.708 17.247c17.953 8.03 33.936 14.676 52.846 6.328l-9.177-10.284-22.31-6.329-25.631-14.714c-11.635 1.212-22.036 4.48-32.436 7.752" style="display:inline;fill:#fff;fill-opacity:.809689;stroke:none;stroke-width:.264583" transform="translate(100.6 71.885)"/><path d="m97.018 168.392 126.054-14.241 26.645-2.643 15.577-10.815-39.254-5.231-28.823-9.209-62.926-30.367c-10.595.107-20.276.093-25.62 6.145-17.071 16.897-16.518 23.611-21.528 33.54l-9.854 23.522z" style="display:inline;fill:#fff;fill-opacity:1;stroke:none;stroke-width:.264583" transform="translate(100.6 71.885)"/><path d="M-91.804 152.852c5.14-6.446 10.904-12.625 14.391-21.666 3.93-10.935 7.384-26.444 14.195-37.619 11.55-20.214 24.528-36.938 42.322-52.679l23.25-16.41C26.5 8.365 37.291 6.244 56.342-.062L8.244 5.829l-31.575 18.978-28.466 28.793-22.086 35.174-14.887 39.754Z" style="display:inline;fill:#f684b7;fill-opacity:1;stroke:none;stroke-width:.264583" transform="translate(100.6 71.885)"/><path d="m-52.191 57.923 2.206 1.615c.994.743 1.617.445 2.088-.276l9.415-11.228 9.14-9.06 9.022-7.368 10.992-7.485 14.064-7.643L20.81 8.44c5.056-1.868 10.112-3.12 15.167-4.61L8.44 6.393l-31.28 18.792-20.368 18.438Z" style="display:inline;fill:url(#j);stroke:none;stroke-width:.264583" transform="translate(100.6 71.885)"/><path d="M168.219 99.76c7.056 6.684 16.246 10.848 26.134 14.185 11.978 4.357 24.328 7.226 36.822 9.52 13.58 2.891 29.15 4.484 48.675 3.498 9.493.492 18.442-.785 26.912-8.744l-2.818 11.659-22.151 8.064-47.606-1.166-43.914-12.63-42.748-23.997z" style="display:inline;fill:#c93b71;fill-opacity:1;stroke:none;stroke-width:.264583" transform="translate(100.6 71.885)"/><path d="M-37.847-36.303c10.955-6.77 21.053-9.718 33.777-6.473C21.14-33.848 44.85.288 70.449-5.546l20.76-2.75.071 2.678-19.985 2.815c-8.789 1.898-18.397 4.944-26.32 5.63L3.812 9.301 8.033-15.05-2.24-31.94l-16.326-5.63Z" style="display:inline;fill:#d03572;fill-opacity:1;stroke:none;stroke-width:.264583" transform="translate(100.6 71.885)"/><path d="M-44.164-35.605c11.784-5.089 17.141-13.026 32.624-18 37.568-13.926 67.255 7.579 90.203 35.897l5.932 6.443 5.113 3.989c.752.638 1.39.466 2.142-.022l10.029-5.092-16.261-17.59-22.91-21.682-30.373-11.761-31.09-.102-25.057 7.67-17.08 12.682z" style="fill:#f8bed7;fill-opacity:1;stroke:none;stroke-width:.264583" transform="translate(100.6 71.885)"/><path d="M-38.04 196.814c5.748-3.842 10.845-7.855 18.008-12.303 8.01-5.29 15.837-10.671 24.266-15.752 10.513-6.701 19.077-14.795 28.097-22.563 6.627-4.985 11.975-10.318 20.86-14.687l16.817-7.876-8.302-6.811-30.439 19.796-34.909 30.226-31.929 21.073z" style="display:inline;fill:url(#k);stroke:none;stroke-width:.264583" transform="translate(100.6 71.885)"/><path d="m-34.048 280.134 20.206-7.686 15.593 17.35 32.284 18.009 12.08 14.495 8.784 22.84.22 9.444-27.453 1.318-37.116-10.981-6.37-3.075-17.788 10.322-30.528 5.71-27.892.88-3.294-4.174 8.565-22.62 16.032-24.599 26.794-15.153" style="display:inline;fill:#f2508f;fill-opacity:1;stroke-width:.264583" transform="translate(100.6 71.885)"/><path d="m87.35-4.364 8.034-.307c10.962-1.813 20.701-1.32 31.643-.72 13.576 1.117 22.364 5.334 34.61 10.608l18.967 9.979 16.63 11.236c26.569 19.205 19.36 5.728 11.227-12.731-.606-1.677 2.454-4.27 4.505-4.978L197.324-3.772l-29.036-8.45-37.036-3.956-27.872 4.398c-5.472 4.184-11.327 2.822-16.03 7.416" style="display:inline;fill:#f9cfe2;fill-opacity:1;stroke:none;stroke-width:.264583" transform="translate(100.6 71.885)"/><path d="M251.428 68.243c-5.674-1.847-10.875-2.09-15.484-.32-6.737 2.04-12.474 4.702-18.118 7.423-9.393 5.715-15.507 9.62-23.146 13.41l-16.761 6.464-28.813 5.747 21.23 13.09 29.691 13.01 33.602 10.774 28.334 1.756 27.217-.718 19.474-12.93-2.314-4.15c-5.053 6.521-11.498 8.285-18.198 9.178-11.52.962-23.04.36-34.56-.16-11.726-.37-23.206-1.726-34.24-4.868-10.34-2.812-20.768-5.475-30.17-9.897-8.78-4.252-17.093-9.105-24.902-14.606 7.634.732 16.833-2.19 26.1-5.268 5.271-1.836 12.613-6.892 18.995-10.456l17.24-5.746L237.3 77.74l15.325.798z" style="display:inline;fill:url(#l);stroke:none;stroke-width:.264583" transform="translate(100.6 71.885)"/><path d="M12.758 297.751c5.362 4.347 10.724 7.68 16.086 13.274 3.003 2.883 5.22 6.355 7.296 9.933 2.302 5.531 6.416 12.606 6.593 18.987l2.901 15.56 9.23-1.32-.879-14.855-11.34-21.185-17.317-16.262Z" style="display:inline;fill:url(#m);stroke-width:.264583" transform="translate(100.6 71.885)"/><path d="M-88.29 352.701c5.427-5.934 10.099-12.472 17.376-16.926l22.768-12.433L-9.5 308.513l-30.857-13.032-21.869 14.08-20.671 28.31z" style="display:inline;fill:url(#n);stroke-width:.264583" transform="translate(100.6 71.885)"/><path d="m152.488 189.512 19.256 15.631 27.411 13.592 24.693 8.156 4.757-.453 3.172-9.062-1.586-19.935-7.702-20.615-15.405-20.616z" style="display:inline;fill:#a01f5d;fill-opacity:1;stroke-width:.264583" transform="translate(100.6 71.885)"/><path d="M208.98 156.961c-.557 10.715.332 21.701-6.373 31.264-4.192 8.144-11.096 16.289-17.15 24.433l-23.371-13.203-8.954-9.561z" style="display:inline;fill:url(#o);fill-opacity:1;stroke-width:.264583" transform="translate(100.6 71.885)"/><path d="M-10.911 305.634c-2.658.885-5.703 4.266-9.122 5.954l-25.463 9.248c-7.447 3.483-14.76 7.167-21.537 11.655l-4.94 4.18c8.477-4.27 16.512-9.646 25.59-12.415 8.605-3.065 14.71-5.297 21.41-7.727 3.296-.299 4.314 1.682 4.94 4.054 2.67 9.104.515 16.921-1.773 24.703l7.825-5.393 23.486 11.216 33.316 4.747 9.582-2.285c-.65-2.753-1.909-5.303-3.253-7.824-1.731-3.692-4.66-7.384-8.263-11.076-3.904-3.894-9.65-6.866-14.856-10.109-4.466-1.658-8.946-3.301-13.185-5.187-3.612-1.523-7.156-3.047-9.846-4.57-3.387-1.745-6.362-2.872-9.287-3.924-.42-2.048.421-4.433-4.624-5.247" style="display:inline;fill:#c7366f;fill-opacity:1;stroke-width:.264583" transform="translate(100.6 71.885)"/><path d="M-28.777 291.774c-10.843 5.482-20.33 12.32-29.43 19.547-18.622 15.74-23.413 31.479-32.284 47.218l-3.953-3.074 10.542-31.406 20.205-20.864 21.523-11.42z" style="display:inline;fill:#f6bed7;fill-opacity:1;stroke-width:.264583" transform="translate(100.6 71.885)"/><path d="m-43.5 191.66 4.77 8.857 13.285 6.132 16.352-1.022-12.264 69.154-15.33 7.836-12.945-59.276z" style="display:inline;fill:#da407b;fill-opacity:1;stroke-width:.264583" transform="translate(100.6 71.885)"/><path d="M198.992 27.732c1.046 4.249 23.594 15.863 21.582 6.525-1.348-7.41-5.357-14.29-8.654-21.791l-.469-3.078c-2.709.797-4.4 2.016-2.743 4.617l6.401 17.072c1.762 6.638-2.58 3.632-6.017 3.098" style="display:inline;fill:#fff;fill-opacity:.228374;stroke:none;stroke-width:.264583" transform="translate(100.6 71.885)"/></g><g style="display:inline"><path d="m-12.796 207.366-6.682 14.876c-6.096 14.965-6.806 29.435-7.318 45.42l.159 9.944c1.152 3.179 2.9 6.308 3.133 9.563 4.305-2.233 6.284-2.84 8.067-3.308 2.595-.805 4.581-.985 6.686-.652 1.196.243 1.784.746 2.398 1.238 1.585 2.506 1.92 5.735 3.739 8.193 1.29 1.1 2.083 1.21 3.124 1.812l4.83-20.346 15.512-15.432 27.762-18.853 31.42-14.08 35.08-16.147 38.74-20.444 31.023-17.182 27.428-20.503c-12.411-.82-21.984-1.803-34.349-3.122-19.13-.946-37.419 6.517-56 10.261-29.571 9.335-45.386 8.727-36.507-17.182L67.864 159.4l-23.387 19.568-38.58 22.671-16.068 4.614" style="display:inline;fill:url(#p);fill-opacity:1;stroke-width:.264583" transform="translate(100.6 71.885)"/><path d="M-23.663 287.166c3.837-13.442 7.76-20.764 16.17-21.415 8.429 1.352 9.398 6.39 6.668 11.637-3.17 4.112-3.202 4.097-5.1 7.574-4.768-4.32-11.576.368-17.738 2.204" style="display:inline;fill:#fff;fill-opacity:1;stroke:none;stroke-width:.264583" transform="translate(100.6 71.885)"/><path d="m-2.12 292.213-.854-9.477 10.586-14.377-5.397 26.07Z" style="display:inline;fill:#53b2cc;fill-opacity:1;stroke-width:.264583" transform="translate(100.6 71.885)"/><path d="M85.121 143.054c-.801 4.575-2.83 6.523-5.568 10.174l-5.43 9.418-5.913 7.562-6.805 7.08-11.343 9.9-12.374 11.204-16.773 15.261-8.318 6.737-26.604-13.06 25.298-8.113 26.466-14.642 24.679-19.248 18.698-18.836m-37.449 140.95 2.745-6.012" style="display:inline;fill:url(#q);fill-rule:nonzero;stroke-width:.264583" transform="translate(100.6 71.885)"/></g><g style="display:inline"><path d="M40.516 130.616c4.338-3.986 9.067-7.731 12.708-12.694 3.2-4.827 6.057-12.142 9.536-14.048 3.552.186 6.873.835 9.165 3.543 2.439 2.19 4.411 5.241 3.35 8.605-11.66 3.917-23.517 8.095-34.76 14.594M-37.693 196.357c12.064 6.342 24.185 1.388 35.955-2.635 11.365-3.39 22.037-8.723 32.39-15.033 8.527-4.56 15.846-10.893 22.3-17.667 7.204-6.332 13.801-13.272 20.474-20.147l9.454-9.299 4.185-5.734 2.634 4.184-12.398 19.528-21.387 21.542-26.656 18.287L2.29 201.471l-16.737 5.27-13.483-1.24-11.934-5.58z" style="display:inline;fill:#b8346c;fill-opacity:1;stroke-width:.264583" transform="translate(100.6 71.885)"/><path d="m13.993 150.144-5.944-15.84c-3.024-6.633-6.129-12.362-9.896-19.538-2.818-4.57-6.305-9.46-11.96-13.084-26.429-18.445-47.596 8.119-52.849 15.658-4.885 7.286-7.362 14.572-10.439 21.857l-6.524 15.66c-2.598 6.447-5.75 6.25-8.808 7.176l2.283 25.445 11.092 35.232 15.985 35.559 20.37 35.339 14.824-1.16c-9.542-27.644-17.776-62.86-13.99-95.835l15.333-15.333 34.906-25.445" style="display:inline;fill:#b8346c;fill-opacity:1;stroke-width:.264583" transform="translate(100.6 71.885)"/></g><g style="display:inline;fill:#152c62;fill-opacity:1"><path d="M-.31-65.746c-10.655 1.873-20.255 6.437-29.564 11.732-5.408 3.526-16.723 11.42-17.656 16.32-.07 5.026 3.475 6.766 7.366 6.08 8.588-2.14 15.039-3.947 24.056-2.885 3.091 1.1 6.166 2.302 9.118 4.24 2.032 1.668 4.086 3.21 5.983 5.692 8.21 9.745 3.883 18.501 4.136 29.651-7.082 3.868-13.343 7.971-19.467 12.113-41.653 29.435-62.44 71.858-72.487 101.83-3.01 10.886-4.913 22.026-5.876 33.269.137 22.801.372 24.688 4.7 45.02 2.11 10.697 6.247 20.644 10.216 30.736l9.22 20.25 9.764 18.351 11.3 18.984 3.345 5.424c1.06 2.25-30.182 5.386-47.551 51.258-3.13 11.41-3.65 17.553 2.44 19.346 5.308.654 10.67.21 16.002.09 10.612-.55 21.016-2.342 31.46-4.158 2.096-.365 15.954-3.078 29.109-13.018l7.232 3.435 9.853 4.52c16.304 6.564 46.452 10.384 54.603 2.983 1.3-1.334 1.178-2.903 1.131-4.43.164-3.165-.49-6.318-1.208-9.473-3.327-13.615-11.703-25.282-16.406-30.61-7.533-8.182-16.25-13.3-26-18.194l-8.468-3.108c-2.601-.89-1.944-2.476-1.473-4.074 4.018-10.072 10.185-17.873 18.41-24.87 5.617-5.18 11.966-9.202 18.544-12.863 6.664-4.05 13.72-7.37 20.702-10.705l22.193-10.014 28.085-12.863 22.082-11.47 16.519-9.14 10.377 8.196c54.837 33.65 68.926 31.564 72.846 15.356 1.02-12.599-3.549-36.5-19.741-55.122-1.698-2.079-1.737-3.605-1.16-4.926 48.643-.28 48.228-14.034 59.755-14.542 7.913-.469 15.142-.803 24.638-4.103 5.35-2.988 8.969-5.894 12.393-13.144 2.027-8.05-4.416-14.98-8.683-21.138-7.098-8.741-18.838-10.355-28.91-13.786-6.206-2.315-11.087-7.362-16.755-10.788.056-5.766-.094-11.51-1.625-17.106-2.443-9.273-5.76-18.388-10.663-26.674-3.959-6.382-8.768-12.34-13.634-18.057-5.516-6.461-12.52-11.175-19.422-16.009-7.028-4.313-14.347-8.413-21.898-11.715-8.339-3.344-17.031-5.351-25.892-6.72-9.463-.912-19.016-2.07-28.538-1.777-10.586-.233-21.057 2.1-31.618 1.524-13.969-11.717-6.044-9.309-32.083-31.378-5.747-4.253-12.046-7.552-18.295-10.977-7.3-3.348-15-5.046-22.768-6.854-9.97-1.498-19.818-1.515-29.737.29m28.982 4.472c7.045 1.12 13.588 3.535 20.212 6.04 5.464 2.574 10.532 5.785 15.624 9.003 25.302 20.304 30.99 33.564 37.135 35.528 17.48-1.906 35.08-2.983 52.65-1.794 13.815 1.216 27.426 4.952 39.858 11.147 9.275 3.187 16.21 10.332 24.107 15.847 6.29 6.909 14.095 12.643 18.226 21.226 6.47 9.757 10.404 20.834 13.254 32.12-.086 3.003 1.007 9.139-1.33 9.566-6.666-3.295-14.202-1.483-20.535 1.676-7.618 1.949-15.033 4.418-21.866 8.374 8.672-3.1 17.275-6.806 26.481-7.933 8.443-2.114 15.912 3.297 22.927 7.181 8.362 5.95 17.943 9.662 27.752 12.445 8.457 2.117 15.148 8.523 19.414 15.901 3.442 3.733 3.102 9.523-.239 13.149-9.64 17.805-82.512 17.154-149.633-26.701 3.664.347 10.746.84 11.784-1.572 19.81-4.63 29.81-10.059 32.452-12.427l-14.683 4.466c-15.407 4.047-30.221 4.379-45.35 3.632-7.54-.372-10.275-.813-17.748.692l6.608-.115 5.087.483c5.556.943 7.92 2.769 12.94 5.67l19.195 11.17 16.896 8.08c10.128 4.601 20.518 8.331 30.962 11.881 15.205 5.706 29.877 7.25 48.038 8.791-14.213 10.194-30.907 9.459-47.792 9.103l-3.781 2.7-49.155 29.788-9.346 5.11-21.843 11.21-34.41 17.151-32.372 14.15c-20.3 9.838-35.325 18.71-50.827 35.084-5.378 6.19-10.07 15.99-11.476 23.89-1.02 3.158 2.54 4.081 3.697 4.59l15.068 5.714c8.697 4.579 15.736 9.675 22.782 16.477 4.357 4.325 6.336 9.088 8.673 14.67 3.675 7.899 5.993 18.29 4.868 21.13-10.475 3.253-40.496 1.43-64.78-14.587.548-.776 8.112-13.745 5.465-28.858-.032 6.061-.791 13.465-3.114 19.908-1.102 2.965-1.907 4.147-2.803 5.876-2.43 2.953-4.714 4.975-8.036 7.01-3.934 2.37-7.548 4.04-11.038 5.556-4.872 2.068-9.844 3.33-14.826 4.52-6.472 1.31-13.013 2.48-19.707 3.345a419.02 419.02 0 0 1-16.725.903c-3.23-.135-9.752 1.235-8.498-2.17.315-6.176 2.702-13.36 9.232-25.61 10.493-17.459 19.42-25.105 36.06-32.878l7.173-2.622c-5.656-9.832-11.66-19.41-17.298-29.019l-10.758-20.973a277.061 277.061 0 0 1-8.588-18.803c-2.421-6.263-4.901-12.496-6.69-19.075-2.077-7.594-4.29-15.144-5.424-23.052-.955-6.218-2.083-12.366-2.26-18.894.236-7.202.355-14.404 1.537-21.606 1.267-6.83 2.505-13.67 4.249-20.34C-75.135 95.704-55.076 40.58 10.55 7.9c.225-.72.42-1.342.93-2.265.536-1.19 1.98-1.203 3.023-1.632a13.445 13.445 0 0 0-4.302-.4c-.699.01-.925-.505-.813-1.395l.175-3.194V-12.37c-.395-3-.762-6.001-2.092-9.002-1.252-2.564-2.718-5.088-4.82-7.493-1.88-2.063-3.87-4.057-6.331-5.75-2.733-1.644-5.53-3.243-8.945-4.414-13.038-2.065-17.895.883-28.575 2.846-1.576-.002-2.427-.427-1.452-1.917l5.576-4.879 6.156-4.53 6.558-4.249c23.129-11.959 39.36-10.866 53.033-9.516M205.774 161c13.884 12.551 18.473 27.081 22.532 44.602 7.452 31.002-24.669 12.57-39.818 5.48-12.39-5.704-20.853-12.119-31.02-20.681l13.349-6.79 17.517-10.573 13.658-9.337z" style="display:inline;fill:#152c62;stroke-width:.264583;fill-opacity:1" transform="translate(100.6 71.885)"/><path d="m46.129 127.573-5.644 3.877-7.46 6.626-9.227 8-13.251 12.122-10.062 8.049c-9.334 7.154-19.276 13.431-29.005 20.024-13.748 10.004-11.118 15.928 5.35 17.717 9.21.39 17.317-1.343 25.893-4.105l11.455-5.072 7.853-4.172 13.448-8c13.618-7.595 24.612-18.652 36.362-28.717 17.06-19.64 9.308-15.819 17.798-23.66-1.877 10.3-6.58 17.828-13.67 25.335l-9.816 9.767-8.884 7.901L45 182.737l-10.208 6.724-11.975 7.166a108.88 108.88 0 0 1-31.705 11.582c-15.934.75-50.086-1.953-22.821-25.423l5.644-4.171 8.589-5.399c9.66-6.206 18.535-13.505 27.625-20.498 6.261-5.479 12.118-11.562 19.098-16.114l9.766-5.595" style="display:inline;fill:#152c62;stroke-width:.264583;fill-opacity:1" transform="translate(100.6 71.885)"/></g><g style="display:inline"><path d="M119.47 47.01c-3.938 2.457-5.814 5.738-7.017 9.288-1.592 4.426-.275 8.02 1.96 11.352 1.839 3.342 7.349 10.75 19.71 9.7 3.982-.022 7.782-1.498 10.94-4.54 3.318-2.849 5.646-6.275 5.675-11.042.459-3.301-.494-6.744-2.786-10.32-10.895-13.319-25.074-6.863-28.482-4.437" style="display:inline;fill:#153164;fill-opacity:1;stroke-width:.264583" transform="translate(100.6 71.885)"/><path d="M127.789 47.156c-3.145 1.23-4.867 1.418-7.785 4.01-1.715 2.692-1.91 6.145-2.733 9.283l4.054 8.013 7.07 3.394 7.353.283 6.787-3.205 3.206-6.6-.66-6.22-2.781-4.95c-1.496-1.394-2.076-3.154-5.28-3.865-2.062-.523-4.175-.746-6.363-.519z" style="display:inline;fill:#1a3671;fill-opacity:1;stroke-width:.264583" transform="translate(100.6 71.885)"/><path d="M116.816 58.183c-.482 9.317 6.45 14.262 11.632 15.04 3.965.359 7.93.762 11.97-1.652 5.163-3.116 8.222-9.895 5.676-15.685-.708-1.718-1.808-3.122-2.89-4.541l-2.992-2.373c.878 1.736 1.352 3.05 2.443 5.337 2.86 4.447 2.796 8.96-.792 13.031-4.242 4.196-10.717 4.818-15.995 2.477-.554-.248-8.458-3.93-7.43-12.384.217-1.074-.334-1.88.526-4.066" style="display:inline;fill:url(#r);stroke-width:.264583" transform="translate(100.6 71.885)"/><path d="M76.747 116.185a5.9 4.72 0 0 1-5.9 4.72 5.9 4.72 0 0 1-5.9-4.72 5.9 4.72 0 0 1 5.9-4.72 5.9 4.72 0 0 1 5.9 4.72" style="display:inline;fill:#fbfdff;stroke-width:.255098" transform="matrix(.86196 -.50698 .6399 .76846 100.6 71.885)"/></g></g></svg>